<svg width="177" height="21" viewBox="0 0 177 21" fill="none" xmlns="http://www.w3.org/2000/svg">
<g clip-path="url(#clip0_136_34)">
<path d="M29.4431 0.708984H3.90251C3.79612 0.708984 3.68954 0.708984 3.58333 0.709548C3.49367 0.7103 3.4042 0.71124 3.31453 0.713684C3.11923 0.718947 2.92224 0.730601 2.72938 0.765188C2.53597 0.798325 2.34857 0.860094 2.17336 0.94846C1.82113 1.12761 1.53484 1.41391 1.35569 1.76613C1.26716 1.94141 1.20539 2.12895 1.17241 2.32253C1.13745 2.51558 1.12599 2.71238 1.12072 2.9075C1.11843 2.99708 1.11705 3.08668 1.11659 3.17629C1.11621 3.28231 1.11621 3.3887 1.11621 3.49528V17.8409C1.11621 17.9474 1.11621 18.0536 1.11659 18.1602C1.11715 18.2497 1.11828 18.3394 1.12072 18.429C1.12599 18.6238 1.13764 18.8208 1.17241 19.0136C1.20532 19.2072 1.26703 19.3947 1.3555 19.57C1.44444 19.7451 1.56054 19.9049 1.69949 20.0437C1.83819 20.1827 1.99807 20.2988 2.17317 20.3877C2.35118 20.4785 2.53351 20.5362 2.72957 20.5713C2.92224 20.6057 3.11923 20.6174 3.31453 20.6227C3.4042 20.6247 3.49367 20.6258 3.58333 20.6264C3.68954 20.6272 3.79612 20.6272 3.90251 20.6272H29.4431C29.5493 20.6272 29.6559 20.6272 29.7621 20.6264C29.8516 20.626 29.941 20.6247 30.0311 20.6227C30.226 20.6174 30.423 20.6057 30.6162 20.5713C30.8097 20.5382 30.9971 20.4763 31.1722 20.3877C31.5243 20.2083 31.8105 19.9221 31.9899 19.57C32.0807 19.392 32.1382 19.2097 32.173 19.0136C32.208 18.8208 32.2192 18.6238 32.2245 18.429C32.2269 18.3394 32.2283 18.2497 32.2286 18.1602C32.2294 18.0536 32.2294 17.9474 32.2294 17.8409V3.49547C32.2294 3.38889 32.2294 3.2825 32.2286 3.17611C32.2283 3.08656 32.2269 2.99701 32.2245 2.9075C32.2192 2.71238 32.208 2.51558 32.173 2.32253C32.1403 2.12892 32.0785 1.94135 31.9899 1.76613C31.8107 1.41397 31.5244 1.1277 31.1722 0.94846C30.997 0.860185 30.8096 0.798481 30.6162 0.765376C30.423 0.730601 30.226 0.719135 30.0311 0.713872C29.9414 0.711595 29.8518 0.710216 29.7621 0.709736C29.6559 0.708984 29.5493 0.708984 29.4431 0.708984Z" fill="black"/>
<path d="M29.4432 1.37305L29.7575 1.37361C29.8425 1.37417 29.9276 1.37511 30.0132 1.37737C30.1622 1.38151 30.3363 1.38959 30.4987 1.41872C30.6397 1.4441 30.7581 1.48263 30.8716 1.54053C31.0988 1.65605 31.2834 1.84083 31.3987 2.06816C31.4562 2.18095 31.4946 2.29862 31.5199 2.44091C31.5489 2.60144 31.557 2.77606 31.5609 2.92588C31.5634 3.01046 31.5645 3.09505 31.5647 3.18152C31.5656 3.28622 31.5656 3.39073 31.5656 3.49562V17.8412C31.5656 17.9461 31.5656 18.0506 31.5649 18.1574C31.5645 18.242 31.5634 18.3265 31.5611 18.4111C31.557 18.5608 31.5489 18.7354 31.5196 18.8978C31.4983 19.027 31.4574 19.1522 31.3983 19.269C31.2828 19.4964 31.098 19.6812 30.8705 19.7967C30.7577 19.8542 30.6397 19.8927 30.5 19.9179C30.3344 19.9474 30.1528 19.9555 30.0162 19.9593C29.9303 19.9611 29.8447 19.9625 29.757 19.9628C29.6526 19.9636 29.5478 19.9636 29.4432 19.9636H3.89852C3.79514 19.9636 3.69175 19.9636 3.58649 19.9628C3.50189 19.9625 3.4173 19.9613 3.33273 19.9594C3.19288 19.9557 3.0113 19.9474 2.84701 19.9181C2.71712 19.8964 2.59125 19.8553 2.4737 19.7959C2.36094 19.7386 2.25802 19.6638 2.16881 19.5741C2.07932 19.4848 2.00458 19.3818 1.94738 19.269C1.88831 19.1515 1.84737 19.0257 1.82595 18.8959C1.79663 18.7337 1.78836 18.5598 1.7846 18.4113C1.78247 18.3264 1.78122 18.2415 1.78084 18.1566L1.78027 17.9072V3.42983L1.78065 3.18077C1.78104 3.09573 1.78229 3.0107 1.78441 2.92569C1.78854 2.77682 1.79663 2.60294 1.82614 2.43941C1.8476 2.30987 1.88854 2.18432 1.94757 2.06704C2.00471 1.95463 2.07915 1.852 2.16937 1.76196C2.2588 1.67239 2.36183 1.59753 2.47464 1.54015C2.59191 1.48124 2.71737 1.4403 2.84682 1.41872C3.00942 1.38959 3.18367 1.38151 3.33292 1.37737C3.41788 1.37511 3.50303 1.37417 3.58743 1.37361L3.90266 1.37305H29.4432Z" fill="white"/>
<path d="M9.29537 7.43281C9.55932 7.10286 9.7383 6.65974 9.69111 6.20703C9.30496 6.22621 8.83382 6.46177 8.56084 6.7921C8.31587 7.07485 8.09911 7.5364 8.15551 7.97012C8.58904 8.00772 9.0222 7.75354 9.29537 7.43281Z" fill="black"/>
<path d="M9.68538 8.05526C9.05568 8.01766 8.52071 8.4124 8.22015 8.4124C7.91939 8.4124 7.45905 8.07406 6.96112 8.08327C6.31318 8.09267 5.71205 8.45921 5.3831 9.04192C4.70678 10.2073 5.20453 11.9367 5.86243 12.8859C6.18179 13.3559 6.56675 13.8728 7.0739 13.8542C7.55323 13.8354 7.74101 13.544 8.32334 13.544C8.90549 13.544 9.07467 13.8542 9.582 13.8448C10.1079 13.8354 10.4369 13.3748 10.7563 12.9049C11.1228 12.3692 11.2726 11.8523 11.282 11.8241C11.2726 11.8147 10.2677 11.4292 10.2583 10.2731C10.2489 9.30508 11.0474 8.84455 11.085 8.81617C10.6341 8.14924 9.92956 8.07406 9.6852 8.05526" fill="black"/>
<path d="M15.9606 6.74414C17.3287 6.74414 18.2815 7.68719 18.2815 9.06013C18.2815 10.438 17.3091 11.3859 15.9264 11.3859H14.4118V13.7949H13.3174V6.74414H15.9606ZM14.4118 10.4673H15.6674C16.6204 10.4673 17.1625 9.95431 17.1625 9.06502C17.1625 8.17592 16.6202 7.66764 15.6723 7.66764H14.4118V10.4673Z" fill="black"/>
<path d="M18.5527 12.3341C18.5527 11.43 19.2418 10.9121 20.5123 10.8339L21.8757 10.7508V10.3597C21.8757 9.78818 21.4995 9.47535 20.83 9.47535C20.2777 9.47535 19.8768 9.75867 19.7941 10.1935H18.8067C18.8362 9.27982 19.6962 8.61523 20.8593 8.61523C22.1103 8.61523 22.9264 9.27005 22.9264 10.2866V13.7953H21.915V12.9498H21.8905C21.6021 13.502 20.9667 13.8488 20.2777 13.8488C19.2613 13.8488 18.5527 13.2431 18.5527 12.3341ZM21.8757 11.8797V11.4838L20.6589 11.562C19.9746 11.606 19.6181 11.86 19.6181 12.3046C19.6181 12.7347 19.9894 13.0134 20.5709 13.0134C21.3136 13.0134 21.8757 12.5392 21.8757 11.8797Z" fill="black"/>
<path d="M23.8559 15.6812V14.8361C23.9244 14.8457 24.0903 14.8555 24.1783 14.8555C24.662 14.8555 24.9356 14.6506 25.1018 14.1226L25.1995 13.81L23.3477 8.67969H24.4909L25.7809 12.8425H25.8054L27.0952 8.67969H28.2093L26.289 14.0688C25.8492 15.3051 25.346 15.7107 24.2809 15.7107C24.1978 15.7107 23.9291 15.701 23.8559 15.6812Z" fill="black"/>
</g>
<g clip-path="url(#clip1_136_34)">
<path opacity="0.07" d="M66.0564 0.708984H39.4986C38.0877 0.708984 37.0088 1.7879 37.0088 3.19878V18.1376C37.0088 19.5484 38.1707 20.6274 39.4986 20.6274H66.0564C67.4673 20.6274 68.5462 19.5484 68.5462 18.1376V3.19878C68.5462 1.7879 67.3843 0.708984 66.0564 0.708984Z" fill="black"/>
<path d="M66.0566 1.53906C66.9695 1.53906 67.7164 2.286 67.7164 3.19893V18.1377C67.7164 19.0506 66.9695 19.7976 66.0566 19.7976H39.4987C38.5858 19.7976 37.8389 19.0506 37.8389 18.1377V3.19893C37.8389 2.286 38.5858 1.53906 39.4987 1.53906H66.0566Z" fill="white"/>
<path d="M52.0246 10.6492V13.3051H51.1797V6.74834H53.4131C53.6807 6.74381 53.9466 6.79222 54.1954 6.89078C54.4443 6.98935 54.6712 7.13613 54.8631 7.32268C55.0449 7.49232 55.1915 7.69612 55.2945 7.92245C55.3974 8.14877 55.4548 8.39316 55.4633 8.64167C55.4718 8.89017 55.4312 9.13791 55.3439 9.37073C55.2565 9.60354 55.1242 9.81686 54.9544 9.9985L54.8631 10.0948C54.473 10.4658 53.9518 10.6675 53.4131 10.6542L52.0246 10.6492ZM52.0246 7.55175V9.86571H53.4339C53.7468 9.87567 54.0489 9.75366 54.268 9.5304C54.4247 9.36704 54.53 9.1612 54.5706 8.93849C54.6113 8.71579 54.5856 8.48604 54.4967 8.27783C54.4078 8.06962 54.2597 7.89215 54.0707 7.76748C53.8817 7.64281 53.6603 7.57644 53.4339 7.57665L52.0246 7.55175ZM57.4061 8.67055C57.9456 8.64565 58.4735 8.82658 58.8818 9.17932C59.2511 9.53621 59.4479 10.0342 59.4213 10.5479V13.3151H58.6171V12.6793H58.5764C58.4321 12.9178 58.2282 13.1145 57.9847 13.25C57.7412 13.3855 57.4665 13.4551 57.1878 13.452C56.7329 13.4667 56.2893 13.3087 55.9462 13.0096C55.7836 12.877 55.6534 12.7092 55.5652 12.5188C55.4771 12.3284 55.4334 12.1205 55.4374 11.9108C55.4279 11.6988 55.469 11.4876 55.5575 11.2947C55.646 11.1018 55.7793 10.9329 55.9462 10.8019C56.3557 10.5074 56.8514 10.3571 57.3555 10.3745C57.7846 10.3579 58.2104 10.4517 58.5922 10.6492V10.4766C58.595 10.3338 58.5653 10.1923 58.5053 10.0628C58.4453 9.93322 58.3567 9.819 58.2461 9.72876C58.0239 9.52679 57.7329 9.41751 57.4327 9.42333C57.2147 9.42128 56.9997 9.47484 56.8082 9.57897C56.6166 9.6831 56.4548 9.83434 56.338 10.0184L55.5951 9.55032C55.7968 9.26132 56.0691 9.02876 56.3861 8.87476C56.7031 8.72077 57.0543 8.65047 57.4061 8.67055ZM56.338 11.9307C56.336 12.0382 56.3604 12.1445 56.4092 12.2403C56.458 12.3361 56.5296 12.4185 56.6177 12.4801C56.8027 12.6262 57.0326 12.7034 57.2692 12.6984C57.6252 12.6976 57.9664 12.5573 58.2203 12.3066C58.4735 12.0693 58.6171 11.7381 58.6171 11.3912C58.2975 11.164 57.9093 11.0544 57.5182 11.0808C57.2145 11.0688 56.9149 11.1543 56.6633 11.3248C56.5636 11.3915 56.4819 11.4816 56.4251 11.5872C56.3684 11.6928 56.3385 11.8108 56.338 11.9307ZM64.0451 8.81828L61.2315 15.2838H60.3617L61.4248 13.0196L59.579 8.81828H60.4944L61.8324 12.0427L63.1346 8.81828H64.0451Z" fill="#5F6368"/>
<path d="M48.6167 10.0742C48.6167 9.81855 48.5968 9.56289 48.5561 9.31055H44.9951V10.7607H47.0296C46.9882 10.9911 46.9007 11.2109 46.7723 11.4067C46.6439 11.6025 46.4774 11.7704 46.2826 11.9004V12.8417H47.4978C47.8673 12.4841 48.1578 12.0532 48.3505 11.5765C48.5432 11.0998 48.6339 10.5881 48.6167 10.0742Z" fill="#4285F4"/>
<path d="M45.0011 13.7572C45.9195 13.7825 46.8129 13.4568 47.4997 12.8467L46.2828 11.9004C45.9904 12.0878 45.6591 12.2062 45.3141 12.2464C44.9691 12.2865 44.6195 12.2475 44.2918 12.1323C43.9642 12.017 43.6671 11.8286 43.4232 11.5813C43.1794 11.334 42.9951 11.0343 42.8845 10.7051H41.6377V11.6763C41.9497 12.3013 42.4296 12.8271 43.0237 13.1947C43.6178 13.5623 44.3025 13.7571 45.0011 13.7572Z" fill="#34A853"/>
<path d="M42.8845 10.7102C42.7266 10.2431 42.7266 9.73709 42.8845 9.27001V8.29883H41.6377C41.3719 8.82298 41.2334 9.4024 41.2334 9.9901C41.2334 10.5778 41.3719 11.1572 41.6377 11.6814L42.8845 10.7102Z" fill="#FBBC04"/>
<path d="M45.0011 7.71399C45.5382 7.70418 46.0574 7.90707 46.4455 8.27844L47.5246 7.20516C46.8365 6.55937 45.9239 6.20713 44.9804 6.22318C44.2859 6.22667 43.606 6.4224 43.016 6.78869C42.426 7.15498 41.9489 7.67751 41.6377 8.29836L42.8845 9.27037C43.0302 8.8222 43.3129 8.43101 43.6925 8.15183C44.0722 7.87264 44.5299 7.71952 45.0011 7.71399Z" fill="#EA4335"/>
</g>
<g clip-path="url(#clip2_136_34)">
<path opacity="0.07" d="M102.162 0.708984H75.6041C74.1932 0.708984 73.1143 1.7879 73.1143 3.19878V18.1376C73.1143 19.5484 74.2762 20.6274 75.6041 20.6274H102.162C103.573 20.6274 104.652 19.5484 104.652 18.1376V3.19878C104.652 1.7879 103.49 0.708984 102.162 0.708984Z" fill="black"/>
<path d="M102.162 1.53906C103.075 1.53906 103.822 2.286 103.822 3.19893V18.1377C103.822 19.0506 103.075 19.7976 102.162 19.7976H75.6042C74.6913 19.7976 73.9443 19.0506 73.9443 18.1377V3.19893C73.9443 2.286 74.6913 1.53906 75.6042 1.53906H102.162Z" fill="white"/>
<path d="M85.5637 16.479C88.7724 16.479 91.3735 13.8778 91.3735 10.6692C91.3735 7.46051 88.7724 4.85938 85.5637 4.85938C82.355 4.85938 79.7539 7.46051 79.7539 10.6692C79.7539 13.8778 82.355 16.479 85.5637 16.479Z" fill="#EB001B"/>
<path d="M92.2033 16.479C95.412 16.479 98.0131 13.8778 98.0131 10.6692C98.0131 7.46051 95.412 4.85938 92.2033 4.85938C88.9947 4.85938 86.3936 7.46051 86.3936 10.6692C86.3936 13.8778 88.9947 16.479 92.2033 16.479Z" fill="#00A2E5"/>
<path d="M91.3734 10.6683C91.3734 8.6764 90.3774 6.93346 88.8835 5.9375C87.3895 7.01646 86.3936 8.7594 86.3936 10.6683C86.3936 12.5773 87.3895 14.4032 88.8835 15.3992C90.3774 14.4032 91.3734 12.6603 91.3734 10.6683Z" fill="#7375CF"/>
</g>
<g clip-path="url(#clip3_136_34)">
<path opacity="0.07" d="M138.266 0.708984H111.709C110.298 0.708984 109.219 1.7879 109.219 3.19878V18.1376C109.219 19.5484 110.381 20.6274 111.709 20.6274H138.266C139.677 20.6274 140.756 19.5484 140.756 18.1376V3.19878C140.756 1.7879 139.594 0.708984 138.266 0.708984Z" fill="black"/>
<path d="M138.267 1.53906C139.179 1.53906 139.926 2.286 139.926 3.19893V18.1377C139.926 19.0506 139.179 19.7976 138.267 19.7976H111.709C110.796 19.7976 110.049 19.0506 110.049 18.1377V3.19893C110.049 2.286 110.796 1.53906 111.709 1.53906H138.267Z" fill="white"/>
<path d="M121.668 16.479C124.877 16.479 127.478 13.8778 127.478 10.6692C127.478 7.46051 124.877 4.85938 121.668 4.85938C118.46 4.85938 115.858 7.46051 115.858 10.6692C115.858 13.8778 118.46 16.479 121.668 16.479Z" fill="#EB001B"/>
<path d="M128.308 16.479C131.516 16.479 134.118 13.8778 134.118 10.6692C134.118 7.46051 131.516 4.85938 128.308 4.85938C125.099 4.85938 122.498 7.46051 122.498 10.6692C122.498 13.8778 125.099 16.479 128.308 16.479Z" fill="#F79E1B"/>
<path d="M127.478 10.6683C127.478 8.6764 126.482 6.93346 124.988 5.9375C123.494 7.01646 122.498 8.7594 122.498 10.6683C122.498 12.5773 123.494 14.4032 124.988 15.3992C126.482 14.4032 127.478 12.6603 127.478 10.6683Z" fill="#FF5F00"/>
</g>
<g clip-path="url(#clip4_136_34)">
<path opacity="0.07" d="M174.371 0.708984H147.813C146.402 0.708984 145.323 1.7879 145.323 3.19878V18.1376C145.323 19.5484 146.485 20.6274 147.813 20.6274H174.371C175.782 20.6274 176.861 19.5484 176.861 18.1376V3.19878C176.861 1.7879 175.699 0.708984 174.371 0.708984Z" fill="black"/>
<path d="M174.371 1.53906C175.284 1.53906 176.031 2.286 176.031 3.19893V18.1377C176.031 19.0506 175.284 19.7976 174.371 19.7976H147.813C146.9 19.7976 146.153 19.0506 146.153 18.1377V3.19893C146.153 2.286 146.9 1.53906 147.813 1.53906H174.371Z" fill="white"/>
<path d="M168.81 9.09051H168.561C168.229 9.92045 167.98 10.3354 167.731 11.5803H169.308C169.059 10.3354 169.059 9.75446 168.81 9.09051ZM171.217 13.9871H169.806C169.723 13.9871 169.723 13.9871 169.64 13.9041L169.474 13.1572L169.391 12.9912H167.399C167.316 12.9912 167.233 12.9912 167.233 13.1572L166.984 13.9041C166.984 13.9871 166.901 13.9871 166.901 13.9871H165.158L165.324 13.5721L167.731 7.92861C167.731 7.51364 167.98 7.34766 168.395 7.34766H169.64C169.723 7.34766 169.806 7.34766 169.806 7.51364L170.968 12.9082C171.051 13.2402 171.134 13.4892 171.134 13.8211C171.217 13.9041 171.217 13.9041 171.217 13.9871ZM160.096 13.7381L160.428 12.2443C160.511 12.2443 160.594 12.3272 160.594 12.3272C161.175 12.5762 161.756 12.7422 162.337 12.6592C162.503 12.6592 162.752 12.5762 162.918 12.4932C163.333 12.3272 163.333 11.9123 163.001 11.5803C162.835 11.4143 162.586 11.3313 162.337 11.1653C162.005 10.9994 161.673 10.8334 161.424 10.5844C160.428 9.75446 160.76 8.59255 161.341 8.0116C161.839 7.67963 162.088 7.34766 162.752 7.34766C163.747 7.34766 164.826 7.34766 165.324 7.51364H165.407C165.324 8.0116 165.241 8.42657 165.075 8.92453C164.66 8.75854 164.245 8.59255 163.83 8.59255C163.581 8.59255 163.333 8.59255 163.084 8.67555C162.918 8.67555 162.835 8.75854 162.752 8.84153C162.586 9.00752 162.586 9.2565 162.752 9.42249L163.167 9.75446C163.499 9.92044 163.83 10.0864 164.079 10.2524C164.494 10.5014 164.909 10.9164 164.992 11.4143C165.158 12.1613 164.909 12.8252 164.245 13.3232C163.83 13.6551 163.664 13.8211 163.084 13.8211C161.922 13.8211 161.009 13.9041 160.262 13.6551C160.179 13.8211 160.179 13.8211 160.096 13.7381ZM157.191 13.9871C157.274 13.4062 157.274 13.4062 157.357 13.1572C157.772 11.3313 158.187 9.42249 158.519 7.59664C158.602 7.43065 158.602 7.34766 158.768 7.34766H160.262C160.096 8.34357 159.93 9.09051 159.681 10.0034C159.432 11.2483 159.183 12.4932 158.851 13.7381C158.851 13.9041 158.768 13.9041 158.602 13.9041M149.473 7.51364C149.473 7.43065 149.639 7.34766 149.722 7.34766H152.543C152.958 7.34766 153.29 7.59664 153.373 8.0116L154.12 11.6633C154.12 11.7463 154.12 11.7463 154.203 11.8293C154.203 11.7463 154.286 11.7463 154.286 11.7463L156.029 7.51364C155.946 7.43065 156.029 7.34766 156.112 7.34766H157.855C157.855 7.43065 157.855 7.43065 157.772 7.51364L155.199 13.5721C155.116 13.7381 155.116 13.8211 155.033 13.9041C154.95 13.9871 154.784 13.9041 154.618 13.9041H153.373C153.29 13.9041 153.207 13.9041 153.207 13.7381L151.879 8.59255C151.713 8.42657 151.464 8.17759 151.133 8.09459C150.635 7.84562 149.722 7.67963 149.556 7.67963L149.473 7.51364Z" fill="#142688"/>
</g>
<defs>
<clipPath id="clip0_136_34">
<rect width="31.5374" height="19.9184" fill="white" transform="translate(0.904297 0.708984)"/>
</clipPath>
<clipPath id="clip1_136_34">
<rect width="31.5374" height="19.9184" fill="white" transform="translate(37.0088 0.708984)"/>
</clipPath>
<clipPath id="clip2_136_34">
<rect width="31.5374" height="19.9184" fill="white" transform="translate(73.1143 0.708984)"/>
</clipPath>
<clipPath id="clip3_136_34">
<rect width="31.5374" height="19.9184" fill="white" transform="translate(109.219 0.708984)"/>
</clipPath>
<clipPath id="clip4_136_34">
<rect width="31.5374" height="19.9184" fill="white" transform="translate(145.323 0.708984)"/>
</clipPath>
</defs>
</svg>
