<svg width="25" height="25" viewBox="0 0 25 25" fill="none" xmlns="http://www.w3.org/2000/svg">
<g clip-path="url(#clip0_136_677)">
<path d="M25 12.571C25 5.63346 19.4062 -0.00195312 12.5 -0.00195312C5.59375 -0.00195312 0 5.62305 0 12.571C0 18.8522 4.57292 24.0605 10.5521 24.998V16.2064H7.375V12.571H10.5417V9.80013C10.5417 6.6543 12.4167 4.9043 15.2708 4.9043C16.6354 4.9043 18.0625 5.1543 18.0625 5.1543V8.24805H16.5C14.9375 8.24805 14.4583 9.2168 14.4583 10.2168V12.571H17.9167L17.3646 16.2168H14.4479V24.998C20.4375 24.0605 25 18.8522 25 12.571Z" fill="white"/>
</g>
<defs>
<clipPath id="clip0_136_677">
<rect width="25" height="25" fill="white" transform="translate(0 -0.00195312)"/>
</clipPath>
</defs>
</svg>
