<svg width="25" height="25" viewBox="0 0 25 25" fill="none" xmlns="http://www.w3.org/2000/svg">
<g clip-path="url(#clip0_136_662)">
<path d="M17.6874 0.000374462C18.6633 -0.0333202 19.6358 0.132185 20.5456 0.486792C21.4554 0.841398 22.2834 1.37767 22.9791 2.06287C23.6497 2.75851 24.174 3.58151 24.5211 4.48324C24.8682 5.38498 25.031 6.34715 24.9999 7.31287V17.6879C24.9999 19.8545 24.2916 21.7191 22.9374 23.0316C21.5008 24.3579 19.5998 25.0652 17.6457 25.0004H7.35406C5.4163 25.0604 3.53323 24.3528 2.11447 23.0316C1.41119 22.3272 0.860495 21.4855 0.496693 20.559C0.132892 19.6325 -0.036221 18.6409 -0.000110091 17.6462V7.31287C-0.000110091 2.91704 2.91656 0.000374462 7.31239 0.000374462H17.6874ZM17.7395 2.32329H7.35406C5.84364 2.32329 4.54156 2.77121 3.67697 3.62537C3.21499 4.11744 2.85696 4.69761 2.62429 5.33119C2.39162 5.96477 2.28908 6.63876 2.32281 7.31287V17.6462C2.32281 19.2087 2.77072 20.4587 3.67697 21.3754C4.68772 22.2693 6.00597 22.7361 7.35406 22.6775H17.6457C18.9938 22.7361 20.3121 22.2693 21.3228 21.3754C21.8081 20.8953 22.1883 20.3196 22.4393 19.6848C22.6904 19.05 22.8068 18.37 22.7811 17.6879V7.31287C22.8147 5.9719 22.3297 4.66967 21.427 3.67746C20.9349 3.21547 20.3547 2.85744 19.7212 2.62477C19.0876 2.3921 18.4136 2.28956 17.7395 2.32329ZM12.4999 6.00038C16.0311 6.00038 18.9582 8.91704 18.9582 12.4587C18.9582 14.1716 18.2778 15.8143 17.0666 17.0254C15.8554 18.2366 14.2127 18.917 12.4999 18.917C10.787 18.917 9.14433 18.2366 7.93316 17.0254C6.72199 15.8143 6.04156 14.1716 6.04156 12.4587C6.04156 10.7459 6.72199 9.10315 7.93316 7.89198C9.14433 6.6808 10.787 6.00038 12.4999 6.00038ZM12.4999 8.31288C11.4048 8.31835 10.3561 8.7558 9.58176 9.53016C8.8074 10.3045 8.36995 11.3532 8.36447 12.4483C8.36995 13.5434 8.8074 14.5921 9.58176 15.3664C10.3561 16.1408 11.4048 16.5782 12.4999 16.5837C13.595 16.5782 14.6437 16.1408 15.418 15.3664C16.1924 14.5921 16.6298 13.5434 16.6353 12.4483C16.6298 11.3532 16.1924 10.3045 15.418 9.53016C14.6437 8.7558 13.595 8.31835 12.4999 8.31288ZM19.2082 4.38579C19.595 4.38579 19.9659 4.53944 20.2394 4.81293C20.5129 5.08642 20.6666 5.45735 20.6666 5.84412C20.6666 6.2309 20.5129 6.60183 20.2394 6.87532C19.9659 7.14881 19.595 7.30246 19.2082 7.30246C18.8215 7.30246 18.4505 7.14881 18.177 6.87532C17.9035 6.60183 17.7499 6.2309 17.7499 5.84412C17.7499 5.45735 17.9035 5.08642 18.177 4.81293C18.4505 4.53944 18.8215 4.38579 19.2082 4.38579Z" fill="white"/>
</g>
<defs>
<clipPath id="clip0_136_662">
<rect width="25" height="25" fill="white"/>
</clipPath>
</defs>
</svg>
