<svg width="24" height="25" viewBox="0 0 24 25" fill="none" xmlns="http://www.w3.org/2000/svg">
<g clip-path="url(#clip0_136_674)">
<path d="M22.23 -0.00195312H1.77C0.8 -0.00195312 0 0.80013 0 1.78971V23.2064C0 24.196 0.8 24.998 1.77 24.998H22.23C23.21 24.998 24 24.196 24 23.2064V1.78971C24 0.80013 23.2 -0.00195312 22.23 -0.00195312ZM7.27 20.9355H3.65V9.62305H7.27V20.9355ZM5.47 8.08138H5.44C4.22 8.08138 3.44 7.2168 3.44 6.13346C3.44 5.0293 4.24 4.18555 5.49 4.18555C6.73 4.18555 7.49 5.01888 7.51 6.13346C7.51 7.2168 6.73 8.08138 5.46 8.08138H5.47ZM20.34 20.9355H16.71V14.8939C16.71 13.3835 16.19 12.3418 14.88 12.3418C13.88 12.3418 13.28 13.0397 13.01 13.7168C12.91 13.9564 12.9 14.2897 12.9 14.6335V20.9355H9.28C9.28 20.9355 9.33 10.7064 9.28 9.64388H12.91V11.248C13.2377 10.6556 13.7146 10.1678 14.2892 9.83735C14.8638 9.50688 15.5141 9.34632 16.17 9.37305C18.56 9.37305 20.35 10.998 20.35 14.4668V20.9355H20.34Z" fill="white"/>
</g>
<defs>
<clipPath id="clip0_136_674">
<rect width="24" height="25" fill="white" transform="translate(0 -0.00195312)"/>
</clipPath>
</defs>
</svg>
