<svg width="25" height="25" viewBox="0 0 25 25" fill="none" xmlns="http://www.w3.org/2000/svg">
<g clip-path="url(#clip0_136_671)">
<path d="M12.4999 2.54909e-05C9.62554 -0.00577696 6.83703 0.979182 4.60402 2.789C2.37101 4.59882 0.829942 7.12291 0.240389 9.93613C-0.349164 12.7493 0.0488204 15.6798 1.36731 18.2339C2.68579 20.788 4.84422 22.8096 7.47903 23.9584C7.44778 23.0729 7.47903 22.0313 7.69778 21.0834L9.31236 14.2709C9.31236 14.2709 8.90611 13.4688 8.90611 12.2917C8.90611 10.4375 9.97903 9.06253 11.3228 9.06253C12.4582 9.06253 13.0103 9.90628 13.0103 10.9375C13.0103 12.0729 12.2811 13.7813 11.9061 15.3646C11.5936 16.6875 12.5624 17.7709 13.8749 17.7709C16.2394 17.7709 17.8332 14.7292 17.8332 11.125C17.8332 8.38544 15.9894 6.33336 12.6353 6.33336C11.833 6.30219 11.0329 6.43462 10.2834 6.72258C9.53403 7.01054 8.85105 7.448 8.2761 8.00833C7.70115 8.56867 7.24624 9.24016 6.93909 9.98191C6.63193 10.7237 6.47894 11.5202 6.48944 12.3229C6.48944 13.4167 6.80194 14.1771 7.30194 14.7709C7.54153 15.0521 7.57278 15.1563 7.48944 15.4688L7.22903 16.4792C7.14569 16.7917 6.89569 16.8959 6.60403 16.7917C4.86444 16.0729 4.04153 14.1667 4.04153 12.0104C4.04153 8.46878 7.04153 4.19794 12.979 4.19794C17.7499 4.19794 20.8957 7.65628 20.8957 11.3646C20.8957 16.2604 18.1665 19.9271 14.1457 19.9271C12.7915 19.9271 11.5311 19.1979 11.0936 18.3646L10.2186 21.8021C9.94778 22.7709 9.42694 23.7396 8.95819 24.4896C10.823 25.0428 12.7912 25.1528 14.706 24.8108C16.6209 24.4689 18.4294 23.6844 19.9874 22.5199C21.5454 21.3554 22.8099 19.8431 23.6802 18.1035C24.5504 16.364 25.0023 14.4451 24.9999 12.5C24.9999 9.18482 23.6829 6.0054 21.3387 3.66119C18.9945 1.31699 15.8151 2.54909e-05 12.4999 2.54909e-05Z" fill="white"/>
</g>
<defs>
<clipPath id="clip0_136_671">
<rect width="25" height="25" fill="white"/>
</clipPath>
</defs>
</svg>
