<svg width="69" height="29" viewBox="0 0 69 29" fill="none" xmlns="http://www.w3.org/2000/svg">
<g clip-path="url(#clip0_136_250)">
<path fill-rule="evenodd" clip-rule="evenodd" d="M68.9959 14.7674C68.9959 9.98368 66.6194 6.20898 62.0771 6.20898C57.5157 6.20898 54.7559 9.98368 54.7559 14.7301C54.7559 20.3547 58.014 23.1951 62.6904 23.1951C64.9711 23.1951 66.696 22.6906 67.9993 21.9805V18.2432C66.696 18.8785 65.2011 19.2709 63.3037 19.2709C61.4447 19.2709 59.7964 18.6356 59.5856 16.4306H68.9576C68.9576 16.1876 68.9959 15.2159 68.9959 14.7674ZM59.5281 12.9922C59.5281 10.8806 60.8505 10.0024 62.0579 10.0024C63.2271 10.0024 64.4728 10.8806 64.4728 12.9922H59.5281Z" fill="white"/>
<path fill-rule="evenodd" clip-rule="evenodd" d="M47.3578 6.20898C45.4796 6.20898 44.2721 7.06857 43.6013 7.66654L43.3522 6.50797H39.1357V28.2965L43.9271 27.3062L43.9463 22.0178C44.6363 22.5037 45.652 23.1951 47.3386 23.1951C50.7693 23.1951 53.8933 20.5042 53.8933 14.5806C53.8741 9.16147 50.7118 6.20898 47.3578 6.20898ZM46.2078 19.0841C45.0771 19.0841 44.4063 18.6916 43.9463 18.2058L43.9271 11.2731C44.4254 10.7311 45.1154 10.3574 46.2078 10.3574C47.9519 10.3574 49.1593 12.2634 49.1593 14.7114C49.1593 17.2154 47.9711 19.0841 46.2078 19.0841Z" fill="white"/>
<path fill-rule="evenodd" clip-rule="evenodd" d="M32.543 5.10714L37.3535 4.09807V0.304688L32.543 1.29508V5.10714Z" fill="white"/>
<path d="M37.3535 6.52734H32.543V22.8781H37.3535V6.52734Z" fill="white"/>
<path fill-rule="evenodd" clip-rule="evenodd" d="M27.3878 7.90995L27.0812 6.52714H22.9414V22.8779H27.7328V11.7968C28.8636 10.3579 30.7801 10.6195 31.3743 10.8251V6.52714C30.761 6.3029 28.5186 5.89179 27.3878 7.90995Z" fill="white"/>
<path fill-rule="evenodd" clip-rule="evenodd" d="M17.8049 2.47266L13.1285 3.44436L13.1094 18.4123C13.1094 21.1779 15.2368 23.2148 18.0733 23.2148C19.6448 23.2148 20.7948 22.9345 21.4272 22.5981V18.8047C20.8139 19.0477 17.7858 19.9073 17.7858 17.1416V10.5079H21.4272V6.52765H17.7858L17.8049 2.47266Z" fill="white"/>
<path fill-rule="evenodd" clip-rule="evenodd" d="M4.8489 11.2731C4.8489 10.5443 5.4622 10.264 6.47797 10.264C7.93456 10.264 9.77446 10.6938 11.231 11.4599V7.06857C9.6403 6.45191 8.06872 6.20898 6.47797 6.20898C2.58736 6.20898 0 8.18976 0 11.4973C0 16.6548 7.28293 15.8326 7.28293 18.0563C7.28293 18.9159 6.51631 19.1962 5.44303 19.1962C3.85229 19.1962 1.82073 18.5608 0.210821 17.7012V22.1487C1.99322 22.8961 3.79479 23.2138 5.44303 23.2138C9.42948 23.2138 12.1702 21.2891 12.1702 17.9442C12.151 12.3756 4.8489 13.366 4.8489 11.2731Z" fill="white"/>
</g>
<defs>
<clipPath id="clip0_136_250">
<rect width="69" height="28" fill="white" transform="translate(0 0.304688)"/>
</clipPath>
</defs>
</svg>
