<svg width="24" height="23" viewBox="0 0 24 23" fill="none" xmlns="http://www.w3.org/2000/svg">
<g clip-path="url(#clip0_136_668)">
<path d="M22.5391 9.42803C20.5608 9.43276 18.6311 8.81584 17.0224 7.6644V15.6948C17.0218 17.1822 16.5672 18.634 15.7194 19.8559C14.8714 21.0779 13.6706 22.0119 12.2775 22.533C10.8845 23.0542 9.36545 23.1376 7.92366 22.7722C6.48186 22.4068 5.186 21.61 4.20934 20.4881C3.23267 19.3664 2.62177 17.9732 2.45831 16.4949C2.29485 15.0165 2.58663 13.5235 3.29462 12.2155C4.00262 10.9075 5.09309 9.8468 6.42022 9.17523C7.74735 8.50366 9.24789 8.25325 10.7212 8.45748V12.4965C10.047 12.2845 9.32305 12.2908 8.65272 12.5148C7.98237 12.7387 7.39994 13.1687 6.98857 13.7434C6.57721 14.318 6.35795 15.008 6.36211 15.7147C6.36627 16.4214 6.59364 17.1088 7.01176 17.6785C7.42986 18.2483 8.01732 18.6714 8.69025 18.8874C9.36318 19.1034 10.0872 19.1013 10.7588 18.8813C11.4304 18.6614 12.0154 18.2347 12.4301 17.6625C12.8449 17.0903 13.0681 16.4016 13.0681 15.6948V-0.00390625H17.0224C17.0196 0.330011 17.0476 0.663472 17.106 0.992262C17.2434 1.72624 17.5291 2.42447 17.9456 3.04425C18.3622 3.66402 18.9008 4.19232 19.5285 4.59681C20.4214 5.18727 21.4685 5.50199 22.5391 5.50177V9.42803Z" fill="white"/>
</g>
<defs>
<clipPath id="clip0_136_668">
<rect width="23" height="23" fill="white" transform="translate(0.976562 -0.00390625)"/>
</clipPath>
</defs>
</svg>
