<svg width="28" height="27" viewBox="0 0 28 27" fill="none" xmlns="http://www.w3.org/2000/svg">
<g clip-path="url(#clip0_136_665)">
<path d="M13.8663 3.93508C14.53 3.93508 22.3488 3.95758 24.3738 4.49758C24.9486 4.65601 25.4716 4.96292 25.8903 5.38749C26.3089 5.81206 26.6085 6.33933 26.7588 6.91633C27.3213 9.05383 27.3213 13.4976 27.3213 13.4976V13.5426C27.3213 14.0263 27.2875 18.0763 26.7588 20.0676C26.6102 20.6466 26.3114 21.1762 25.8927 21.6029C25.4739 22.0296 24.95 22.3382 24.3738 22.4976C22.3938 23.0376 14.8675 23.0601 13.9113 23.0713H13.72C12.7638 23.0713 5.23754 23.0376 3.26879 22.5088C2.69123 22.3485 2.16638 22.0382 1.74751 21.6094C1.32863 21.1807 1.03065 20.6487 0.883789 20.0676C0.411289 18.2563 0.332539 14.7801 0.321289 13.7676V13.2051C0.332539 12.1926 0.411289 8.71633 0.883789 6.90508C1.03585 6.33016 1.33616 5.80522 1.75469 5.38274C2.17323 4.96026 2.69532 4.65503 3.26879 4.49758C5.29379 3.94633 13.1125 3.92383 13.7763 3.92383L13.8663 3.93508ZM11.0538 9.44758V17.5251L18.1188 13.4976L11.0538 9.45883V9.44758Z" fill="white"/>
</g>
<defs>
<clipPath id="clip0_136_665">
<rect width="27" height="27" fill="white" transform="translate(0.321289 -0.00195312)"/>
</clipPath>
</defs>
</svg>
