<svg xmlns="http://www.w3.org/2000/svg" version="1.1" xmlns:xlink="http://www.w3.org/1999/xlink" width="295" height="191"><svg width="295" height="191" viewBox="0 0 295 191" fill="none" xmlns="http://www.w3.org/2000/svg">
<path d="M96.5275 46.8286C72.9028 46.8286 53.2846 64.818 49.4302 88.4332L49.1099 90.7347H48.4337C22.0155 90.7347 0.647353 113.177 0.594922 140.863L0.66017 143.431C1.9283 169.817 22.6242 190.833 48.0659 190.991H169.214V190.885C198.134 189.028 221.062 163.797 221.062 132.998C221.062 100.944 196.361 75.0035 165.827 75.004L164.214 75.0336C156.167 75.2751 148.595 77.3125 141.756 80.7932C135.347 61.026 117.526 46.8293 96.5275 46.8286ZM210.13 132.998C210.13 158.449 191.27 178.51 168.514 179.97L167.132 180.059H48.1371C28.3825 179.936 11.5389 162.941 11.527 140.887L11.5803 138.823C12.5981 118.346 28.1173 102.701 46.5771 101.714L48.4337 101.667H58.8259L59.9648 92.0159C62.2901 72.301 78.1571 57.7606 96.5275 57.7606C112.367 57.7613 126.271 68.4957 131.352 84.1684L135.303 96.346L146.715 90.5389C152.528 87.5801 158.962 85.9422 165.827 85.9419C189.826 85.9416 210.13 106.473 210.13 132.998Z" fill="#873CFF"></path>
<path d="M205.68 0.259033C248.976 14.8207 282.615 50.3582 294.53 94.8095L283.972 97.6449C273.011 56.749 242.037 24.0285 202.192 10.6276L205.68 0.259033Z" fill="#873CFF"></path>
<path d="M198.467 37.3738C226.336 48.5532 248.07 71.7615 257.249 100.593L246.833 103.915C238.651 78.2107 219.257 57.4886 194.397 47.5169L198.467 37.3738Z" fill="#873CFF"></path>
</svg><style>@media (prefers-color-scheme: light) { :root { filter: none; } }
@media (prefers-color-scheme: dark) { :root { filter: none; } }
</style></svg>