<svg width="28" height="60" viewBox="0 0 28 60" fill="none" xmlns="http://www.w3.org/2000/svg">
<path d="M18.3564 7.83301V7.84082L18.6895 7.85254C19.4688 7.88099 20.2317 8.08955 20.917 8.46191C21.251 8.64348 21.5624 8.86151 21.8457 9.11133C21.6378 9.30491 21.417 9.53077 21.1973 9.79004C20.3397 10.802 19.4784 12.3489 19.499 14.4346V14.4355C19.5362 17.8067 21.6152 19.6903 22.8301 20.4844C22.5626 21.1377 22.1238 22.0713 21.4736 23.0186L21.4727 23.0195C20.8982 23.8582 20.397 24.5645 19.8506 25.0762C19.3285 25.5649 18.8596 25.7855 18.3525 25.7949H18.3516C17.7512 25.8061 17.3769 25.6453 16.7432 25.3701C16.0748 25.0798 15.2155 24.7148 13.9199 24.7148C12.6363 24.7149 11.7725 25.0516 11.0801 25.3457C10.4069 25.6317 10.0265 25.8049 9.43848 25.8281C9.035 25.843 8.56552 25.65 7.97656 25.0977C7.38654 24.5443 6.8332 23.7794 6.2666 22.9521L6.26172 22.9453L6.06445 22.6514C5.08455 21.144 4.22135 19.0772 3.8418 16.9297C3.43528 14.6296 3.60891 12.3931 4.59863 10.667L4.60449 10.6562C5.05799 9.84642 5.71419 9.16815 6.50879 8.68848C7.30269 8.20926 8.20779 7.94435 9.13477 7.91992C9.73524 7.90958 10.3765 8.11378 11.1328 8.4082C11.4758 8.54172 11.8913 8.71274 12.2578 8.83691C12.6234 8.96077 13.0838 9.09082 13.5605 9.09082C14.0627 9.09075 14.567 8.92931 14.9453 8.79395C15.2988 8.66744 15.8418 8.44602 16.1982 8.3125C16.9688 8.02386 17.6827 7.82157 18.3564 7.83301ZM17.3672 1.72363C17.1888 2.39964 16.8612 3.03388 16.3994 3.57617L16.3838 3.59473L16.3691 3.61328C16.0116 4.06718 15.5546 4.43264 15.0332 4.68164C14.9308 4.73056 14.8257 4.77317 14.7197 4.8125C14.7488 4.69813 14.782 4.58467 14.8203 4.47266C15.0115 3.91407 15.3122 3.39885 15.7061 2.95898L15.7178 2.94727C16.177 2.42049 16.741 2.00539 17.3672 1.72363Z" stroke="#111827" stroke-width="2.5"/>
<path d="M21.4688 46.2454H5.71875V54.4121H21.4688V46.2454ZM21.4688 43.9121C21.4688 39.4018 17.943 35.7454 13.5938 35.7454C9.24451 35.7454 5.71875 39.4018 5.71875 43.9121H21.4688ZM7.27385 35.7082C9.00599 34.2713 11.2031 33.4121 13.5938 33.4121C15.9844 33.4121 18.1815 34.2713 19.9137 35.7082L21.5487 34.0126L23.1397 35.6625L21.5046 37.3581C22.8902 39.1544 23.7188 41.4329 23.7188 43.9121V55.5788C23.7188 56.2231 23.2151 56.7454 22.5938 56.7454H4.59375C3.97243 56.7454 3.46875 56.2231 3.46875 55.5788V43.9121C3.46875 41.4329 4.29728 39.1544 5.68286 37.3581L4.04781 35.6625L5.6388 34.0126L7.27385 35.7082ZM10.2188 41.5788C9.59743 41.5788 9.09375 41.0564 9.09375 40.4121C9.09375 39.7678 9.59743 39.2454 10.2188 39.2454C10.8401 39.2454 11.3438 39.7678 11.3438 40.4121C11.3438 41.0564 10.8401 41.5788 10.2188 41.5788ZM16.9688 41.5788C16.3474 41.5788 15.8438 41.0564 15.8438 40.4121C15.8438 39.7678 16.3474 39.2454 16.9688 39.2454C17.5901 39.2454 18.0938 39.7678 18.0938 40.4121C18.0938 41.0564 17.5901 41.5788 16.9688 41.5788Z" fill="#111827"/>
</svg>
