<svg width="28" height="28" viewBox="0 0 28 28" fill="none" xmlns="http://www.w3.org/2000/svg">
<g clip-path="url(#clip0_136_99)">
<path d="M19.7998 24.4629V22.2129C19.7998 21.0194 19.3257 19.8748 18.4818 19.0309C17.6379 18.187 16.4933 17.7129 15.2998 17.7129H6.2998C5.10633 17.7129 3.96174 18.187 3.11782 19.0309C2.27391 19.8748 1.7998 21.0194 1.7998 22.2129V24.4629" stroke="#111827" stroke-width="2.25" stroke-linecap="round" stroke-linejoin="round"/>
<path d="M10.7998 13.2129C13.2851 13.2129 15.2998 11.1982 15.2998 8.71289C15.2998 6.22761 13.2851 4.21289 10.7998 4.21289C8.31452 4.21289 6.2998 6.22761 6.2998 8.71289C6.2998 11.1982 8.31452 13.2129 10.7998 13.2129Z" stroke="#111827" stroke-width="2.25" stroke-linecap="round" stroke-linejoin="round"/>
<path d="M26.5498 24.4631V22.2131C26.5491 21.2161 26.2172 20.2475 25.6063 19.4595C24.9955 18.6715 24.1402 18.1086 23.1748 17.8594" stroke="#111827" stroke-width="2.25" stroke-linecap="round" stroke-linejoin="round"/>
<path d="M18.6748 4.35938C19.6428 4.60721 20.5007 5.17016 21.1134 5.95947C21.7261 6.74878 22.0586 7.71956 22.0586 8.71875C22.0586 9.71794 21.7261 10.6887 21.1134 11.478C20.5007 12.2673 19.6428 12.8303 18.6748 13.0781" stroke="#111827" stroke-width="2.25" stroke-linecap="round" stroke-linejoin="round"/>
</g>
<defs>
<clipPath id="clip0_136_99">
<rect width="27" height="27" fill="white" transform="translate(0.674805 0.837891)"/>
</clipPath>
</defs>
</svg>
