<svg width="22" height="16" viewBox="0 0 22 16" fill="none" xmlns="http://www.w3.org/2000/svg">
<path d="M1.35742 11.8419H3.85742M3.85742 11.8419C3.85742 13.4988 5.20057 14.8419 6.85742 14.8419C8.51427 14.8419 9.85742 13.4988 9.85742 11.8419C9.85742 10.185 8.51427 8.84192 6.85742 8.84192C5.20057 8.84192 3.85742 10.185 3.85742 11.8419ZM17.8574 3.84192H20.3574M17.8574 3.84192C17.8574 5.49877 16.5143 6.84192 14.8574 6.84192C13.2005 6.84192 11.8574 5.49877 11.8574 3.84192C11.8574 2.18507 13.2005 0.841919 14.8574 0.841919C16.5143 0.841919 17.8574 2.18507 17.8574 3.84192ZM12.8574 11.8419H20.3574M1.35742 3.84192H8.85742" stroke="#873CFF" stroke-width="1.5" stroke-linecap="round"/>
</svg>
