<?xml version="1.0" standalone="no"?>
<!DOCTYPE svg PUBLIC "-//W3C//DTD SVG 20010904//EN"
 "http://www.w3.org/TR/2001/REC-SVG-20010904/DTD/svg10.dtd">
<svg version="1.0" xmlns="http://www.w3.org/2000/svg"
 width="568.000000pt" height="568.000000pt" viewBox="0 0 568.000000 568.000000"
 preserveAspectRatio="xMidYMid meet">
<metadata>
Created by potrace 1.14, written by Peter Selinger 2001-2017
</metadata>
<g transform="translate(0.000000,568.000000) scale(0.100000,-0.100000)"
fill="#000000" stroke="none">
<path d="M2748 5497 c-30 -12 -51 -50 -43 -77 7 -21 35 -35 35 -17 0 27 17 39
38 28 26 -14 40 -55 37 -112 -6 -120 -36 -191 -158 -373 -48 -70 -87 -130 -87
-131 0 -2 -22 -36 -48 -77 -56 -84 -153 -256 -175 -309 -20 -48 -55 -201 -62
-269 -11 -116 -3 -294 19 -390 3 -14 8 -36 10 -50 4 -28 34 -146 42 -170 3 -8
6 -17 6 -20 6 -29 84 -234 111 -290 47 -98 27 -104 -59 -19 -120 117 -237 209
-424 334 -141 94 -290 182 -290 170 0 -2 -17 2 -38 9 -65 23 -131 30 -232 25
-66 -4 -184 -56 -255 -114 -74 -60 -80 -67 -147 -160 -30 -42 -79 -87 -113
-104 -44 -23 -126 -41 -159 -36 -12 2 -39 6 -61 9 -51 7 -95 15 -117 22 -9 3
-26 7 -38 9 -31 6 -90 26 -137 47 -24 10 -46 18 -49 18 -10 0 -195 91 -234
114 -42 26 -73 27 -78 3 -4 -22 26 -52 153 -153 55 -43 102 -81 105 -84 3 -3
32 -25 64 -50 54 -41 93 -84 151 -164 42 -58 160 -214 214 -281 239 -299 389
-458 469 -499 171 -86 488 -121 741 -82 14 3 46 8 71 11 25 4 54 9 65 11 11 2
35 7 53 10 20 4 32 2 32 -5 0 -6 -4 -11 -10 -11 -5 0 -10 -4 -10 -10 0 -32
-281 -317 -349 -354 -29 -16 -101 -98 -136 -157 -30 -48 -104 -199 -105 -214
0 -3 -2 -10 -5 -17 -2 -7 -10 -33 -16 -58 -16 -56 -13 -47 -27 -97 -7 -23 -22
-70 -33 -105 -11 -35 -22 -67 -23 -73 -2 -10 -52 -119 -82 -179 -8 -16 -14
-34 -14 -39 0 -6 -7 -18 -16 -28 -8 -9 -17 -23 -18 -31 -2 -7 -7 -22 -11 -33
-5 -11 -21 -51 -36 -90 -15 -38 -43 -109 -63 -157 -20 -48 -38 -102 -40 -120
-2 -18 -5 -37 -7 -43 -6 -19 12 -113 26 -143 35 -68 136 -133 200 -126 40 4
79 45 70 74 -6 19 -12 21 -51 17 -26 -2 -51 1 -61 8 -16 12 -15 15 7 49 14 20
29 36 34 36 5 0 16 8 25 18 9 10 43 34 76 53 33 19 69 39 80 46 43 26 345 173
365 177 3 1 37 14 75 29 64 24 186 64 224 72 9 2 31 8 49 14 18 5 35 10 37 10
24 2 68 18 106 37 44 22 129 105 129 126 0 5 11 37 24 71 13 34 31 89 41 122
9 33 21 71 26 85 4 14 11 36 13 50 3 14 10 45 17 70 17 69 17 74 24 163 8 100
22 165 38 182 77 83 111 115 122 115 20 0 44 -39 114 -185 178 -368 258 -514
317 -577 16 -17 67 -48 114 -70 110 -50 150 -72 223 -122 33 -23 67 -45 76
-51 9 -5 18 -12 21 -15 3 -3 32 -27 65 -55 33 -27 105 -95 161 -150 125 -124
143 -140 210 -177 149 -81 296 -101 436 -58 71 22 115 52 120 85 2 16 -5 20
-42 26 -88 13 -166 64 -196 130 -27 55 -53 126 -57 154 -3 17 -14 64 -26 105
-11 41 -22 86 -23 100 -2 14 -7 31 -11 38 -5 6 -6 12 -3 12 2 0 0 15 -5 33 -5
17 -12 48 -15 67 -3 19 -8 44 -11 55 -3 11 -7 29 -9 40 -2 18 -13 74 -28 155
-17 87 -31 130 -67 200 -62 124 -143 213 -365 405 -32 27 -93 76 -171 135 -96
72 -130 120 -119 164 6 26 9 28 44 22 20 -4 186 -9 367 -11 368 -5 409 0 543
66 66 32 175 132 223 205 45 66 82 127 107 174 91 170 186 285 272 327 57 27
81 35 150 47 147 27 287 127 368 265 24 42 27 56 27 144 0 92 -2 100 -24 118
-38 31 -52 25 -46 -21 3 -24 -1 -54 -9 -73 -27 -64 -120 -136 -199 -153 -41
-9 -155 -6 -189 5 -18 5 -44 12 -58 15 -14 2 -36 7 -50 10 -14 3 -37 8 -53 10
-15 3 -35 7 -45 10 -9 3 -34 7 -56 11 -21 3 -41 7 -45 9 -3 2 -31 7 -61 11
-30 4 -57 8 -60 10 -3 2 -24 6 -46 9 -39 6 -64 11 -114 21 -14 2 -41 7 -60 10
-19 3 -46 7 -60 10 -38 7 -84 14 -126 20 -22 3 -66 9 -99 14 -108 16 -200 6
-310 -32 -55 -20 -113 -43 -130 -51 -16 -9 -33 -16 -37 -16 -11 0 -223 -132
-226 -141 -2 -5 -8 -9 -13 -9 -6 0 -15 -5 -22 -10 -47 -39 -142 -108 -145
-105 -2 2 3 16 12 32 13 23 35 73 41 93 1 3 9 23 19 45 22 50 102 288 112 335
4 19 8 37 9 40 2 7 17 81 21 105 12 63 18 153 17 245 -1 97 -4 112 -38 195
-66 163 -102 220 -174 281 -102 88 -191 177 -191 191 0 7 -4 13 -9 13 -11 0
-67 125 -76 170 -4 19 -9 78 -10 131 -4 123 -19 180 -73 287 -53 103 -206 181
-294 149z m211 -2238 c50 -16 97 -53 127 -100 54 -86 107 -120 209 -133 93
-12 110 -17 152 -41 52 -31 92 -106 86 -162 -7 -66 -10 -76 -48 -158 -77 -166
-95 -239 -89 -349 9 -165 8 -174 -19 -207 -24 -27 -115 -84 -159 -98 -52 -17
-140 -6 -223 27 -88 36 -168 40 -245 12 -109 -40 -136 -46 -192 -43 -71 3
-150 39 -202 90 -43 43 -51 66 -41 125 13 79 12 162 -5 233 -16 65 -53 166
-71 190 -19 26 -51 130 -51 169 0 46 23 109 50 139 28 32 83 54 162 67 151 24
184 41 220 110 61 117 205 172 339 129z"/>
<path d="M2789 2995 c-39 -21 -52 -64 -45 -137 9 -85 3 -91 -64 -66 -112 42
-168 33 -193 -30 -28 -69 7 -107 153 -167 37 -15 36 -41 -6 -93 -21 -26 -41
-49 -44 -52 -15 -13 -27 -59 -23 -83 6 -33 56 -77 86 -77 33 0 72 24 109 66
72 82 77 82 123 -1 56 -101 105 -124 171 -80 43 28 42 75 -4 167 -52 104 -47
117 46 133 52 9 118 44 129 68 17 38 8 89 -22 114 -31 27 -56 28 -139 7 -89
-23 -93 -24 -111 -10 -15 11 -19 39 -24 177 -1 9 -11 28 -24 43 -28 33 -81 42
-118 21z"/>
<path d="M1705 4284 c-8 -9 -15 -19 -15 -24 0 -36 58 -251 87 -320 3 -8 7 -19
9 -25 1 -5 21 -57 43 -115 23 -58 41 -109 41 -115 0 -5 44 -38 98 -72 53 -34
106 -69 117 -77 177 -135 275 -204 275 -196 0 6 -4 10 -9 10 -5 0 -13 10 -17
22 -3 12 -10 26 -15 32 -5 6 -30 43 -54 81 -61 95 -68 105 -82 121 -7 7 -13
15 -13 19 0 4 -20 33 -45 65 -25 32 -45 63 -45 68 0 6 -4 12 -8 14 -10 4 -191
253 -199 274 -12 31 24 1 67 -58 25 -33 50 -66 55 -72 6 -6 22 -27 35 -46 13
-19 31 -41 38 -49 8 -8 24 -30 38 -50 30 -46 140 -203 152 -216 4 -5 19 -29
32 -52 13 -24 27 -43 32 -43 4 0 8 -5 8 -11 0 -5 12 -27 26 -47 22 -32 25 -33
21 -12 -9 45 -14 63 -51 184 -20 65 -36 127 -36 137 0 10 -4 20 -8 23 -5 3
-14 30 -21 60 -13 61 -46 98 -222 257 -46 42 -98 90 -115 105 -67 63 -144 121
-178 134 -19 7 -29 6 -41 -6z"/>
<path d="M4160 4213 c-23 -9 -91 -58 -131 -95 -32 -30 -122 -109 -203 -178
-16 -14 -48 -42 -70 -62 -23 -21 -45 -38 -50 -38 -5 0 -24 -15 -41 -34 -28
-31 -49 -79 -61 -140 -5 -26 -39 -132 -55 -171 -7 -17 -13 -34 -15 -40 -1 -5
-9 -26 -17 -46 -9 -20 -12 -41 -7 -48 6 -11 9 -9 14 5 3 11 16 31 28 46 13 14
32 39 43 54 102 139 336 424 381 464 l28 25 -19 -30 c-20 -33 -138 -188 -167
-220 -58 -66 -225 -286 -253 -333 -8 -15 10 -6 100 48 69 42 227 118 262 126
42 10 49 18 110 133 201 381 211 401 213 441 3 53 2 58 -20 80 -20 20 -41 24
-70 13z"/>
<path d="M3686 2230 l-38 -5 53 -28 c30 -15 61 -32 69 -37 68 -41 242 -149
270 -167 81 -53 230 -157 230 -161 0 -2 -15 5 -32 17 -18 12 -129 78 -246 148
-117 71 -225 136 -240 145 -15 10 -38 23 -52 30 -14 6 -32 17 -40 23 -8 7 -23
15 -33 18 -31 11 -1 -30 46 -63 23 -16 47 -33 52 -38 6 -5 29 -22 51 -38 22
-16 46 -35 54 -41 8 -7 35 -29 60 -49 109 -87 246 -230 320 -333 6 -9 104 -38
150 -45 19 -3 46 -8 60 -11 14 -3 42 -8 62 -9 20 -2 41 -7 47 -10 15 -10 184
-11 199 -2 34 21 -16 90 -139 191 -83 68 -135 111 -144 117 -5 5 -35 27 -65
51 -30 24 -71 54 -90 67 -19 13 -37 27 -40 30 -3 3 -48 37 -100 75 -52 38
-101 76 -108 83 -37 34 -74 43 -195 45 -67 1 -139 0 -161 -3z"/>
<path d="M1969 2226 c-12 -12 -102 -19 -265 -21 -193 -2 -176 2 -246 -57 -12
-10 -27 -18 -34 -18 -7 0 -19 -6 -26 -13 -7 -7 -28 -20 -45 -28 -18 -7 -33
-17 -33 -21 0 -5 -7 -8 -15 -8 -9 0 -28 -8 -43 -19 -15 -10 -67 -44 -116 -76
-141 -92 -254 -213 -242 -260 4 -14 14 -26 24 -26 55 -5 151 2 220 16 11 2 36
6 56 9 78 13 191 38 208 47 10 5 18 8 18 5 0 -3 15 0 33 5 17 5 64 12 102 16
54 4 74 11 88 27 45 53 109 114 156 151 99 76 269 255 243 255 -5 0 -27 -7
-48 -16 -50 -20 -457 -217 -464 -224 -3 -3 -41 -21 -85 -40 -44 -18 -84 -37
-89 -42 -6 -4 -17 -8 -25 -8 -19 0 3 15 79 56 30 16 57 31 60 34 9 9 363 191
380 196 17 4 120 55 120 59 0 6 -5 7 -11 1z"/>
<path d="M2815 1727 c-52 -29 -72 -77 -79 -192 -3 -44 -10 -105 -16 -135 -25
-120 -30 -176 -19 -213 8 -28 27 -129 43 -237 25 -160 68 -348 98 -427 14 -40
26 -55 44 -59 52 -13 80 40 99 187 4 30 9 63 10 74 3 23 14 99 20 135 6 36 14
99 20 150 3 25 10 72 15 105 19 121 23 161 22 196 0 33 -144 345 -165 360 -5
3 -7 8 -6 10 2 2 -2 13 -9 24 -8 15 -12 16 -13 5 -1 -8 0 -19 1 -25 2 -11 6
-80 16 -305 8 -192 8 -499 0 -507 -3 -4 -6 14 -7 38 -2 85 -18 419 -24 484 -5
67 -18 262 -19 302 -1 39 -6 44 -31 30z"/>
</g>
</svg>
