<svg width="356" height="301" viewBox="0 0 356 301" fill="none" xmlns="http://www.w3.org/2000/svg">
<rect x="0.891602" y="0.321289" width="354.465" height="300.059" fill="#F6F6F6"/>
<path d="M202.718 162.115L189.701 148.802L154.201 178.385M157.16 128.094H198.576C201.844 128.094 204.493 130.743 204.493 134.01V175.427C204.493 178.695 201.844 181.344 198.576 181.344H157.16C153.892 181.344 151.243 178.695 151.243 175.427V134.01C151.243 130.743 153.892 128.094 157.16 128.094ZM171.951 144.365C171.951 146.815 169.965 148.802 167.514 148.802C165.063 148.802 163.076 146.815 163.076 144.365C163.076 141.914 165.063 139.927 167.514 139.927C169.965 139.927 171.951 141.914 171.951 144.365Z" stroke="#D4D4D4" stroke-width="4" stroke-linecap="round" stroke-linejoin="round"/>
</svg>
