<svg width="1342" height="192" viewBox="0 0 1342 192" fill="none" xmlns="http://www.w3.org/2000/svg">
<path d="M399.047 57.5078C411.26 57.5078 421.735 59.7188 430.474 64.1407C439.212 68.5625 445.898 74.9322 450.53 83.2495C455.163 91.5668 457.479 101.463 457.479 112.939C457.479 124.31 455.163 134.154 450.53 142.471C445.898 150.683 439.212 157 430.474 161.422C421.735 165.739 411.26 167.897 399.047 167.897H366.356V57.5078H399.047ZM399.047 158.737C414.418 158.737 426.104 154.737 434.106 146.735C442.213 138.628 446.266 127.363 446.266 112.939C446.266 98.4102 442.213 87.0923 434.106 78.9855C426.104 70.7735 414.418 66.6675 399.047 66.6675H377.411V158.737H399.047Z" fill="white"/>
<path d="M538.187 167.897L510.866 121.783H490.494V167.897H479.439V57.5078H512.603C524.921 57.5078 534.239 60.4558 540.556 66.3516C546.978 72.2474 550.189 79.9857 550.189 89.5665C550.189 97.568 547.873 104.411 543.24 110.097C538.713 115.677 531.975 119.309 523.026 120.993L551.452 167.897H538.187ZM490.494 112.781H512.761C521.394 112.781 527.869 110.676 532.186 106.464C536.607 102.253 538.818 96.6204 538.818 89.5665C538.818 82.302 536.713 76.722 532.501 72.8265C528.29 68.8257 521.657 66.8254 512.603 66.8254H490.494V112.781Z" fill="white"/>
<path d="M637.665 141.681H587.445L577.812 167.897H566.126L606.396 58.9292H618.872L658.985 167.897H647.299L637.665 141.681ZM634.349 132.522L612.555 72.8265L590.762 132.522H634.349Z" fill="white"/>
<path d="M765.165 89.7244C762.006 82.4599 757.163 76.7746 750.636 72.6686C744.213 68.4573 736.633 66.3516 727.894 66.3516C719.682 66.3516 712.313 68.2467 705.785 72.0369C699.257 75.8271 694.099 81.2491 690.308 88.3031C686.518 95.2517 684.623 103.359 684.623 112.623C684.623 121.888 686.518 130.048 690.308 137.102C694.099 144.156 699.257 149.578 705.785 153.368C712.313 157.158 719.682 159.053 727.894 159.053C735.58 159.053 742.476 157.421 748.582 154.157C754.794 150.788 759.742 146.051 763.427 139.944C767.218 133.733 769.376 126.521 769.902 118.309H723.473V109.307H781.589V117.361C781.062 127.047 778.43 135.838 773.692 143.734C768.955 151.525 762.585 157.684 754.584 162.212C746.687 166.739 737.791 169.002 727.894 169.002C717.682 169.002 708.417 166.634 700.1 161.896C691.782 157.053 685.202 150.367 680.359 141.839C675.621 133.206 673.253 123.468 673.253 112.623C673.253 101.779 675.621 92.0933 680.359 83.5653C685.202 74.9322 691.782 68.2467 700.1 63.509C708.417 58.666 717.682 56.2445 727.894 56.2445C739.686 56.2445 750.004 59.1924 758.848 65.0882C767.691 70.9841 774.114 79.1961 778.114 89.7244H765.165Z" fill="white"/>
<path d="M795.996 112.308C795.996 101.358 798.364 91.6195 803.102 83.0916C807.84 74.4584 814.42 67.7729 822.843 63.0352C831.371 58.1922 841.004 55.7707 851.743 55.7707C864.903 55.7707 876.168 59.245 885.539 66.1937C894.909 73.1423 901.173 82.6178 904.332 94.62H874.642C872.431 89.9876 869.272 86.4606 865.166 84.0391C861.166 81.6176 856.586 80.4069 851.427 80.4069C843.11 80.4069 836.372 83.3021 831.213 89.0927C826.054 94.8833 823.474 102.622 823.474 112.308C823.474 121.994 826.054 129.732 831.213 135.522C836.372 141.313 843.11 144.208 851.427 144.208C856.586 144.208 861.166 142.998 865.166 140.576C869.272 138.155 872.431 134.628 874.642 129.995H904.332C901.173 141.997 894.909 151.473 885.539 158.421C876.168 165.265 864.903 168.687 851.743 168.687C841.004 168.687 831.371 166.318 822.843 161.58C814.42 156.737 807.84 150.051 803.102 141.524C798.364 132.996 795.996 123.257 795.996 112.308Z" fill="white"/>
<path d="M991.461 148.314H950.085L943.452 167.897H915.184L955.297 57.0341H986.566L1026.68 167.897H998.094L991.461 148.314ZM984.513 127.468L970.773 86.8818L957.192 127.468H984.513Z" fill="white"/>
<path d="M1097 167.897L1073.95 126.047H1067.47V167.897H1040.47V57.0341H1085.79C1094.53 57.0341 1101.95 58.5607 1108.06 61.6139C1114.27 64.6671 1118.9 68.8784 1121.95 74.2478C1125.01 79.512 1126.53 85.4078 1126.53 91.9353C1126.53 99.3051 1124.43 105.885 1120.22 111.676C1116.11 117.466 1110.01 121.572 1101.9 123.994L1127.48 167.897H1097ZM1067.47 106.938H1084.21C1089.16 106.938 1092.84 105.727 1095.27 103.306C1097.79 100.884 1099.06 97.4627 1099.06 93.0408C1099.06 88.8295 1097.79 85.5131 1095.27 83.0916C1092.84 80.6701 1089.16 79.4593 1084.21 79.4593H1067.47V106.938Z" fill="white"/>
<path d="M1186.6 57.0341C1198.29 57.0341 1208.5 59.3503 1217.24 63.9827C1225.98 68.6152 1232.71 75.1427 1237.45 83.5653C1242.29 91.8827 1244.72 101.516 1244.72 112.465C1244.72 123.31 1242.29 132.943 1237.45 141.366C1232.71 149.788 1225.92 156.316 1217.08 160.948C1208.34 165.581 1198.18 167.897 1186.6 167.897H1145.07V57.0341H1186.6ZM1184.86 144.524C1195.08 144.524 1203.02 141.734 1208.71 136.154C1214.39 130.574 1217.24 122.678 1217.24 112.465C1217.24 102.253 1214.39 94.3042 1208.71 88.6189C1203.02 82.9336 1195.08 80.091 1184.86 80.091H1172.07V144.524H1184.86Z" fill="white"/>
<path d="M1301.5 169.002C1293.39 169.002 1286.13 167.686 1279.71 165.054C1273.28 162.422 1268.13 158.527 1264.23 153.368C1260.44 148.209 1258.44 141.997 1258.23 134.733H1286.97C1287.39 138.839 1288.81 141.997 1291.23 144.208C1293.66 146.314 1296.81 147.367 1300.71 147.367C1304.71 147.367 1307.87 146.472 1310.19 144.682C1312.5 142.787 1313.66 140.208 1313.66 136.944C1313.66 134.206 1312.71 131.943 1310.82 130.153C1309.03 128.363 1306.76 126.889 1304.03 125.731C1301.39 124.573 1297.6 123.257 1292.66 121.783C1285.5 119.572 1279.65 117.361 1275.13 115.15C1270.6 112.939 1266.7 109.675 1263.44 105.359C1260.18 101.042 1258.54 95.4097 1258.54 88.461C1258.54 78.1433 1262.28 70.0891 1269.76 64.2986C1277.23 58.4028 1286.97 55.4548 1298.97 55.4548C1311.19 55.4548 1321.03 58.4028 1328.51 64.2986C1335.98 70.0891 1339.98 78.1959 1340.51 88.6189H1311.29C1311.08 85.0393 1309.76 82.2493 1307.34 80.2489C1304.92 78.1433 1301.82 77.0905 1298.03 77.0905C1294.76 77.0905 1292.13 77.9854 1290.13 79.7752C1288.13 81.4597 1287.13 83.9338 1287.13 87.1976C1287.13 90.7772 1288.81 93.5672 1292.18 95.5676C1295.55 97.568 1300.82 99.7263 1307.97 102.042C1315.13 104.464 1320.92 106.78 1325.35 108.991C1329.87 111.202 1333.77 114.413 1337.03 118.625C1340.3 122.836 1341.93 128.258 1341.93 134.891C1341.93 141.208 1340.3 146.946 1337.03 152.104C1333.87 157.263 1329.24 161.369 1323.14 164.423C1317.03 167.476 1309.82 169.002 1301.5 169.002Z" fill="white"/>
<path d="M96.7892 47.2959C73.1645 47.2959 53.5464 65.2853 49.6919 88.9005L49.3716 91.202H48.6954C22.2772 91.202 0.909072 113.644 0.856641 141.33L0.921889 143.899C2.19002 170.284 22.8859 191.3 48.3276 191.459H169.476V191.352C198.395 189.496 221.324 164.264 221.324 133.465C221.323 101.411 196.623 75.4708 166.089 75.4712L164.475 75.5009C156.429 75.7424 148.857 77.7798 142.018 81.2605C135.609 61.4933 117.787 47.2966 96.7892 47.2959ZM210.392 133.465C210.392 158.916 191.532 178.977 168.776 180.438L167.394 180.527H48.3988C28.6442 180.404 11.8006 163.409 11.7887 141.354L11.8421 139.29C12.8598 118.813 28.379 103.169 46.8388 102.181L48.6954 102.134H59.0877L60.2265 92.4832C62.5519 72.7683 78.4188 58.2279 96.7892 58.2279C112.628 58.2286 126.533 68.963 131.614 84.6356L135.564 96.8133L146.977 91.0062C152.79 88.0474 159.224 86.4095 166.089 86.4092C190.088 86.4088 210.391 106.94 210.392 133.465Z" fill="white"/>
<path d="M205.942 0.726318C249.238 15.288 282.877 50.8255 294.792 95.2768L284.234 98.1122C273.272 57.2163 242.299 24.4958 202.454 11.0948L205.942 0.726318Z" fill="white"/>
<path d="M198.728 37.8411C226.598 49.0205 248.332 72.2288 257.511 101.061L247.095 104.382C238.913 78.678 219.519 57.9559 194.659 47.9842L198.728 37.8411Z" fill="white"/>
</svg>
