<svg width="1342" height="192" viewBox="0 0 1342 192" fill="none" xmlns="http://www.w3.org/2000/svg">
<path d="M398.766 57.4959C410.978 57.4959 421.454 59.7068 430.192 64.1287C438.931 68.5506 445.616 74.9202 450.249 83.2375C454.881 91.5549 457.197 101.451 457.197 112.927C457.197 124.298 454.881 134.142 450.249 142.459C445.616 150.671 438.931 156.988 430.192 161.41C421.454 165.727 410.978 167.885 398.766 167.885H366.075V57.4959H398.766ZM398.766 158.725C414.137 158.725 425.823 154.725 433.825 146.723C441.931 138.616 445.985 127.351 445.985 112.927C445.985 98.3983 441.931 87.0804 433.825 78.9736C425.823 70.7615 414.137 66.6555 398.766 66.6555H377.13V158.725H398.766Z" fill="white"/>
<path d="M537.905 167.885L510.585 121.771H490.212V167.885H479.158V57.4959H512.322C524.64 57.4959 533.957 60.4438 540.274 66.3396C546.697 72.2355 549.908 79.9738 549.908 89.5545C549.908 97.556 547.591 104.399 542.959 110.085C538.432 115.665 531.694 119.297 522.745 120.981L551.171 167.885H537.905ZM490.212 112.769H512.48C521.113 112.769 527.588 110.664 531.904 106.452C536.326 102.241 538.537 96.6085 538.537 89.5545C538.537 82.29 536.431 76.71 532.22 72.8145C528.009 68.8138 521.376 66.8134 512.322 66.8134H490.212V112.769Z" fill="white"/>
<path d="M637.384 141.67H587.164L577.531 167.885H565.844L606.115 58.9172H618.591L658.704 167.885H647.018L637.384 141.67ZM634.068 132.51L612.274 72.8145L590.481 132.51H634.068Z" fill="white"/>
<path d="M764.883 89.7124C761.725 82.4479 756.882 76.7626 750.354 72.6566C743.932 68.4453 736.352 66.3396 727.613 66.3396C719.401 66.3396 712.031 68.2347 705.504 72.0249C698.976 75.8151 693.817 81.2372 690.027 88.2911C686.237 95.2398 684.342 103.347 684.342 112.611C684.342 121.876 686.237 130.036 690.027 137.09C693.817 144.144 698.976 149.566 705.504 153.356C712.031 157.146 719.401 159.041 727.613 159.041C735.299 159.041 742.195 157.409 748.301 154.146C754.513 150.776 759.461 146.039 763.146 139.932C766.936 133.721 769.095 126.509 769.621 118.297H723.191V109.295H781.307V117.349C780.781 127.035 778.149 135.826 773.411 143.723C768.673 151.513 762.304 157.673 754.302 162.2C746.406 166.727 737.51 168.99 727.613 168.99C717.401 168.99 708.136 166.622 699.819 161.884C691.501 157.041 684.921 150.355 680.078 141.827C675.34 133.194 672.971 123.456 672.971 112.611C672.971 101.767 675.34 92.0813 680.078 83.5534C684.921 74.9202 691.501 68.2347 699.819 63.497C708.136 58.654 717.401 56.2325 727.613 56.2325C739.405 56.2325 749.723 59.1804 758.566 65.0762C767.41 70.9721 773.832 79.1841 777.833 89.7124H764.883Z" fill="white"/>
<path d="M795.714 112.296C795.714 101.346 798.083 91.6075 802.821 83.0796C807.559 74.4464 814.139 67.761 822.561 63.0232C831.089 58.1802 840.723 55.7587 851.462 55.7587C864.622 55.7587 875.887 59.233 885.257 66.1817C894.628 73.1304 900.892 82.6058 904.05 94.6081H874.361C872.15 89.9756 868.991 86.4487 864.885 84.0272C860.884 81.6057 856.305 80.3949 851.146 80.3949C842.828 80.3949 836.09 83.2902 830.931 89.0807C825.773 94.8713 823.193 102.61 823.193 112.296C823.193 121.982 825.773 129.72 830.931 135.51C836.09 141.301 842.828 144.196 851.146 144.196C856.305 144.196 860.884 142.986 864.885 140.564C868.991 138.143 872.15 134.616 874.361 129.983H904.05C900.892 141.985 894.628 151.461 885.257 158.409C875.887 165.253 864.622 168.675 851.462 168.675C840.723 168.675 831.089 166.306 822.561 161.568C814.139 156.725 807.559 150.04 802.821 141.512C798.083 132.984 795.714 123.245 795.714 112.296Z" fill="white"/>
<path d="M991.18 148.302H949.804L943.171 167.885H914.903L955.016 57.0221H986.284L1026.4 167.885H997.813L991.18 148.302ZM984.231 127.456L970.492 86.8698L956.911 127.456H984.231Z" fill="white"/>
<path d="M1096.72 167.885L1073.66 126.035H1067.19V167.885H1040.18V57.0221H1085.51C1094.25 57.0221 1101.67 58.5487 1107.78 61.6019C1113.99 64.6551 1118.62 68.8664 1121.67 74.2359C1124.73 79.5 1126.25 85.3958 1126.25 91.9234C1126.25 99.2932 1124.15 105.873 1119.94 111.664C1115.83 117.454 1109.72 121.56 1101.62 123.982L1127.2 167.885H1096.72ZM1067.19 106.926H1083.93C1088.88 106.926 1092.56 105.715 1094.98 103.294C1097.51 100.872 1098.77 97.4507 1098.77 93.0288C1098.77 88.8175 1097.51 85.5011 1094.98 83.0796C1092.56 80.6581 1088.88 79.4474 1083.93 79.4474H1067.19V106.926Z" fill="white"/>
<path d="M1186.32 57.0221C1198.01 57.0221 1208.22 59.3383 1216.96 63.9708C1225.69 68.6032 1232.43 75.1308 1237.17 83.5534C1242.01 91.8707 1244.44 101.504 1244.44 112.454C1244.44 123.298 1242.01 132.931 1237.17 141.354C1232.43 149.776 1225.64 156.304 1216.8 160.936C1208.06 165.569 1197.9 167.885 1186.32 167.885H1144.78V57.0221H1186.32ZM1184.58 144.512C1194.79 144.512 1202.74 141.722 1208.43 136.142C1214.11 130.562 1216.96 122.666 1216.96 112.454C1216.96 102.241 1214.11 94.2922 1208.43 88.607C1202.74 82.9217 1194.79 80.079 1184.58 80.079H1171.79V144.512H1184.58Z" fill="white"/>
<path d="M1301.22 168.99C1293.11 168.99 1285.85 167.674 1279.43 165.042C1273 162.41 1267.84 158.515 1263.95 153.356C1260.16 148.197 1258.16 141.985 1257.95 134.721H1286.69C1287.11 138.827 1288.53 141.985 1290.95 144.196C1293.38 146.302 1296.53 147.355 1300.43 147.355C1304.43 147.355 1307.59 146.46 1309.9 144.67C1312.22 142.775 1313.38 140.196 1313.38 136.932C1313.38 134.194 1312.43 131.931 1310.54 130.141C1308.75 128.351 1306.48 126.877 1303.75 125.719C1301.11 124.561 1297.32 123.245 1292.38 121.771C1285.22 119.56 1279.37 117.349 1274.85 115.138C1270.32 112.927 1266.42 109.664 1263.16 105.347C1259.9 101.03 1258.26 95.3977 1258.26 88.449C1258.26 78.1313 1262 70.0772 1269.48 64.2866C1276.95 58.3908 1286.69 55.4429 1298.69 55.4429C1310.9 55.4429 1320.75 58.3908 1328.22 64.2866C1335.7 70.0772 1339.7 78.184 1340.23 88.607H1311.01C1310.8 85.0273 1309.48 82.2374 1307.06 80.237C1304.64 78.1313 1301.53 77.0785 1297.74 77.0785C1294.48 77.0785 1291.85 77.9734 1289.85 79.7632C1287.85 81.4477 1286.85 83.9219 1286.85 87.1856C1286.85 90.7653 1288.53 93.5553 1291.9 95.5556C1295.27 97.556 1300.53 99.7143 1307.69 102.031C1314.85 104.452 1320.64 106.768 1325.07 108.979C1329.59 111.19 1333.49 114.401 1336.75 118.613C1340.02 122.824 1341.65 128.246 1341.65 134.879C1341.65 141.196 1340.02 146.934 1336.75 152.093C1333.59 157.251 1328.96 161.357 1322.85 164.411C1316.75 167.464 1309.54 168.99 1301.22 168.99Z" fill="white"/>
<path d="M96.508 47.2839C72.8832 47.2839 53.2651 65.2733 49.4107 88.8885L49.0904 91.19H48.4142C21.996 91.19 0.627823 113.632 0.575394 141.318L0.64064 143.887C1.90877 170.272 22.6046 191.288 48.0464 191.447H169.194V191.34C198.114 189.484 221.043 164.252 221.043 133.453C221.042 101.399 196.342 75.4588 165.807 75.4593L164.194 75.4889C156.147 75.7304 148.575 77.7679 141.737 81.2486C135.328 61.4813 117.506 47.2846 96.508 47.2839ZM210.111 133.453C210.111 158.904 191.251 178.965 168.494 180.426L167.112 180.515H48.1176C28.3629 180.392 11.5194 163.397 11.5074 141.342L11.5608 139.278C12.5785 118.801 28.0978 103.157 46.5575 102.169L48.4142 102.122H58.8064L59.9453 92.4712C62.2706 72.7564 78.1375 58.216 96.508 58.216C112.347 58.2167 126.252 68.951 131.333 84.6237L135.283 96.8014L146.696 90.9943C152.509 88.0354 158.943 86.3975 165.807 86.3972C189.806 86.3969 210.11 106.928 210.111 133.453Z" fill="#873CFF"/>
<path d="M205.661 0.714355C248.956 15.276 282.595 50.8135 294.511 95.2649L283.953 98.1002C272.991 57.2044 242.018 24.4838 202.173 11.0829L205.661 0.714355Z" fill="#873CFF"/>
<path d="M198.447 37.8291C226.317 49.0085 248.051 72.2168 257.23 101.049L246.814 104.37C238.631 78.666 219.237 57.9439 194.378 47.9722L198.447 37.8291Z" fill="#873CFF"/>
</svg>
