<svg width="1342" height="191" viewBox="0 0 1342 191" fill="none" xmlns="http://www.w3.org/2000/svg">
<path d="M398.766 56.9641C410.978 56.9641 421.454 59.1751 430.192 63.597C438.931 68.0188 445.616 74.3885 450.249 82.7058C454.881 91.0231 457.197 100.92 457.197 112.396C457.197 123.766 454.881 133.61 450.249 141.927C445.616 150.139 438.931 156.456 430.192 160.878C421.454 165.195 410.978 167.353 398.766 167.353H366.075V56.9641H398.766ZM398.766 158.194C414.137 158.194 425.823 154.193 433.825 146.191C441.931 138.085 445.985 126.819 445.985 112.396C445.985 97.8665 441.931 86.5486 433.825 78.4418C425.823 70.2298 414.137 66.1238 398.766 66.1238H377.13V158.194H398.766Z" fill="#111827"/>
<path d="M537.905 167.353L510.585 121.239H490.212V167.353H479.158V56.9641H512.322C524.64 56.9641 533.957 59.9121 540.274 65.8079C546.697 71.7037 549.908 79.442 549.908 89.0228C549.908 97.0243 547.591 103.868 542.959 109.553C538.432 115.133 531.694 118.765 522.745 120.45L551.171 167.353H537.905ZM490.212 112.238H512.48C521.113 112.238 527.588 110.132 531.904 105.921C536.326 101.709 538.537 96.0767 538.537 89.0228C538.537 81.7583 536.431 76.1783 532.22 72.2828C528.009 68.282 521.376 66.2817 512.322 66.2817H490.212V112.238Z" fill="#111827"/>
<path d="M637.384 141.138H587.164L577.531 167.353H565.844L606.115 58.3855H618.591L658.704 167.353H647.018L637.384 141.138ZM634.068 131.978L612.274 72.2828L590.481 131.978H634.068Z" fill="#111827"/>
<path d="M764.883 89.1807C761.725 81.9162 756.882 76.2309 750.354 72.1249C743.932 67.9136 736.352 65.8079 727.613 65.8079C719.401 65.8079 712.031 67.703 705.504 71.4932C698.976 75.2834 693.817 80.7054 690.027 87.7594C686.237 94.708 684.342 102.815 684.342 112.08C684.342 121.345 686.237 129.504 690.027 136.558C693.817 143.612 698.976 149.034 705.504 152.824C712.031 156.614 719.401 158.509 727.613 158.509C735.299 158.509 742.195 156.878 748.301 153.614C754.513 150.245 759.461 145.507 763.146 139.401C766.936 133.189 769.095 125.977 769.621 117.765H723.191V108.763H781.307V116.817C780.781 126.503 778.149 135.295 773.411 143.191C768.673 150.982 762.304 157.141 754.302 161.668C746.406 166.195 737.51 168.459 727.613 168.459C717.401 168.459 708.136 166.09 699.819 161.352C691.501 156.509 684.921 149.824 680.078 141.296C675.34 132.663 672.971 122.924 672.971 112.08C672.971 101.236 675.34 91.5496 680.078 83.0216C684.921 74.3885 691.501 67.703 699.819 62.9653C708.136 58.1223 717.401 55.7008 727.613 55.7008C739.405 55.7008 749.723 58.6487 758.566 64.5445C767.41 70.4403 773.832 78.6524 777.833 89.1807H764.883Z" fill="#111827"/>
<path d="M795.714 111.764C795.714 100.814 798.083 91.0758 802.821 82.5479C807.559 73.9147 814.139 67.2292 822.561 62.4915C831.089 57.6485 840.723 55.227 851.462 55.227C864.622 55.227 875.887 58.7013 885.257 65.65C894.628 72.5986 900.892 82.0741 904.05 94.0763H874.361C872.15 89.4439 868.991 85.9169 864.885 83.4954C860.884 81.0739 856.305 79.8632 851.146 79.8632C842.828 79.8632 836.09 82.7584 830.931 88.549C825.773 94.3396 823.193 102.078 823.193 111.764C823.193 121.45 825.773 129.188 830.931 134.979C836.09 140.769 842.828 143.665 851.146 143.665C856.305 143.665 860.884 142.454 864.885 140.032C868.991 137.611 872.15 134.084 874.361 129.451H904.05C900.892 141.454 894.628 150.929 885.257 157.878C875.887 164.721 864.622 168.143 851.462 168.143C840.723 168.143 831.089 165.774 822.561 161.036C814.139 156.193 807.559 149.508 802.821 140.98C798.083 132.452 795.714 122.713 795.714 111.764Z" fill="#111827"/>
<path d="M991.18 147.771H949.804L943.171 167.353H914.903L955.016 56.4904H986.284L1026.4 167.353H997.813L991.18 147.771ZM984.231 126.925L970.492 86.3381L956.911 126.925H984.231Z" fill="#111827"/>
<path d="M1096.72 167.353L1073.66 125.503H1067.19V167.353H1040.18V56.4904H1085.51C1094.25 56.4904 1101.67 58.017 1107.78 61.0702C1113.99 64.1234 1118.62 68.3347 1121.67 73.7041C1124.73 78.9683 1126.25 84.8641 1126.25 91.3916C1126.25 98.7614 1124.15 105.342 1119.94 111.132C1115.83 116.923 1109.72 121.029 1101.62 123.45L1127.2 167.353H1096.72ZM1067.19 106.394H1083.93C1088.88 106.394 1092.56 105.184 1094.98 102.762C1097.51 100.341 1098.77 96.919 1098.77 92.4971C1098.77 88.2858 1097.51 84.9694 1094.98 82.5479C1092.56 80.1264 1088.88 78.9156 1083.93 78.9156H1067.19V106.394Z" fill="#111827"/>
<path d="M1186.32 56.4904C1198.01 56.4904 1208.22 58.8066 1216.96 63.439C1225.69 68.0715 1232.43 74.599 1237.17 83.0216C1242.01 91.339 1244.44 100.972 1244.44 111.922C1244.44 122.766 1242.01 132.399 1237.17 140.822C1232.43 149.245 1225.64 155.772 1216.8 160.405C1208.06 165.037 1197.9 167.353 1186.32 167.353H1144.78V56.4904H1186.32ZM1184.58 143.98C1194.79 143.98 1202.74 141.19 1208.43 135.61C1214.11 130.03 1216.96 122.134 1216.96 111.922C1216.96 101.709 1214.11 93.7605 1208.43 88.0752C1202.74 82.3899 1194.79 79.5473 1184.58 79.5473H1171.79V143.98H1184.58Z" fill="#111827"/>
<path d="M1301.22 168.459C1293.11 168.459 1285.85 167.143 1279.43 164.511C1273 161.879 1267.84 157.983 1263.95 152.824C1260.16 147.665 1258.16 141.454 1257.95 134.189H1286.69C1287.11 138.295 1288.53 141.454 1290.95 143.665C1293.38 145.77 1296.53 146.823 1300.43 146.823C1304.43 146.823 1307.59 145.928 1309.9 144.138C1312.22 142.243 1313.38 139.664 1313.38 136.4C1313.38 133.663 1312.43 131.399 1310.54 129.609C1308.75 127.819 1306.48 126.346 1303.75 125.187C1301.11 124.029 1297.32 122.713 1292.38 121.239C1285.22 119.028 1279.37 116.817 1274.85 114.607C1270.32 112.396 1266.42 109.132 1263.16 104.815C1259.9 100.499 1258.26 94.866 1258.26 87.9173C1258.26 77.5996 1262 69.5454 1269.48 63.7549C1276.95 57.8591 1286.69 54.9111 1298.69 54.9111C1310.9 54.9111 1320.75 57.8591 1328.22 63.7549C1335.7 69.5454 1339.7 77.6522 1340.23 88.0752H1311.01C1310.8 84.4956 1309.48 81.7056 1307.06 79.7052C1304.64 77.5996 1301.53 76.5468 1297.74 76.5468C1294.48 76.5468 1291.85 77.4417 1289.85 79.2315C1287.85 80.916 1286.85 83.3901 1286.85 86.6539C1286.85 90.2335 1288.53 93.0235 1291.9 95.0239C1295.27 97.0243 1300.53 99.1826 1307.69 101.499C1314.85 103.92 1320.64 106.237 1325.07 108.447C1329.59 110.658 1333.49 113.87 1336.75 118.081C1340.02 122.292 1341.65 127.714 1341.65 134.347C1341.65 140.664 1340.02 146.402 1336.75 151.561C1333.59 156.72 1328.96 160.826 1322.85 163.879C1316.75 166.932 1309.54 168.459 1301.22 168.459Z" fill="#111827"/>
<path d="M96.508 46.7524C72.8832 46.7524 53.2651 64.7418 49.4107 88.357L49.0904 90.6585H48.4142C21.996 90.6585 0.627823 113.101 0.575394 140.787L0.64064 143.355C1.90877 169.741 22.6046 190.757 48.0464 190.915H169.194V190.809C198.114 188.952 221.043 163.72 221.043 132.922C221.042 100.868 196.342 74.9273 165.807 74.9278L164.194 74.9574C156.147 75.1989 148.575 77.2364 141.737 80.7171C135.328 60.9498 117.506 46.7531 96.508 46.7524ZM210.111 132.922C210.111 158.373 191.251 178.434 168.494 179.894L167.112 179.983H48.1176C28.3629 179.86 11.5194 162.865 11.5074 140.811L11.5608 138.746C12.5785 118.27 28.0978 102.625 46.5575 101.638L48.4142 101.591H58.8064L59.9453 91.9398C62.2706 72.2249 78.1375 57.6845 96.508 57.6845C112.347 57.6852 126.252 68.4196 131.333 84.0922L135.283 96.2699L146.696 90.4628C152.509 87.5039 158.943 85.866 165.807 85.8657C189.806 85.8654 210.11 106.397 210.111 132.922Z" fill="#873CFF"/>
<path d="M205.661 0.182617C248.956 14.7443 282.595 50.2818 294.511 94.7331L283.953 97.5685C272.991 56.6726 242.018 23.9521 202.173 10.5511L205.661 0.182617Z" fill="#873CFF"/>
<path d="M198.447 37.2975C226.317 48.4769 248.051 71.6852 257.23 100.517L246.814 103.839C238.631 78.1344 219.237 57.4123 194.378 47.4406L198.447 37.2975Z" fill="#873CFF"/>
</svg>
