<svg width="1342" height="192" viewBox="0 0 1342 192" fill="none" xmlns="http://www.w3.org/2000/svg">
<path d="M399.047 57.4959C411.26 57.4959 421.735 59.7068 430.474 64.1287C439.212 68.5506 445.898 74.9202 450.53 83.2375C455.163 91.5549 457.479 101.451 457.479 112.927C457.479 124.298 455.163 134.142 450.53 142.459C445.898 150.671 439.212 156.988 430.474 161.41C421.735 165.727 411.26 167.885 399.047 167.885H366.356V57.4959H399.047ZM399.047 158.725C414.418 158.725 426.104 154.725 434.106 146.723C442.213 138.616 446.266 127.351 446.266 112.927C446.266 98.3983 442.213 87.0804 434.106 78.9736C426.104 70.7615 414.418 66.6555 399.047 66.6555H377.411V158.725H399.047Z" fill="#111827"/>
<path d="M538.187 167.885L510.866 121.771H490.494V167.885H479.439V57.4959H512.603C524.921 57.4959 534.239 60.4438 540.556 66.3396C546.978 72.2355 550.189 79.9738 550.189 89.5545C550.189 97.556 547.873 104.399 543.24 110.085C538.713 115.665 531.975 119.297 523.026 120.981L551.452 167.885H538.187ZM490.494 112.769H512.761C521.394 112.769 527.869 110.664 532.186 106.452C536.607 102.241 538.818 96.6085 538.818 89.5545C538.818 82.29 536.713 76.71 532.501 72.8145C528.29 68.8138 521.657 66.8134 512.603 66.8134H490.494V112.769Z" fill="#111827"/>
<path d="M637.665 141.67H587.445L577.812 167.885H566.126L606.396 58.9172H618.872L658.985 167.885H647.299L637.665 141.67ZM634.349 132.51L612.555 72.8145L590.762 132.51H634.349Z" fill="#111827"/>
<path d="M765.165 89.7124C762.006 82.4479 757.163 76.7626 750.636 72.6566C744.213 68.4453 736.633 66.3396 727.894 66.3396C719.682 66.3396 712.313 68.2347 705.785 72.0249C699.257 75.8151 694.099 81.2372 690.308 88.2911C686.518 95.2398 684.623 103.347 684.623 112.611C684.623 121.876 686.518 130.036 690.308 137.09C694.099 144.144 699.257 149.566 705.785 153.356C712.313 157.146 719.682 159.041 727.894 159.041C735.58 159.041 742.476 157.409 748.582 154.146C754.794 150.776 759.742 146.039 763.427 139.932C767.218 133.721 769.376 126.509 769.902 118.297H723.473V109.295H781.589V117.349C781.062 127.035 778.43 135.826 773.692 143.723C768.955 151.513 762.585 157.673 754.584 162.2C746.687 166.727 737.791 168.99 727.894 168.99C717.682 168.99 708.417 166.622 700.1 161.884C691.782 157.041 685.202 150.355 680.359 141.827C675.621 133.194 673.253 123.456 673.253 112.611C673.253 101.767 675.621 92.0813 680.359 83.5534C685.202 74.9202 691.782 68.2347 700.1 63.497C708.417 58.654 717.682 56.2325 727.894 56.2325C739.686 56.2325 750.004 59.1804 758.848 65.0762C767.691 70.9721 774.114 79.1841 778.114 89.7124H765.165Z" fill="#111827"/>
<path d="M795.996 112.296C795.996 101.346 798.364 91.6075 803.102 83.0796C807.84 74.4464 814.42 67.761 822.843 63.0232C831.371 58.1802 841.004 55.7587 851.743 55.7587C864.903 55.7587 876.168 59.233 885.539 66.1817C894.909 73.1304 901.173 82.6058 904.332 94.6081H874.642C872.431 89.9756 869.272 86.4487 865.166 84.0272C861.166 81.6057 856.586 80.3949 851.427 80.3949C843.11 80.3949 836.372 83.2902 831.213 89.0807C826.054 94.8713 823.474 102.61 823.474 112.296C823.474 121.982 826.054 129.72 831.213 135.51C836.372 141.301 843.11 144.196 851.427 144.196C856.586 144.196 861.166 142.986 865.166 140.564C869.272 138.143 872.431 134.616 874.642 129.983H904.332C901.173 141.985 894.909 151.461 885.539 158.409C876.168 165.253 864.903 168.675 851.743 168.675C841.004 168.675 831.371 166.306 822.843 161.568C814.42 156.725 807.84 150.04 803.102 141.512C798.364 132.984 795.996 123.245 795.996 112.296Z" fill="#111827"/>
<path d="M991.461 148.302H950.085L943.452 167.885H915.184L955.297 57.0221H986.566L1026.68 167.885H998.094L991.461 148.302ZM984.513 127.456L970.773 86.8698L957.192 127.456H984.513Z" fill="#111827"/>
<path d="M1097 167.885L1073.95 126.035H1067.47V167.885H1040.47V57.0221H1085.79C1094.53 57.0221 1101.95 58.5487 1108.06 61.6019C1114.27 64.6551 1118.9 68.8664 1121.95 74.2359C1125.01 79.5 1126.53 85.3958 1126.53 91.9234C1126.53 99.2932 1124.43 105.873 1120.22 111.664C1116.11 117.454 1110.01 121.56 1101.9 123.982L1127.48 167.885H1097ZM1067.47 106.926H1084.21C1089.16 106.926 1092.84 105.715 1095.27 103.294C1097.79 100.872 1099.06 97.4507 1099.06 93.0288C1099.06 88.8175 1097.79 85.5011 1095.27 83.0796C1092.84 80.6581 1089.16 79.4474 1084.21 79.4474H1067.47V106.926Z" fill="#111827"/>
<path d="M1186.6 57.0221C1198.29 57.0221 1208.5 59.3383 1217.24 63.9708C1225.98 68.6032 1232.71 75.1308 1237.45 83.5534C1242.29 91.8707 1244.72 101.504 1244.72 112.454C1244.72 123.298 1242.29 132.931 1237.45 141.354C1232.71 149.776 1225.92 156.304 1217.08 160.936C1208.34 165.569 1198.18 167.885 1186.6 167.885H1145.07V57.0221H1186.6ZM1184.86 144.512C1195.08 144.512 1203.02 141.722 1208.71 136.142C1214.39 130.562 1217.24 122.666 1217.24 112.454C1217.24 102.241 1214.39 94.2922 1208.71 88.607C1203.02 82.9217 1195.08 80.079 1184.86 80.079H1172.07V144.512H1184.86Z" fill="#111827"/>
<path d="M1301.5 168.99C1293.39 168.99 1286.13 167.674 1279.71 165.042C1273.28 162.41 1268.13 158.515 1264.23 153.356C1260.44 148.197 1258.44 141.985 1258.23 134.721H1286.97C1287.39 138.827 1288.81 141.985 1291.23 144.196C1293.66 146.302 1296.81 147.355 1300.71 147.355C1304.71 147.355 1307.87 146.46 1310.19 144.67C1312.5 142.775 1313.66 140.196 1313.66 136.932C1313.66 134.194 1312.71 131.931 1310.82 130.141C1309.03 128.351 1306.76 126.877 1304.03 125.719C1301.39 124.561 1297.6 123.245 1292.66 121.771C1285.5 119.56 1279.65 117.349 1275.13 115.138C1270.6 112.927 1266.7 109.664 1263.44 105.347C1260.18 101.03 1258.54 95.3977 1258.54 88.449C1258.54 78.1313 1262.28 70.0772 1269.76 64.2866C1277.23 58.3908 1286.97 55.4429 1298.97 55.4429C1311.19 55.4429 1321.03 58.3908 1328.51 64.2866C1335.98 70.0772 1339.98 78.184 1340.51 88.607H1311.29C1311.08 85.0273 1309.76 82.2374 1307.34 80.237C1304.92 78.1313 1301.82 77.0785 1298.03 77.0785C1294.76 77.0785 1292.13 77.9734 1290.13 79.7632C1288.13 81.4477 1287.13 83.9219 1287.13 87.1856C1287.13 90.7653 1288.81 93.5553 1292.18 95.5556C1295.55 97.556 1300.82 99.7143 1307.97 102.031C1315.13 104.452 1320.92 106.768 1325.35 108.979C1329.87 111.19 1333.77 114.401 1337.03 118.613C1340.3 122.824 1341.93 128.246 1341.93 134.879C1341.93 141.196 1340.3 146.934 1337.03 152.093C1333.87 157.251 1329.24 161.357 1323.14 164.411C1317.03 167.464 1309.82 168.99 1301.5 168.99Z" fill="#111827"/>
<path d="M96.7892 47.2839C73.1645 47.2839 53.5464 65.2733 49.6919 88.8885L49.3716 91.19H48.6954C22.2772 91.19 0.909072 113.632 0.856641 141.318L0.921889 143.887C2.19002 170.272 22.8859 191.288 48.3276 191.447H169.476V191.34C198.395 189.484 221.324 164.252 221.324 133.453C221.323 101.399 196.623 75.4588 166.089 75.4593L164.475 75.4889C156.429 75.7304 148.857 77.7679 142.018 81.2486C135.609 61.4813 117.787 47.2846 96.7892 47.2839ZM210.392 133.453C210.392 158.904 191.532 178.965 168.776 180.426L167.394 180.515H48.3988C28.6442 180.392 11.8006 163.397 11.7887 141.342L11.8421 139.278C12.8598 118.801 28.379 103.157 46.8388 102.169L48.6954 102.122H59.0877L60.2265 92.4712C62.5519 72.7564 78.4188 58.216 96.7892 58.216C112.628 58.2167 126.533 68.951 131.614 84.6237L135.564 96.8014L146.977 90.9943C152.79 88.0354 159.224 86.3975 166.089 86.3972C190.088 86.3969 210.391 106.928 210.392 133.453Z" fill="#111827"/>
<path d="M205.942 0.714355C249.238 15.276 282.877 50.8135 294.792 95.2649L284.234 98.1002C273.272 57.2044 242.299 24.4838 202.454 11.0829L205.942 0.714355Z" fill="#111827"/>
<path d="M198.728 37.8291C226.598 49.0085 248.332 72.2168 257.511 101.049L247.095 104.37C238.913 78.666 219.519 57.9439 194.659 47.9722L198.728 37.8291Z" fill="#111827"/>
</svg>
