<svg width="28" height="28" viewBox="0 0 28 28" fill="none" xmlns="http://www.w3.org/2000/svg">
<path d="M1.6543 1.88739H5.62811L9.20454 18.3125C9.32839 18.9199 9.66133 19.4646 10.1454 19.8519C10.6294 20.2391 11.234 20.4443 11.8537 20.4318H22.0532C22.673 20.4443 23.2775 20.2391 23.7616 19.8519C24.2456 19.4646 24.5786 18.9199 24.7024 18.3125L26.8218 7.18581H7.74748M12.9134 25.7303C12.9134 26.4618 12.3204 27.0549 11.5888 27.0549C10.8573 27.0549 10.2642 26.4618 10.2642 25.7303C10.2642 24.9987 10.8573 24.4057 11.5888 24.4057C12.3204 24.4057 12.9134 24.9987 12.9134 25.7303ZM23.5103 25.7303C23.5103 26.4618 22.9172 27.0549 22.1857 27.0549C21.4541 27.0549 20.8611 26.4618 20.8611 25.7303C20.8611 24.9987 21.4541 24.4057 22.1857 24.4057C22.9172 24.4057 23.5103 24.9987 23.5103 25.7303Z" stroke="black" stroke-width="1.8" stroke-linecap="round" stroke-linejoin="round"/>
</svg>
