<svg width="29" height="26" viewBox="0 0 29 26" fill="none" xmlns="http://www.w3.org/2000/svg">
<path d="M22.3462 25.0269V22.3461C22.3462 20.9241 21.7813 19.5604 20.7758 18.5549C19.7703 17.5494 18.4066 16.9845 16.9846 16.9845H6.26154C4.83957 16.9845 3.47584 17.5494 2.47035 18.5549C1.46487 19.5604 0.899994 20.9241 0.899994 22.3461V25.0269M16.9846 6.26145C16.9846 9.22255 14.5842 11.623 11.6231 11.623C8.66198 11.623 6.26154 9.22255 6.26154 6.26145C6.26154 3.30035 8.66198 0.899902 11.6231 0.899902C14.5842 0.899902 16.9846 3.30035 16.9846 6.26145Z" stroke="black" stroke-width="1.8" stroke-linecap="round" stroke-linejoin="round"/>
<path d="M19.2261 10.935L22.2248 13.9336L27.4725 8.68591" stroke="black" stroke-width="2" stroke-linecap="round"/>
</svg>
