<svg width="25" height="25" viewBox="0 0 25 25" fill="none" xmlns="http://www.w3.org/2000/svg">
<path d="M21.875 16.6667H7.29165C7.01538 16.6667 6.75043 16.5569 6.55508 16.3616C6.35973 16.1662 6.24998 15.9013 6.24998 15.625C6.24998 15.3487 6.35973 15.0838 6.55508 14.8884C6.75043 14.6931 7.01538 14.5833 7.29165 14.5833H18.1666C18.8632 14.5834 19.5397 14.3507 20.0889 13.9223C20.6381 13.4939 21.0284 12.8943 21.1979 12.2188L22.9166 5.45834C22.9557 5.3046 22.959 5.14398 22.9266 4.98873C22.8941 4.83348 22.8265 4.6877 22.7291 4.56251C22.6278 4.43411 22.4977 4.33136 22.3493 4.26259C22.2009 4.19383 22.0384 4.16097 21.875 4.16668H7.04165C6.82674 3.55881 6.42907 3.0323 5.90317 2.65932C5.37727 2.28634 4.74888 2.08516 4.10415 2.08334H3.12498C2.84871 2.08334 2.58376 2.19309 2.38841 2.38844C2.19306 2.58379 2.08331 2.84874 2.08331 3.12501C2.08331 3.40128 2.19306 3.66623 2.38841 3.86158C2.58376 4.05693 2.84871 4.16668 3.12498 4.16668H4.10415C4.3421 4.15974 4.57525 4.23452 4.76478 4.37857C4.95431 4.52261 5.08878 4.72722 5.14581 4.95834L5.20831 5.45834L7.0104 12.5C6.18159 12.5373 5.40155 12.9023 4.84188 13.5147C4.2822 14.1272 3.98873 14.9368 4.02602 15.7656C4.06332 16.5944 4.42833 17.3745 5.04075 17.9342C5.65317 18.4938 6.46284 18.7873 7.29165 18.75H7.47915C7.30783 19.222 7.25278 19.7284 7.31866 20.2262C7.38454 20.724 7.5694 21.1986 7.8576 21.6098C8.1458 22.021 8.52885 22.3567 8.97431 22.5884C9.41976 22.8202 9.91451 22.9412 10.4166 22.9412C10.9188 22.9412 11.4135 22.8202 11.859 22.5884C12.3044 22.3567 12.6875 22.021 12.9757 21.6098C13.2639 21.1986 13.4488 20.724 13.5146 20.2262C13.5805 19.7284 13.5255 19.222 13.3541 18.75H15.8125C15.6412 19.222 15.5861 19.7284 15.652 20.2262C15.7179 20.724 15.9027 21.1986 16.1909 21.6098C16.4791 22.021 16.8622 22.3567 17.3076 22.5884C17.7531 22.8202 18.2478 22.9412 18.75 22.9412C19.2521 22.9412 19.7469 22.8202 20.1923 22.5884C20.6378 22.3567 21.0208 22.021 21.309 21.6098C21.5972 21.1986 21.7821 20.724 21.848 20.2262C21.9138 19.7284 21.8588 19.222 21.6875 18.75H21.875C22.1512 18.75 22.4162 18.6403 22.6115 18.4449C22.8069 18.2496 22.9166 17.9846 22.9166 17.7083C22.9166 17.4321 22.8069 17.1671 22.6115 16.9718C22.4162 16.7764 22.1512 16.6667 21.875 16.6667ZM20.5416 6.25001L19.1771 11.7083C19.12 11.9395 18.9856 12.1441 18.796 12.2881C18.6065 12.4322 18.3733 12.5069 18.1354 12.5H9.14581L7.58331 6.25001H20.5416ZM10.4166 20.8333C10.2106 20.8333 10.0092 20.7723 9.83793 20.6578C9.66663 20.5433 9.53311 20.3806 9.45427 20.1903C9.37543 20 9.3548 19.7905 9.39499 19.5885C9.43519 19.3864 9.5344 19.2008 9.68008 19.0551C9.82576 18.9094 10.0114 18.8102 10.2134 18.77C10.4155 18.7298 10.6249 18.7505 10.8153 18.8293C11.0056 18.9081 11.1683 19.0417 11.2828 19.213C11.3972 19.3843 11.4583 19.5857 11.4583 19.7917C11.4583 20.0679 11.3486 20.3329 11.1532 20.5282C10.9579 20.7236 10.6929 20.8333 10.4166 20.8333ZM18.75 20.8333C18.544 20.8333 18.3426 20.7723 18.1713 20.6578C18 20.5433 17.8664 20.3806 17.7876 20.1903C17.7088 20 17.6881 19.7905 17.7283 19.5885C17.7685 19.3864 17.8677 19.2008 18.0134 19.0551C18.1591 18.9094 18.3447 18.8102 18.5468 18.77C18.7488 18.7298 18.9583 18.7505 19.1486 18.8293C19.3389 18.9081 19.5016 19.0417 19.6161 19.213C19.7306 19.3843 19.7916 19.5857 19.7916 19.7917C19.7916 20.0679 19.6819 20.3329 19.4865 20.5282C19.2912 20.7236 19.0262 20.8333 18.75 20.8333Z" fill="white"/>
</svg>
