<svg width="30" height="30" viewBox="0 0 30 30" fill="none" xmlns="http://www.w3.org/2000/svg">
<path d="M26.25 20H8.75C8.41848 20 8.10054 19.8683 7.86612 19.6339C7.6317 19.3995 7.5 19.0815 7.5 18.75C7.5 18.4185 7.6317 18.1005 7.86612 17.8661C8.10054 17.6317 8.41848 17.5 8.75 17.5H21.8C22.6358 17.5 23.4477 17.2209 24.1067 16.7068C24.7657 16.1927 25.2341 15.4732 25.4375 14.6625L27.5 6.55C27.5468 6.36551 27.5509 6.17277 27.5119 5.98646C27.4729 5.80016 27.3919 5.62523 27.275 5.475C27.1534 5.32092 26.9973 5.19762 26.8192 5.1151C26.6411 5.03258 26.4461 4.99315 26.25 5H8.45C8.19211 4.27056 7.71491 3.63875 7.08383 3.19117C6.45275 2.7436 5.69868 2.50217 4.925 2.5H3.75C3.41848 2.5 3.10054 2.6317 2.86612 2.86612C2.6317 3.10054 2.5 3.41848 2.5 3.75C2.5 4.08152 2.6317 4.39946 2.86612 4.63388C3.10054 4.8683 3.41848 5 3.75 5H4.925C5.21054 4.99168 5.49032 5.08142 5.71776 5.25427C5.94519 5.42712 6.10656 5.67266 6.175 5.95L6.25 6.55L8.4125 15C7.41794 15.0448 6.48189 15.4828 5.81028 16.2177C5.13866 16.9526 4.78649 17.9242 4.83125 18.9188C4.87601 19.9133 5.31402 20.8494 6.04892 21.521C6.78383 22.1926 7.75544 22.5448 8.75 22.5H8.975C8.76942 23.0664 8.70336 23.674 8.78241 24.2714C8.86147 24.8687 9.08331 25.4383 9.42915 25.9317C9.77499 26.4251 10.2346 26.828 10.7692 27.1061C11.3037 27.3842 11.8974 27.5294 12.5 27.5294C13.1026 27.5294 13.6963 27.3842 14.2308 27.1061C14.7654 26.828 15.225 26.4251 15.5709 25.9317C15.9167 25.4383 16.1385 24.8687 16.2176 24.2714C16.2966 23.674 16.2306 23.0664 16.025 22.5H18.975C18.7694 23.0664 18.7034 23.674 18.7824 24.2714C18.8615 24.8687 19.0833 25.4383 19.4291 25.9317C19.775 26.4251 20.2346 26.828 20.7692 27.1061C21.3037 27.3842 21.8974 27.5294 22.5 27.5294C23.1026 27.5294 23.6963 27.3842 24.2308 27.1061C24.7654 26.828 25.225 26.4251 25.5709 25.9317C25.9167 25.4383 26.1385 24.8687 26.2176 24.2714C26.2966 23.674 26.2306 23.0664 26.025 22.5H26.25C26.5815 22.5 26.8995 22.3683 27.1339 22.1339C27.3683 21.8995 27.5 21.5815 27.5 21.25C27.5 20.9185 27.3683 20.6005 27.1339 20.3661C26.8995 20.1317 26.5815 20 26.25 20ZM24.65 7.5L23.0125 14.05C22.9441 14.3273 22.7827 14.5729 22.5553 14.7457C22.3278 14.9186 22.048 15.0083 21.7625 15H10.975L9.1 7.5H24.65ZM12.5 25C12.2528 25 12.0111 24.9267 11.8055 24.7893C11.6 24.652 11.4398 24.4568 11.3451 24.2284C11.2505 23.9999 11.2258 23.7486 11.274 23.5061C11.3222 23.2637 11.4413 23.0409 11.6161 22.8661C11.7909 22.6913 12.0137 22.5723 12.2561 22.524C12.4986 22.4758 12.7499 22.5005 12.9784 22.5952C13.2068 22.6898 13.402 22.85 13.5393 23.0555C13.6767 23.2611 13.75 23.5028 13.75 23.75C13.75 24.0815 13.6183 24.3995 13.3839 24.6339C13.1495 24.8683 12.8315 25 12.5 25ZM22.5 25C22.2528 25 22.0111 24.9267 21.8055 24.7893C21.6 24.652 21.4398 24.4568 21.3451 24.2284C21.2505 23.9999 21.2258 23.7486 21.274 23.5061C21.3223 23.2637 21.4413 23.0409 21.6161 22.8661C21.7909 22.6913 22.0137 22.5723 22.2561 22.524C22.4986 22.4758 22.7499 22.5005 22.9784 22.5952C23.2068 22.6898 23.402 22.85 23.5393 23.0555C23.6767 23.2611 23.75 23.5028 23.75 23.75C23.75 24.0815 23.6183 24.3995 23.3839 24.6339C23.1495 24.8683 22.8315 25 22.5 25Z" fill="#C677CE"/>
</svg>
