<svg width="20" height="20" viewBox="0 0 20 20" fill="none" xmlns="http://www.w3.org/2000/svg">
<path d="M17.0501 8.02505C16.9331 6.80748 16.5028 5.64096 15.8011 4.63907C15.0994 3.63718 14.1502 2.83408 13.046 2.30796C11.9417 1.78185 10.72 1.55065 9.49991 1.63689C8.27977 1.72313 7.10276 2.12385 6.08348 2.80005C5.20781 3.38559 4.47269 4.1578 3.93093 5.06121C3.38917 5.96462 3.05422 6.97681 2.95014 8.02505C2.84805 9.06643 2.97904 10.1175 3.33362 11.1019C3.6882 12.0864 4.25748 12.9796 5.00015 13.7167L9.41681 18.1417C9.49428 18.2198 9.58645 18.2818 9.688 18.3241C9.78955 18.3664 9.89847 18.3882 10.0085 18.3882C10.1185 18.3882 10.2274 18.3664 10.329 18.3241C10.4305 18.2818 10.5227 18.2198 10.6001 18.1417L15.0001 13.7167C15.7428 12.9796 16.3121 12.0864 16.6667 11.1019C17.0213 10.1175 17.1522 9.06643 17.0501 8.02505ZM13.8335 12.5417L10.0001 16.3751L6.16681 12.5417C5.60189 11.9768 5.16915 11.2937 4.8997 10.5415C4.63026 9.78938 4.5308 8.98688 4.60848 8.19172C4.68666 7.38431 4.94328 6.60435 5.35979 5.90826C5.77629 5.21216 6.34228 4.61731 7.01681 4.16672C7.90093 3.57942 8.93873 3.26613 10.0001 3.26613C11.0616 3.26613 12.0994 3.57942 12.9835 4.16672C13.656 4.61557 14.2207 5.20779 14.6371 5.90084C15.0535 6.59388 15.3113 7.37056 15.3918 8.17505C15.472 8.97291 15.3738 9.77862 15.1043 10.5338C14.8348 11.2891 14.4007 11.9749 13.8335 12.5417ZM10.0001 5.00005C9.25847 5.00005 8.53344 5.21999 7.91676 5.63204C7.30007 6.0441 6.81943 6.62977 6.5356 7.31499C6.25177 8.00021 6.17751 8.75421 6.3222 9.48164C6.4669 10.2091 6.82405 10.8773 7.3485 11.4017C7.87294 11.9262 8.54113 12.2833 9.26856 12.428C9.99599 12.5727 10.75 12.4984 11.4352 12.2146C12.1204 11.9308 12.7061 11.4501 13.1182 10.8334C13.5302 10.2168 13.7501 9.49173 13.7501 8.75005C13.7479 7.75617 13.3521 6.80362 12.6494 6.10083C11.9466 5.39805 10.994 5.00226 10.0001 5.00005ZM10.0001 10.8334C9.5881 10.8334 9.18531 10.7112 8.84271 10.4823C8.5001 10.2534 8.23308 9.92799 8.0754 9.54731C7.91771 9.16663 7.87646 8.74774 7.95684 8.34362C8.03723 7.93949 8.23565 7.56827 8.52701 7.27691C8.81837 6.98556 9.18958 6.78714 9.59371 6.70675C9.99783 6.62637 10.4167 6.66762 10.7974 6.8253C11.1781 6.98299 11.5035 7.25001 11.7324 7.59262C11.9613 7.93522 12.0835 8.33801 12.0835 8.75005C12.0835 9.30259 11.864 9.83249 11.4733 10.2232C11.0826 10.6139 10.5527 10.8334 10.0001 10.8334Z" fill="#78AE56"/>
</svg>
