<svg width="142" height="134" viewBox="0 0 142 134" fill="none" xmlns="http://www.w3.org/2000/svg">
<path d="M39.7 93.7999C36.7 93.6999 34 94.8998 31.1 95.3998C28.5 95.7998 26 96.3998 23.4 96.3998C22.8 96.3998 22.2 96.3998 21.9 95.8998C21.5 95.2998 22 94.6998 22.4 94.1998C24.7 90.8998 28.1 88.9998 31.4 86.9998C33.5 85.7998 35.8 84.7999 37.6 83.0999C41.4 83.4999 45.3 83.2999 49.1 82.5999C43.1 85.3999 37.2 88.2999 31.6 91.7999C33.6 90.9999 35.5 90.0998 37.5 89.1998C41.8 87.0998 46 84.7998 50.5 82.9998C50.6 83.0998 50.7 83.1998 50.8 83.1998C49 85.3998 47.2 87.3999 44.9 89.0999C43.2 90.3999 41.7 91.7998 40.4 93.4998C40.1 93.6998 40 93.7999 39.7 93.7999Z" fill="#78AE56"/>
<path d="M76.1001 105.5C76.0001 106.4 75.9001 107.2 75.8001 108.1C75.8001 108.3 75.8001 108.5 75.7001 108.7C75.1001 113 74.5001 117.2 73.9001 121.5C73.7001 122.8 73.7001 124.1 73.1001 125.4C72.8001 126.1 72.5001 126.8 71.7001 126.8C70.8001 126.8 70.5001 126.1 70.3001 125.4C69.2001 122.6 68.8001 119.7 68.2001 116.8C67.6001 114 67.5001 111.1 66.6001 108.3C66.5001 108 66.6001 107.7 66.6001 107.3C66.6001 106.6 66.7001 105.9 66.8001 105.2C67.3001 103.1 67.7001 100.9 67.7001 98.8C67.7001 96.9 68.5001 95.6 70.2001 94.7C70.9001 102.8 71.2001 110.8 71.6001 118.8C72.0001 111 71.7001 103.1 71.1001 95.2C71.3001 95.3 71.4001 95.4 71.5001 95.6C72.9001 98.4 74.3001 101.3 75.7001 104.1C76.1001 104.5 76.1001 105 76.1001 105.5Z" fill="#78AE56"/>
<path d="M108.7 94.4C108.7 94.5 108.8 94.5 108.8 94.6ZM107.6 93.5C102.8 90.1 97.9 86.8 92.7 83.9C91.9 83.4 91 83 90.3 82.5C92.6 82.5 94.9 82.5 97.2 82.5C98.2 82.5 99.1 82.6 99.8 83.3C104.9 87.2 110.2 90.9 115 95.1C115.8 95.8 116.7 96.6 117.4 97.5C118.1 98.5 117.9 99 116.6 99.1C114.2 99.3 111.9 98.8 109.6 98.4C109.4 98.4 105.7 97.6 105.7 97.6H105.6C105.5 97.5 105.3 97.5 105.2 97.4C105 97.3 104.8 97.3 104.6 97.2C103.9 96.3 103.2 95.3 102.4 94.4C99.1 90.6 95.1 87.5 91.1 84.6C90.5 84.2 89.8 83.8 89.5 82.7C92.4 84.4 95.1 86 97.7 87.6" fill="#78AE56"/>
<path d="M92.9992 41.3998C95.5992 39.1998 98.1992 36.8998 100.799 34.5998C101.499 33.9998 102.299 33.3998 103.099 32.9998C104.299 32.4998 105.199 32.9998 105.499 34.2998C105.699 35.3998 105.299 36.3998 104.799 37.3998C103.299 40.1998 101.799 43.0998 100.399 45.8998C99.9992 46.5998 99.5992 47.2998 99.1992 47.9998C98.8992 48.4998 98.7992 49.1998 98.0992 49.3998C94.6992 50.3998 91.6992 52.2998 88.5992 54.0998C88.4992 53.9998 88.3992 53.8998 88.3992 53.7998C91.7992 48.7998 96.0992 44.2998 99.4992 39.2998C98.2992 39.9998 97.5992 41.0998 96.7992 41.9998C93.2992 45.9998 90.0992 50.2998 86.8992 54.4998C86.7992 54.3998 86.7992 54.3998 86.6992 54.2998C87.4992 51.8998 88.5992 49.5998 89.1992 47.0998C89.5992 45.2998 89.8992 43.4998 91.6992 42.3998C91.6992 42.4998 92.5992 41.7998 92.9992 41.3998Z" fill="#78AE56"/>
<path d="M105.3 97.5999C105.4 97.6999 105.6 97.6999 105.7 97.7999C105.5 97.6999 105.4 97.6999 105.3 97.5999Z" fill="#E1F2F1"/>
<path d="M78.2998 107.1C78.3998 107.2 78.3998 107.3 78.4998 107.4C78.4998 107.4 78.3998 107.2 78.2998 107.1Z" fill="#E1F2F1"/>
<path d="M28.8994 79.7C28.9994 79.8 29.0994 79.7999 29.2994 79.8999C29.0994 79.7999 28.9994 79.7 28.8994 79.7Z" fill="#E1F2F1"/>
<path d="M140.8 48.6C140.6 47.6 140 47.0999 138.9 47.4999C139.6 48.8999 139.3 50.1999 137.8 51.7999C135.6 54.0999 132.8 54.3999 129.9 53.9999C126.3 52.8999 104.3 48.9999 102.9 49.2999L101.2 49.4999C101 49.4999 100.9 49.5 100.7 49.6C94.1996 51.2 88.8996 54.8999 83.6996 58.8999C86.5996 52.5999 88.9996 46.1999 89.5996 39.2999C89.5996 38.5999 89.6996 37.9999 89.6996 37.2999C89.6996 36.6999 89.6996 34.6 89.5996 34.1C89.4996 33.2 86.6996 25.7999 84.7996 24.6999C84.2996 24.3999 83.7996 23.9 83.3996 23.6C79.7996 20.6 76.9996 17.3999 77.1996 12.2999C77.2996 9.59995 76.6996 6.89995 75.2996 4.49995C73.8996 2.09995 71.7996 0.799943 69.0996 0.699943C67.5996 0.599943 66.5996 1.69995 66.8996 2.79995C66.9996 3.09995 67.0996 3.39995 67.3996 3.39995C67.7996 3.49995 67.7996 3.19995 67.8996 2.89995C68.1996 1.89995 68.6996 2.39995 69.0996 2.79995C69.5996 3.29995 69.6996 3.99994 69.6996 4.69994C69.6996 7.29994 68.9996 9.69995 67.5996 11.7999C64.3996 16.6999 60.9996 21.4999 58.2996 26.7999C54.8996 35.4 56.1996 43.7999 59.0996 52.1999C59.7996 54.2999 60.5996 56.2999 61.4996 58.1999C61.6996 58.4999 62.1996 58.9999 61.5996 59.2999C61.1996 59.5999 60.8996 58.9999 60.5996 58.6999C57.3996 55.3999 53.7996 52.5999 49.9996 49.9999C47.9996 48.5999 45.8996 47.3999 43.7996 45.9999C43.7996 45.9999 41.4996 44.9999 41.1996 44.9999C36.1996 43.3999 31.7996 44.2999 27.8996 47.7999C26.7996 48.6999 25.8996 49.7999 25.0996 50.9999C23.2996 53.7999 20.6996 55 17.3996 54.6C12.0996 53.9 7.29963 51.9999 2.69963 49.3999C2.29963 49.0999 1.79964 48.8999 1.29964 48.6999C0.99964 48.5999 0.49964 48.4999 0.29964 48.8999C0.0996402 49.1999 0.299637 49.4999 0.499637 49.7999C0.799637 50.0999 1.09963 50.3999 1.39963 50.6999C3.29963 52.1999 5.19964 53.7999 7.09964 55.2999C8.49964 56.3999 9.89964 57.2999 10.9996 58.7999C13.8996 62.7999 16.8996 66.8 20.0996 70.6C22.7996 73.8 25.2996 77.1999 28.7996 79.6999C28.8996 79.7999 28.9996 79.7999 29.1996 79.8999C29.2996 79.8999 29.2996 79.8999 29.3996 79.9999C37.1996 83.2999 45.1996 82.6999 53.4996 80.8999C52.4996 82.4999 51.4996 83.5999 50.4996 84.6999C48.4996 86.8999 46.3996 89.0999 43.8996 90.7999C41.8996 92.1999 40.8996 94.2999 39.6996 96.1999C39.6996 96.2999 39.6996 96.3999 39.5996 96.3999C39.4996 96.4999 39.4996 96.5999 39.3996 96.6999C38.8996 97.8999 38.4996 98.9999 37.9996 100.2C37.9996 100.3 35.3996 109.3 35.0996 109.5C34.9996 109.6 32.4996 115.4 32.2996 115.5C31.8996 116.6 31.3996 117.8 30.9996 118.9C30.0996 121.2 28.8996 123.3 28.3996 125.8C27.6996 129.5 29.5996 132.6 33.1996 133.4C34.2996 133.7 34.8996 133.1 35.4996 132.4C35.6996 132.2 35.9996 131.8 35.7996 131.5C35.2996 130.8 34.4996 131.1 33.7996 131.2C33.3996 131.2 32.8996 131.2 32.6996 130.8C32.3996 130.3 32.6996 130 32.9996 129.7C33.6996 128.9 34.5996 128.2 35.4996 127.6C42.2996 123.4 49.5996 120.1 57.3996 118.3C60.4996 117.6 62.5996 116 63.4996 112.9C63.5996 112.5 63.7996 112.1 63.9996 111.7C65.0996 108 66.2996 104.3 66.6996 100.4C66.7996 99.5999 66.7996 98.7999 66.8996 97.9999C66.9996 96.6999 67.3996 95.4999 68.4996 94.6999C68.7996 94.4999 69.0996 94.1999 69.2996 93.8999C70.5996 92.2999 70.9996 92.3 71.8996 94.1C73.9996 98.4 76.0996 102.8 78.2996 107.1C78.3996 107.2 78.3996 107.3 78.4996 107.4C79.0996 108.3 79.6996 109.2 80.1996 110.2C81.1996 112.1 82.8996 113.2 84.7996 113.9C85.6996 114.2 86.5996 114.6 87.4996 115.1C91.6996 117.6 95.3996 120.6 98.6996 124.2C100.4 126.1 102.4 127.6 104.7 128.6C108 130 111.4 130.4 114.8 129.1C115.9 128.7 117.1 128.1 117.3 126.7C113.3 126.4 111.6 125.1 110.3 121.3C108.8 116.9 106.3 104.2 106.4 103.9C106.4 103.8 106.4 103.6 106.3 103.5C104.6 95.8999 98.6996 91.7999 93.1996 87.1999C92.1996 86.3999 91.0996 85.6999 90.0996 84.8999C89.7996 84.6999 89.4996 84.4999 89.2996 84.1999C88.6996 83.3999 87.9996 82.3999 88.3996 81.4999C88.6996 80.6999 89.8996 81.1999 90.6996 81.2999C95.7996 81.6999 101 81.5999 106.1 81.4999C109.9 81.0999 113.3 79.8999 115.9 76.9999C117.5 75.2999 118.8 73.3999 119.9 71.3999C120.9 69.5999 121.8 67.8 123 66.1C124.9 63.4 127.2 61.4999 130.8 60.9999C134.4 60.4999 137.3 58.3999 139.5 55.4999C141 53.5999 141.4 51.2 140.8 48.6ZM87.2996 69.4999C86.8996 70.6999 86.2996 71.7999 85.7996 72.9999C84.2996 75.9999 83.5996 79.1999 84.3996 82.4999C84.6996 83.9999 84.2996 85.0999 83.1996 85.9999C80.5996 88.0999 77.7996 88.9999 74.5996 87.3999C71.9996 86.0999 69.4996 86.0999 66.8996 87.3999C63.7996 88.8999 59.7996 87.8999 57.6996 85.2999C57.0996 84.5999 56.8996 83.7999 57.0996 82.9999C57.9996 79.1999 57.0996 75.6999 55.3996 72.2999C54.7996 71.1999 54.2996 70.0999 54.0996 68.8999C53.4996 66.1999 54.9996 63.6999 57.5996 62.9999C58.7996 62.6999 59.9996 62.5999 61.1996 62.3999C62.8996 62.1999 64.0996 61.3999 64.8996 59.7999C66.1996 57.3999 68.2996 56.3999 70.7996 56.2999C73.2996 56.3999 75.3996 57.1999 76.4996 59.2999C77.6996 61.5999 79.5996 62.4 81.9996 62.6C83.3996 62.7 84.7996 62.8999 85.9996 63.8999C87.4996 65.4999 87.9996 67.3999 87.2996 69.4999Z" fill="#71C3D0"/>
<path d="M45.6993 36.8001C49.9993 43.0001 54.5992 48.8001 58.3992 55.3001C55.5992 52.9001 52.5993 50.8 49.5993 48.7C48.3993 47.9 47.0993 47.3 46.0993 46.4C44.5993 42 42.4993 37.7001 41.6993 33.1001C41.5993 32.4001 41.1993 31.4001 41.9993 31.0001C42.6993 30.6001 43.3993 31.3 43.9993 31.7C46.6993 33.6 48.9992 36 51.3992 38.2C52.3992 38.9 55.0992 41.5001 55.3992 42.3001C55.3992 42.4001 57.6993 50.2 58.6993 53.4C58.7993 53.6 58.8993 53.8001 58.6993 54.0001C58.5993 53.9001 58.4992 53.7001 58.3992 53.6001C58.0992 53.1001 57.6992 52.7 57.3992 52.2C54.1992 47.1 50.6993 42.4 46.9993 37.7C46.6993 37.3 46.4993 36.6001 45.6993 36.8001Z" fill="#78AE56"/>
<path d="M86.8996 54.7C86.7996 54.7 86.6996 54.8 86.5996 54.8C86.5996 54.7 86.5996 54.6 86.6996 54.5C86.6996 54.6 86.7996 54.6 86.8996 54.7Z" fill="#587F49"/>
<path d="M88.6998 54.1999C88.5998 54.2999 88.3998 54.4999 88.2998 54.1999C88.2998 54.0999 88.3998 53.9999 88.4998 53.8999C88.4998 54.0999 88.5998 54.1999 88.6998 54.1999Z" fill="#587F49"/>
<path d="M67.7997 66.6998C67.7997 66.2998 67.7997 65.8998 67.7997 65.5998C67.7997 64.1998 68.6997 63.1998 69.9997 63.0998C71.3997 62.9998 72.3997 63.8998 72.5997 65.3998C72.6997 66.3998 72.6997 67.3998 72.6997 68.3998C72.7997 69.4998 73.2997 69.8998 74.3997 69.5998C75.2997 69.3998 76.0997 69.0998 76.9997 68.8998C78.5997 68.4998 79.8997 69.1998 80.1997 70.5998C80.4997 71.8998 79.6997 73.0998 78.1997 73.4998C77.2997 73.7998 76.3997 73.9998 75.4997 74.1998C74.6997 74.3998 74.4997 74.9998 74.7997 75.6998C75.1997 76.5998 75.6997 77.3998 76.1997 78.2998C76.8997 79.6998 76.4997 81.0998 75.2997 81.6998C74.0997 82.2998 72.7997 81.8998 72.0997 80.5998C71.6997 79.8998 71.2997 79.1998 70.9997 78.4998C70.4997 77.5998 69.9997 77.4998 69.2997 78.2998C68.7997 78.8998 68.2997 79.4998 67.6997 80.0998C66.6997 81.1998 65.2997 81.3998 64.2997 80.4998C63.1997 79.5998 63.0997 78.1998 64.0997 76.9998C64.6997 76.2998 65.2997 75.5998 65.7997 74.8998C66.2997 74.1998 66.1997 73.6998 65.3997 73.3998C64.5997 73.0998 63.6997 72.7998 62.8997 72.3998C61.4997 71.7998 60.8997 70.5998 61.3997 69.2998C61.8997 67.9998 63.1997 67.3998 64.6997 67.8998C65.2997 68.0998 65.7997 68.3998 66.3997 68.5998C67.8997 69.1998 67.9997 69.0998 68.0997 67.4998C67.7997 67.3998 67.7997 66.6998 67.7997 66.6998Z" fill="#C677CE"/>
</svg>
