<svg width="10" height="10" viewBox="0 0 10 10" fill="none" xmlns="http://www.w3.org/2000/svg">
<path d="M6.1792 4.70419L4.41254 2.93752C4.3738 2.89847 4.32772 2.86747 4.27694 2.84631C4.22617 2.82516 4.17171 2.81427 4.1167 2.81427C4.0617 2.81427 4.00724 2.82516 3.95646 2.84631C3.90569 2.86747 3.85961 2.89847 3.82087 2.93752C3.74327 3.01559 3.69971 3.12119 3.69971 3.23127C3.69971 3.34135 3.74327 3.44695 3.82087 3.52502L5.29587 5.00002L3.82087 6.47502C3.74327 6.55309 3.69971 6.65869 3.69971 6.76877C3.69971 6.87885 3.74327 6.98445 3.82087 7.06252C3.8598 7.10114 3.90598 7.13169 3.95674 7.15242C4.00751 7.17316 4.06187 7.18367 4.1167 7.18335C4.17154 7.18367 4.2259 7.17316 4.27666 7.15242C4.32743 7.13169 4.3736 7.10114 4.41254 7.06252L6.1792 5.29585C6.21826 5.25712 6.24925 5.21103 6.27041 5.16026C6.29156 5.10948 6.30245 5.05502 6.30245 5.00002C6.30245 4.94501 6.29156 4.89055 6.27041 4.83978C6.24925 4.789 6.21826 4.74292 6.1792 4.70419Z" fill="#354E36"/>
</svg>
