<svg width="25" height="25" viewBox="0 0 25 25" fill="none" xmlns="http://www.w3.org/2000/svg">
<path d="M21.8752 16.6667H7.29183C7.01556 16.6667 6.75061 16.557 6.55526 16.3616C6.35991 16.1663 6.25016 15.9013 6.25016 15.625C6.25016 15.3488 6.35991 15.0838 6.55526 14.8885C6.75061 14.6931 7.01556 14.5834 7.29183 14.5834H18.1668C18.8633 14.5834 19.5399 14.3508 20.0891 13.9224C20.6383 13.494 21.0286 12.8944 21.1981 12.2188L22.9168 5.45837C22.9558 5.30463 22.9592 5.14401 22.9267 4.98876C22.8942 4.83351 22.8267 4.68773 22.7293 4.56254C22.628 4.43414 22.4979 4.33139 22.3495 4.26262C22.2011 4.19386 22.0386 4.161 21.8752 4.16671H7.04183C6.82692 3.55884 6.42926 3.03233 5.90336 2.65935C5.37745 2.28637 4.74906 2.08519 4.10433 2.08337H3.12516C2.8489 2.08337 2.58394 2.19312 2.38859 2.38847C2.19324 2.58382 2.0835 2.84877 2.0835 3.12504C2.0835 3.40131 2.19324 3.66626 2.38859 3.86161C2.58394 4.05696 2.8489 4.16671 3.12516 4.16671H4.10433C4.34228 4.15977 4.57543 4.23455 4.76496 4.3786C4.95449 4.52264 5.08896 4.72725 5.146 4.95837L5.2085 5.45837L7.01058 12.5C6.18178 12.5373 5.40174 12.9023 4.84206 13.5148C4.28238 14.1272 3.98891 14.9369 4.0262 15.7657C4.0635 16.5945 4.42851 17.3745 5.04093 17.9342C5.65336 18.4939 6.46303 18.7873 7.29183 18.75H7.47933C7.30801 19.2221 7.25296 19.7284 7.31884 20.2262C7.38472 20.724 7.56959 21.1986 7.85779 21.6098C8.14599 22.021 8.52903 22.3567 8.97449 22.5884C9.41994 22.8202 9.91469 22.9412 10.4168 22.9412C10.919 22.9412 11.4137 22.8202 11.8592 22.5884C12.3046 22.3567 12.6877 22.021 12.9759 21.6098C13.2641 21.1986 13.4489 20.724 13.5148 20.2262C13.5807 19.7284 13.5256 19.2221 13.3543 18.75H15.8127C15.6413 19.2221 15.5863 19.7284 15.6522 20.2262C15.7181 20.724 15.9029 21.1986 16.1911 21.6098C16.4793 22.021 16.8624 22.3567 17.3078 22.5884C17.7533 22.8202 18.248 22.9412 18.7502 22.9412C19.2523 22.9412 19.747 22.8202 20.1925 22.5884C20.638 22.3567 21.021 22.021 21.3092 21.6098C21.5974 21.1986 21.7823 20.724 21.8482 20.2262C21.914 19.7284 21.859 19.2221 21.6877 18.75H21.8752C22.1514 18.75 22.4164 18.6403 22.6117 18.4449C22.8071 18.2496 22.9168 17.9846 22.9168 17.7084C22.9168 17.4321 22.8071 17.1672 22.6117 16.9718C22.4164 16.7765 22.1514 16.6667 21.8752 16.6667ZM20.5418 6.25004L19.1772 11.7084C19.1202 11.9395 18.9857 12.1441 18.7962 12.2882C18.6067 12.4322 18.3735 12.507 18.1356 12.5H9.146L7.5835 6.25004H20.5418ZM10.4168 20.8334C10.2108 20.8334 10.0094 20.7723 9.83811 20.6578C9.66681 20.5434 9.5333 20.3807 9.45445 20.1903C9.37561 20 9.35498 19.7906 9.39518 19.5885C9.43537 19.3864 9.53458 19.2008 9.68026 19.0551C9.82594 18.9095 10.0115 18.8102 10.2136 18.7701C10.4157 18.7299 10.6251 18.7505 10.8155 18.8293C11.0058 18.9082 11.1685 19.0417 11.2829 19.213C11.3974 19.3843 11.4585 19.5857 11.4585 19.7917C11.4585 20.068 11.3487 20.3329 11.1534 20.5283C10.958 20.7236 10.6931 20.8334 10.4168 20.8334ZM18.7502 20.8334C18.5441 20.8334 18.3427 20.7723 18.1714 20.6578C18.0001 20.5434 17.8666 20.3807 17.7878 20.1903C17.7089 20 17.6883 19.7906 17.7285 19.5885C17.7687 19.3864 17.8679 19.2008 18.0136 19.0551C18.1593 18.9095 18.3449 18.8102 18.5469 18.7701C18.749 18.7299 18.9585 18.7505 19.1488 18.8293C19.3391 18.9082 19.5018 19.0417 19.6163 19.213C19.7307 19.3843 19.7918 19.5857 19.7918 19.7917C19.7918 20.068 19.6821 20.3329 19.4867 20.5283C19.2914 20.7236 19.0264 20.8334 18.7502 20.8334Z" fill="#78AE56"/>
</svg>
