<svg width="9" height="9" viewBox="0 0 9 9" fill="none" xmlns="http://www.w3.org/2000/svg">
<path d="M7.01617 2.70376C6.98131 2.66861 6.93983 2.64071 6.89414 2.62167C6.84844 2.60264 6.79942 2.59283 6.74992 2.59283C6.70042 2.59283 6.6514 2.60264 6.6057 2.62167C6.56001 2.64071 6.51853 2.66861 6.48367 2.70376L3.68992 5.50126L2.51617 4.32376C2.47997 4.28879 2.43725 4.2613 2.39043 4.24285C2.34361 4.2244 2.29361 4.21535 2.24329 4.21622C2.19297 4.21709 2.14332 4.22786 2.09717 4.24792C2.05101 4.26798 2.00926 4.29694 1.9743 4.33313C1.93933 4.36933 1.91184 4.41206 1.89339 4.45888C1.87493 4.5057 1.86589 4.5557 1.86676 4.60601C1.86763 4.65633 1.8784 4.70598 1.89846 4.75214C1.91852 4.79829 1.94747 4.84004 1.98367 4.87501L3.42367 6.31501C3.45853 6.35016 3.50001 6.37806 3.5457 6.39709C3.5914 6.41613 3.64042 6.42593 3.68992 6.42593C3.73942 6.42593 3.78844 6.41613 3.83414 6.39709C3.87983 6.37806 3.92131 6.35016 3.95617 6.31501L7.01617 3.25501C7.05423 3.21989 7.08461 3.17727 7.10539 3.12984C7.12617 3.0824 7.13689 3.03117 7.13689 2.97938C7.13689 2.9276 7.12617 2.87637 7.10539 2.82893C7.08461 2.78149 7.05423 2.73887 7.01617 2.70376Z" fill="white"/>
</svg>
