<svg width="35" height="35" viewBox="0 0 35 35" fill="none" xmlns="http://www.w3.org/2000/svg">
<path d="M24.792 16.0417H23.3337C22.9469 16.0417 22.576 16.1953 22.3025 16.4688C22.029 16.7423 21.8753 17.1132 21.8753 17.5C21.8753 17.8868 22.029 18.2577 22.3025 18.5312C22.576 18.8047 22.9469 18.9583 23.3337 18.9583H24.792C25.1788 18.9583 25.5497 18.8047 25.8232 18.5312C26.0967 18.2577 26.2503 17.8868 26.2503 17.5C26.2503 17.1132 26.0967 16.7423 25.8232 16.4688C25.5497 16.1953 25.1788 16.0417 24.792 16.0417ZM24.792 21.875H23.3337C22.9469 21.875 22.576 22.0286 22.3025 22.3021C22.029 22.5756 21.8753 22.9466 21.8753 23.3333C21.8753 23.7201 22.029 24.091 22.3025 24.3645C22.576 24.638 22.9469 24.7917 23.3337 24.7917H24.792C25.1788 24.7917 25.5497 24.638 25.8232 24.3645C26.0967 24.091 26.2503 23.7201 26.2503 23.3333C26.2503 22.9466 26.0967 22.5756 25.8232 22.3021C25.5497 22.0286 25.1788 21.875 24.792 21.875ZM16.042 13.125H24.792C25.1788 13.125 25.5497 12.9714 25.8232 12.6979C26.0967 12.4244 26.2503 12.0534 26.2503 11.6667C26.2503 11.2799 26.0967 10.909 25.8232 10.6355C25.5497 10.362 25.1788 10.2083 24.792 10.2083H16.042C15.6552 10.2083 15.2843 10.362 15.0108 10.6355C14.7373 10.909 14.5837 11.2799 14.5837 11.6667C14.5837 12.0534 14.7373 12.4244 15.0108 12.6979C15.2843 12.9714 15.6552 13.125 16.042 13.125V13.125ZM30.6253 4.375H10.2087C9.82188 4.375 9.45095 4.52865 9.17746 4.80214C8.90397 5.07563 8.75033 5.44656 8.75033 5.83333V10.2083H4.37533C3.98855 10.2083 3.61762 10.362 3.34413 10.6355C3.07064 10.909 2.91699 11.2799 2.91699 11.6667V26.25C2.91699 27.4103 3.37793 28.5231 4.1984 29.3436C5.01887 30.1641 6.13167 30.625 7.29199 30.625H26.2503C27.7974 30.625 29.2812 30.0104 30.3751 28.9165C31.4691 27.8225 32.0837 26.3388 32.0837 24.7917V5.83333C32.0837 5.44656 31.93 5.07563 31.6565 4.80214C31.383 4.52865 31.0121 4.375 30.6253 4.375V4.375ZM8.75033 26.25C8.75033 26.6368 8.59668 27.0077 8.32319 27.2812C8.0497 27.5547 7.67877 27.7083 7.29199 27.7083C6.90522 27.7083 6.53429 27.5547 6.26079 27.2812C5.9873 27.0077 5.83366 26.6368 5.83366 26.25V13.125H8.75033V26.25ZM29.167 24.7917C29.167 25.5652 28.8597 26.3071 28.3127 26.8541C27.7657 27.401 27.0239 27.7083 26.2503 27.7083H11.4045C11.5743 27.2407 11.663 26.7475 11.667 26.25V7.29167H29.167V24.7917ZM16.042 18.9583H17.5003C17.8871 18.9583 18.258 18.8047 18.5315 18.5312C18.805 18.2577 18.9587 17.8868 18.9587 17.5C18.9587 17.1132 18.805 16.7423 18.5315 16.4688C18.258 16.1953 17.8871 16.0417 17.5003 16.0417H16.042C15.6552 16.0417 15.2843 16.1953 15.0108 16.4688C14.7373 16.7423 14.5837 17.1132 14.5837 17.5C14.5837 17.8868 14.7373 18.2577 15.0108 18.5312C15.2843 18.8047 15.6552 18.9583 16.042 18.9583V18.9583ZM16.042 24.7917H17.5003C17.8871 24.7917 18.258 24.638 18.5315 24.3645C18.805 24.091 18.9587 23.7201 18.9587 23.3333C18.9587 22.9466 18.805 22.5756 18.5315 22.3021C18.258 22.0286 17.8871 21.875 17.5003 21.875H16.042C15.6552 21.875 15.2843 22.0286 15.0108 22.3021C14.7373 22.5756 14.5837 22.9466 14.5837 23.3333C14.5837 23.7201 14.7373 24.091 15.0108 24.3645C15.2843 24.638 15.6552 24.7917 16.042 24.7917V24.7917Z" fill="#78AE56"/>
</svg>
