<svg width="25" height="25" viewBox="0 0 25 25" fill="none" xmlns="http://www.w3.org/2000/svg">
<path d="M19.7918 4.16663H5.2085C4.37969 4.16663 3.58484 4.49587 2.99879 5.08192C2.41274 5.66797 2.0835 6.46282 2.0835 7.29163V17.7083C2.0835 18.5371 2.41274 19.332 2.99879 19.918C3.58484 20.5041 4.37969 20.8333 5.2085 20.8333H19.7918C20.6206 20.8333 21.4155 20.5041 22.0015 19.918C22.5876 19.332 22.9168 18.5371 22.9168 17.7083V7.29163C22.9168 6.46282 22.5876 5.66797 22.0015 5.08192C21.4155 4.49587 20.6206 4.16663 19.7918 4.16663ZM5.2085 6.24996H19.7918C20.0681 6.24996 20.333 6.35971 20.5284 6.55506C20.7237 6.75041 20.8335 7.01536 20.8335 7.29163L12.5002 12.375L4.16683 7.29163C4.16683 7.01536 4.27658 6.75041 4.47193 6.55506C4.66728 6.35971 4.93223 6.24996 5.2085 6.24996ZM20.8335 17.7083C20.8335 17.9846 20.7237 18.2495 20.5284 18.4449C20.333 18.6402 20.0681 18.75 19.7918 18.75H5.2085C4.93223 18.75 4.66728 18.6402 4.47193 18.4449C4.27658 18.2495 4.16683 17.9846 4.16683 17.7083V9.66663L11.9585 14.427C12.1168 14.5185 12.2965 14.5666 12.4793 14.5666C12.6622 14.5666 12.8418 14.5185 13.0002 14.427L20.8335 9.66663V17.7083Z" fill="#78AE56"/>
</svg>
