<svg width="30" height="30" viewBox="0 0 30 30" fill="none" xmlns="http://www.w3.org/2000/svg">
<path opacity="0.8" d="M7.5 5.5L5.5 7L4 8.5V10.5V13L5 15L7.5 17.5L11.5 22L14 24.5H16C16.4206 24.1667 17.2619 23.4 17.2619 23C17.2619 22.6 19.4206 20.8333 20.5 20L23.5 17L25 14.5L25.5 12.5V9L24.5 6.5L22 5.5L19 5L17.2619 5.5L15.5 6H14L12.5 5L9.5 4.5L7.5 5.5Z" fill="#FAF9F5"/>
<path d="M25.1999 5.76251C23.8727 4.43502 22.1133 3.62792 20.2414 3.48799C18.3695 3.34806 16.5096 3.88459 14.9999 5.00001C13.4094 3.81706 11.4298 3.28065 9.45976 3.49881C7.48967 3.71697 5.67541 4.67348 4.38232 6.17574C3.08924 7.678 2.41338 9.61441 2.49086 11.595C2.56833 13.5756 3.39338 15.4533 4.79986 16.85L14.1124 26.1625C14.2286 26.2797 14.3668 26.3727 14.5191 26.4361C14.6715 26.4996 14.8348 26.5323 14.9999 26.5323C15.1649 26.5323 15.3283 26.4996 15.4806 26.4361C15.6329 26.3727 15.7712 26.2797 15.8874 26.1625L25.1999 16.85C25.9282 16.1222 26.5059 15.2579 26.9001 14.3067C27.2943 13.3555 27.4972 12.3359 27.4972 11.3063C27.4972 10.2766 27.2943 9.25702 26.9001 8.3058C26.5059 7.35458 25.9282 6.49036 25.1999 5.76251ZM23.4374 15.0875L14.9999 23.5125L6.56236 15.0875C5.81882 14.3409 5.31232 13.3913 5.10639 12.3579C4.90046 11.3246 5.00427 10.2534 5.4048 9.27875C5.80532 8.30414 6.48473 7.4695 7.35779 6.87954C8.23085 6.28958 9.25868 5.97056 10.3124 5.96251C11.72 5.96596 13.0687 6.52793 14.0624 7.52501C14.1786 7.64217 14.3168 7.73517 14.4691 7.79863C14.6215 7.86209 14.7848 7.89476 14.9499 7.89476C15.1149 7.89476 15.2783 7.86209 15.4306 7.79863C15.5829 7.73517 15.7212 7.64217 15.8374 7.52501C16.8603 6.63861 18.1817 6.17394 19.5343 6.22504C20.8868 6.27614 22.1695 6.8392 23.1226 7.80025C24.0757 8.7613 24.6281 10.0486 24.668 11.4015C24.7078 12.7544 24.2322 14.072 23.3374 15.0875H23.4374Z" fill="#71C3D0"/>
</svg>
