<svg width="25" height="25" viewBox="0 0 25 25" fill="none" xmlns="http://www.w3.org/2000/svg">
<path d="M21 4.80209C19.8941 3.69585 18.4278 3.02327 16.8679 2.90666C15.308 2.79005 13.7581 3.23716 12.5 4.16668C11.1746 3.18088 9.52498 2.73388 7.88324 2.91567C6.2415 3.09747 4.72962 3.89457 3.65205 5.14645C2.57448 6.39833 2.01127 8.01201 2.07583 9.66252C2.14039 11.313 2.82793 12.8778 3.99999 14.0417L11.7604 21.8021C11.8572 21.8997 11.9725 21.9772 12.0994 22.0301C12.2263 22.083 12.3625 22.1102 12.5 22.1102C12.6375 22.1102 12.7737 22.083 12.9006 22.0301C13.0275 21.9772 13.1427 21.8997 13.2396 21.8021L21 14.0417C21.6069 13.4351 22.0884 12.7149 22.4169 11.9223C22.7454 11.1296 22.9145 10.2799 22.9145 9.42188C22.9145 8.56383 22.7454 7.71419 22.4169 6.9215C22.0884 6.12882 21.6069 5.40863 21 4.80209ZM19.5312 12.5729L12.5 19.5938L5.46874 12.5729C4.84913 11.9507 4.42705 11.1594 4.25544 10.2983C4.08383 9.43713 4.17034 8.54447 4.50411 7.73229C4.83788 6.92012 5.40405 6.22459 6.1316 5.73295C6.85915 5.24131 7.71568 4.97547 8.59374 4.96876C9.76678 4.97163 10.8907 5.43994 11.7187 6.27084C11.8156 6.36848 11.9308 6.44597 12.0577 6.49885C12.1847 6.55174 12.3208 6.57897 12.4583 6.57897C12.5958 6.57897 12.732 6.55174 12.8589 6.49885C12.9859 6.44597 13.1011 6.36848 13.1979 6.27084C14.0503 5.53218 15.1515 5.14495 16.2787 5.18753C17.4058 5.23012 18.4747 5.69933 19.2689 6.50021C20.0632 7.30108 20.5235 8.3738 20.5567 9.50125C20.59 10.6287 20.1936 11.7267 19.4479 12.5729H19.5312Z" fill="white"/>
</svg>
