<svg width="25" height="25" viewBox="0 0 25 25" fill="none" xmlns="http://www.w3.org/2000/svg">
<path d="M21 4.80209C19.8941 3.69585 18.4278 3.02327 16.8679 2.90666C15.308 2.79005 13.7581 3.23716 12.5 4.16668C11.1746 3.18088 9.52498 2.73388 7.88324 2.91567C6.2415 3.09747 4.72962 3.89457 3.65205 5.14645C2.57448 6.39833 2.01127 8.01201 2.07583 9.66252C2.14039 11.313 2.82793 12.8778 3.99999 14.0417L11.7604 21.8021C11.8572 21.8997 11.9725 21.9772 12.0994 22.0301C12.2263 22.083 12.3625 22.1102 12.5 22.1102C12.6375 22.1102 12.7737 22.083 12.9006 22.0301C13.0275 21.9772 13.1427 21.8997 13.2396 21.8021L21 14.0417C21.6069 13.4351 22.0884 12.7149 22.4169 11.9223C22.7454 11.1296 22.9145 10.2799 22.9145 9.42188C22.9145 8.56383 22.7454 7.71419 22.4169 6.9215C22.0884 6.12882 21.6069 5.40863 21 4.80209V4.80209ZM19.5312 12.5729L12.5 19.5938L5.46874 12.5729C4.84913 11.9507 4.42705 11.1594 4.25544 10.2983C4.08383 9.43713 4.17034 8.54447 4.50411 7.73229C4.83788 6.92012 5.40405 6.22459 6.1316 5.73295C6.85915 5.24131 7.71568 4.97547 8.59374 4.96876C9.76678 4.97163 10.8907 5.43994 11.7187 6.27084C11.8156 6.36848 11.9308 6.44597 12.0577 6.49885C12.1847 6.55174 12.3208 6.57897 12.4583 6.57897C12.5958 6.57897 12.732 6.55174 12.8589 6.49885C12.9859 6.44597 13.1011 6.36848 13.1979 6.27084C14.0503 5.53218 15.1515 5.14495 16.2787 5.18753C17.4058 5.23012 18.4747 5.69933 19.2689 6.50021C20.0632 7.30108 20.5235 8.3738 20.5567 9.50125C20.59 10.6287 20.1936 11.7267 19.4479 12.5729H19.5312Z" fill="white"/>
<path d="M8.44278 4.26611H6.4567L4.09814 7.0037L3.9289 7.42587C3.79348 7.78698 3.52263 8.54532 3.52263 8.68976C3.52263 8.87032 3.47749 10.4502 3.52263 10.721C3.55874 10.9377 4.01915 11.7141 4.24485 12.0752L5.10249 12.9328C5.67425 13.4444 6.89903 14.621 7.22403 15.2349C7.63028 16.0023 8.44278 16.3634 8.44278 16.5891C8.44278 16.8148 10.1129 18.4849 10.2483 18.7558C10.3567 18.9724 11.5273 19.5382 12.099 19.794H12.8664C13.1222 19.6134 13.6699 19.2252 13.8143 19.1169C13.9949 18.9815 14.8525 18.5752 15.3039 18.169C15.7553 17.7627 16.7484 17.2662 16.7484 16.8599C16.7484 16.4537 18.1025 15.6863 18.4185 15.2349C18.6713 14.8738 18.9451 14.2118 19.0505 13.9259C19.3213 13.5648 19.863 12.7613 19.863 12.4363C19.863 12.1113 20.4046 11.5787 20.6755 11.353V9.36685C20.6755 8.82518 20.8109 7.78698 20.6755 7.20013C20.54 6.61329 20.0887 6.25226 19.863 5.93628C19.6824 5.6835 19.2461 5.31938 19.0505 5.16892C18.4937 4.86798 17.2539 4.26611 16.7484 4.26611C16.1164 4.26611 15.665 4.26611 15.3039 4.49183C15.015 4.67241 14.5215 5.01846 14.3109 5.16892L12.099 5.93628L10.9254 5.16892L8.44278 4.26611Z" fill="white"/>
</svg>
