<svg width="30" height="30" viewBox="0 0 30 30" fill="none" xmlns="http://www.w3.org/2000/svg">
<path opacity="0.8" d="M7.5 5.5L5.5 7L4 8.5V10.5V13L5 15L7.5 17.5L11.5 22L14 24.5H16C16.4206 24.1667 17.2619 23.4 17.2619 23C17.2619 22.6 19.4206 20.8333 20.5 20L23.5 17L25 14.5L25.5 12.5V9L24.5 6.5L22 5.5L19 5L17.2619 5.5L15.5 6H14L12.5 5L9.5 4.5L7.5 5.5Z" fill="#71C3D0"/>
<path d="M25.2003 5.76251C23.8732 4.43502 22.1137 3.62792 20.2419 3.48799C18.37 3.34806 16.5101 3.88459 15.0003 5.00001C13.4099 3.81706 11.4303 3.28065 9.46025 3.49881C7.49016 3.71697 5.67589 4.67348 4.38281 6.17574C3.08973 7.678 2.41387 9.61441 2.49135 11.595C2.56882 13.5756 3.39387 15.4533 4.80034 16.85L14.1128 26.1625C14.229 26.2797 14.3673 26.3727 14.5196 26.4361C14.6719 26.4996 14.8353 26.5323 15.0003 26.5323C15.1654 26.5323 15.3287 26.4996 15.4811 26.4361C15.6334 26.3727 15.7716 26.2797 15.8878 26.1625L25.2003 16.85C25.9287 16.1222 26.5064 15.2579 26.9006 14.3067C27.2948 13.3555 27.4977 12.3359 27.4977 11.3063C27.4977 10.2766 27.2948 9.25702 26.9006 8.3058C26.5064 7.35458 25.9287 6.49036 25.2003 5.76251ZM23.4378 15.0875L15.0003 23.5125L6.56284 15.0875C5.81931 14.3409 5.31281 13.3913 5.10688 12.3579C4.90095 11.3246 5.00476 10.2534 5.40528 9.27875C5.80581 8.30414 6.48522 7.4695 7.35828 6.87954C8.23134 6.28958 9.25917 5.97056 10.3128 5.96251C11.7205 5.96596 13.0692 6.52793 14.0628 7.52501C14.179 7.64217 14.3173 7.73517 14.4696 7.79863C14.6219 7.86209 14.7853 7.89476 14.9503 7.89476C15.1154 7.89476 15.2787 7.86209 15.4311 7.79863C15.5834 7.73517 15.7216 7.64217 15.8378 7.52501C16.8608 6.63861 18.1822 6.17394 19.5348 6.22504C20.8873 6.27614 22.17 6.8392 23.1231 7.80025C24.0762 8.7613 24.6286 10.0486 24.6684 11.4015C24.7083 12.7544 24.2327 14.072 23.3378 15.0875H23.4378Z" fill="#71C3D0"/>
</svg>
