<svg width="222" height="80" viewBox="0 0 222 80" fill="none" xmlns="http://www.w3.org/2000/svg">
<path d="M23.5812 55.6079C21.7895 55.5482 20.1769 56.2649 18.4449 56.5635C16.892 56.8024 15.3989 57.1608 13.846 57.1608C13.4877 57.1608 13.1293 57.1608 12.9501 56.8621C12.7112 56.5038 13.0099 56.1454 13.2488 55.8468C14.6224 53.8759 16.6531 52.7411 18.624 51.5466C19.8783 50.8299 21.2519 50.2327 22.327 49.2173C24.5966 49.4562 26.9258 49.3368 29.1954 48.9187C25.6119 50.591 22.0881 52.323 18.7435 54.4134C19.938 53.9356 21.0728 53.3981 22.2673 52.8606C24.8354 51.6063 27.3439 50.2327 30.0315 49.1576C30.0913 49.2173 30.151 49.277 30.2107 49.277C29.1357 50.591 28.0606 51.7855 26.6869 52.8008C25.6716 53.5773 24.7757 54.4134 23.9993 55.4287C23.8201 55.5482 23.7604 55.6079 23.5812 55.6079Z" fill="#78AE56"/>
<path d="M45.3215 62.5958C45.2618 63.1334 45.2021 63.6112 45.1424 64.1487C45.1424 64.2681 45.1423 64.3876 45.0826 64.507C44.7243 67.0752 44.3659 69.5837 44.0076 72.1519C43.8881 72.9283 43.8881 73.7047 43.5298 74.4811C43.3506 74.8992 43.1714 75.3173 42.6936 75.3173C42.1561 75.3173 41.9769 74.8992 41.8575 74.4811C41.2005 72.8088 40.9616 71.0768 40.6032 69.3448C40.2449 67.6725 40.1852 65.9404 39.6476 64.2681C39.5879 64.089 39.6476 63.9098 39.6476 63.6709C39.6476 63.2528 39.7074 62.8347 39.7671 62.4167C40.0657 61.1624 40.3046 59.8485 40.3046 58.5942C40.3046 57.4595 40.7824 56.683 41.7977 56.1455C42.2158 60.9832 42.395 65.7613 42.6339 70.5393C42.8728 65.8807 42.6936 61.1624 42.3353 56.4441C42.4547 56.5039 42.5144 56.5636 42.5742 56.683C43.4103 58.3553 44.2465 60.0874 45.0826 61.7597C45.3215 61.9986 45.3215 62.2972 45.3215 62.5958Z" fill="#78AE56"/>
<path d="M64.7915 55.9663C64.7915 56.026 64.8512 56.026 64.8512 56.0858ZM64.1345 55.4288C61.2677 53.3981 58.3411 51.4272 55.2354 49.6952C54.7576 49.3965 54.2201 49.1576 53.802 48.859C55.1757 48.859 56.5494 48.859 57.9231 48.859C58.5203 48.859 59.0578 48.9187 59.4759 49.3368C62.5219 51.6661 65.6873 53.8759 68.5541 56.3844C69.0319 56.8025 69.5695 57.2803 69.9875 57.8178C70.4056 58.415 70.2862 58.7137 69.5097 58.7734C68.0763 58.8928 66.7027 58.5942 65.329 58.3553C65.2095 58.3553 62.9997 57.8775 62.9997 57.8775H62.94C62.8803 57.8178 62.7608 57.8178 62.7011 57.7581C62.5816 57.6983 62.4622 57.6983 62.3427 57.6386C61.9246 57.1011 61.5066 56.5038 61.0288 55.9663C59.0578 53.6967 56.6688 51.8453 54.2798 50.1132C53.9215 49.8743 53.5034 49.6354 53.3242 48.9785C55.0562 49.9938 56.6688 50.9494 58.2217 51.905" fill="#78AE56"/>
<path d="M55.415 24.3119C56.9679 22.9979 58.5207 21.6242 60.0736 20.2506C60.4917 19.8922 60.9695 19.5339 61.4473 19.295C62.164 18.9963 62.7015 19.295 62.8807 20.0714C63.0001 20.7284 62.7612 21.3256 62.4626 21.9229C61.5667 23.5952 60.6708 25.3272 59.8347 26.9995C59.5958 27.4176 59.3569 27.8357 59.118 28.2537C58.9388 28.5524 58.8791 28.9704 58.461 29.0899C56.4304 29.6871 54.6386 30.8219 52.7871 31.897C52.7274 31.8372 52.6677 31.7775 52.6677 31.7178C54.6983 28.7315 57.2665 26.0439 59.2972 23.0576C58.5805 23.4757 58.1624 24.1327 57.6846 24.6702C55.5942 27.0592 53.683 29.6274 51.7718 32.1359C51.7121 32.0761 51.7121 32.0761 51.6523 32.0164C52.1301 30.583 52.7871 29.2093 53.1455 27.7162C53.3844 26.6412 53.5635 25.5661 54.6386 24.9091C54.6386 24.9688 55.1761 24.5508 55.415 24.3119Z" fill="#78AE56"/>
<path d="M62.7607 57.8774C62.8205 57.9372 62.9399 57.9372 62.9996 57.9969C62.8802 57.9372 62.8205 57.9372 62.7607 57.8774Z" fill="#E1F2F1"/>
<path d="M46.6348 63.5513C46.6945 63.611 46.6945 63.6707 46.7542 63.7304C46.7542 63.7304 46.6945 63.611 46.6348 63.5513Z" fill="#E1F2F1"/>
<path d="M17.1309 47.1866C17.1906 47.2464 17.2503 47.2464 17.3698 47.3061C17.2503 47.2464 17.1906 47.1866 17.1309 47.1866Z" fill="#E1F2F1"/>
<path d="M83.9633 28.6122C83.8439 28.0149 83.4856 27.7163 82.8286 27.9552C83.2467 28.7913 83.0675 29.5678 82.1716 30.5234C80.8576 31.897 79.1853 32.0762 77.4533 31.8373C75.3032 31.1803 62.1637 28.8511 61.3275 29.0302L60.3122 29.1497C60.1927 29.1497 60.133 29.1497 60.0136 29.2094C56.1314 30.165 52.966 32.3748 49.8603 34.7638C51.5923 31.0012 53.0257 27.1787 53.3841 23.0577C53.3841 22.6396 53.4438 22.2813 53.4438 21.8632C53.4438 21.5049 53.4438 20.2506 53.3841 19.952C53.3243 19.4145 51.652 14.9948 50.5173 14.3378C50.2186 14.1587 49.92 13.86 49.6811 13.6809C47.531 11.8891 45.8587 9.9779 45.9781 6.93191C46.0379 5.31933 45.6795 3.70675 44.8434 2.27335C44.0072 0.839941 42.753 0.0635115 41.1404 0.00378634C40.2445 -0.0559388 39.6473 0.601042 39.8264 1.25802C39.8862 1.43719 39.9459 1.61637 40.1251 1.61637C40.364 1.67609 40.364 1.49692 40.4237 1.31774C40.6029 0.720491 40.9015 1.01912 41.1404 1.25802C41.439 1.55664 41.4987 1.97472 41.4987 2.39279C41.4987 3.94565 41.0807 5.37906 40.2445 6.63329C38.3333 9.55982 36.3027 12.4266 34.6901 15.5921C32.6594 20.7284 33.4359 25.7453 35.1679 30.7623C35.586 32.0165 36.0638 33.211 36.6013 34.3458C36.7207 34.5249 37.0194 34.8236 36.661 35.0027C36.4221 35.1819 36.2429 34.8236 36.0638 34.6444C34.1526 32.6735 32.0024 31.0012 29.7329 29.4483C28.5384 28.6122 27.2842 27.8954 26.0299 27.0593C26.0299 27.0593 24.6563 26.462 24.4771 26.462C21.4908 25.5064 18.8629 26.044 16.5336 28.1344C15.8766 28.6719 15.3391 29.3289 14.8613 30.0456C13.7863 31.7179 12.2334 32.4346 10.2625 32.1957C7.09704 31.7776 4.23024 30.6428 1.48288 29.0899C1.24398 28.9108 0.945356 28.7913 0.64673 28.6719C0.467555 28.6121 0.168929 28.5524 0.0494783 28.7913C-0.069972 28.9705 0.0494765 29.1497 0.168927 29.3289C0.348102 29.508 0.527274 29.6872 0.70645 29.8664C1.84123 30.7623 2.97601 31.7179 4.11079 32.6137C4.94695 33.2707 5.78309 33.8082 6.44007 34.7041C8.1721 37.0931 9.96386 39.4821 11.8751 41.7517C13.4876 43.6629 14.9808 45.6936 17.0712 47.1867C17.1309 47.2464 17.1906 47.2464 17.3101 47.3061C17.3698 47.3061 17.3698 47.3061 17.4295 47.3659C22.0881 49.3368 26.8661 48.9784 31.8233 47.9034C31.226 48.859 30.6288 49.516 30.0315 50.1729C28.837 51.4869 27.5828 52.8009 26.0897 53.8162C24.8951 54.6523 24.2979 55.9066 23.5812 57.0413C23.5812 57.1011 23.5812 57.1608 23.5215 57.1608C23.4618 57.2205 23.4617 57.2802 23.402 57.34C23.1034 58.0567 22.8645 58.7136 22.5659 59.4303C22.5659 59.4901 21.013 64.8653 20.8338 64.9848C20.7741 65.0445 19.281 68.5086 19.1615 68.5683C18.9226 69.2253 18.624 69.942 18.3851 70.599C17.8476 71.9726 17.1309 73.2269 16.8322 74.72C16.4142 76.9298 17.549 78.7813 19.6991 79.2591C20.356 79.4383 20.7144 79.0799 21.0727 78.6618C21.1922 78.5424 21.3714 78.3035 21.2519 78.1243C20.9533 77.7062 20.4755 77.8854 20.0574 77.9451C19.8185 77.9451 19.5199 77.9451 19.4004 77.7062C19.2213 77.4076 19.4004 77.2284 19.5796 77.0493C19.9977 76.5715 20.5352 76.1534 21.0727 75.795C25.1341 73.2866 29.494 71.3157 34.1526 70.2406C36.004 69.8225 37.2583 68.8669 37.7958 67.0154C37.8555 66.7765 37.975 66.5376 38.0944 66.2987C38.7514 64.0889 39.4681 61.8791 39.707 59.5498C39.7667 59.072 39.7667 58.5942 39.8264 58.1164C39.8862 57.34 40.1251 56.6233 40.782 56.1455C40.9612 56.026 41.1404 55.8468 41.2599 55.6677C42.0363 54.7121 42.2752 54.7121 42.8127 55.7871C44.0669 58.3553 45.3212 60.9832 46.6351 63.5514C46.6948 63.6111 46.6948 63.6708 46.7546 63.7306C47.1129 64.2681 47.4713 64.8056 47.7699 65.4029C48.3671 66.5376 49.3825 67.1946 50.5173 67.6127C51.0548 67.7919 51.5923 68.0308 52.1298 68.3294C54.6383 69.8225 56.8481 71.6143 58.8191 73.7644C59.8344 74.8992 61.0289 75.795 62.4026 76.3923C64.3735 77.2285 66.4042 77.4674 68.4348 76.6909C69.0918 76.452 69.8085 76.0937 69.9279 75.2575C67.5389 75.0783 66.5236 74.3019 65.7472 72.0324C64.8513 69.4045 63.3582 61.8193 63.4179 61.6402C63.4179 61.5804 63.4179 61.461 63.3582 61.4013C62.3428 56.8622 58.8191 54.4134 55.5342 51.6661C54.9369 51.1883 54.2799 50.7702 53.6827 50.2924C53.5035 50.1729 53.3243 50.0535 53.2049 49.8743C52.8465 49.3965 52.4285 48.7993 52.6674 48.2617C52.8465 47.7839 53.5632 48.0826 54.041 48.1423C57.087 48.3812 60.1927 48.3215 63.2387 48.2617C65.5083 48.0228 67.5389 47.3061 69.0918 45.5741C70.0474 44.5588 70.8238 43.424 71.4808 42.2295C72.078 41.1544 72.6156 40.0794 73.3323 39.0641C74.4671 37.4515 75.8407 36.3167 77.9908 36.0181C80.1409 35.7194 81.873 34.4652 83.1869 32.7332C84.0828 31.5984 84.3217 30.165 83.9633 28.6122ZM52.0104 41.0947C51.7715 41.8114 51.4131 42.4684 51.1145 43.1851C50.2186 44.9769 49.8005 46.8881 50.2783 48.859C50.4575 49.7549 50.2186 50.4118 49.5616 50.9494C48.0088 52.2036 46.3365 52.7411 44.4253 51.7855C42.8724 51.0091 41.3793 51.0091 39.8264 51.7855C37.975 52.6814 35.586 52.0841 34.3317 50.5313C33.9734 50.1132 33.8539 49.6354 33.9734 49.1576C34.5109 46.8881 33.9734 44.7977 32.958 42.767C32.5997 42.11 32.3011 41.4531 32.1816 40.7364C31.8233 39.1238 32.7192 37.6307 34.272 37.2126C34.9887 37.0334 35.7054 36.9737 36.4221 36.8542C37.4374 36.7348 38.1541 36.257 38.6319 35.3014C39.4084 33.868 40.6626 33.2707 42.1557 33.211C43.6489 33.2707 44.9031 33.7485 45.5601 35.0027C46.2768 36.3764 47.4115 36.8542 48.8449 36.9737C49.6811 37.0334 50.5173 37.1528 51.234 37.7501C52.1298 38.7057 52.4285 39.8405 52.0104 41.0947Z" fill="#71C3D0"/>
<path d="M27.1647 21.5647C29.7329 25.2677 32.4802 28.7317 34.7498 32.6139C33.0775 31.1804 31.2857 29.9262 29.494 28.672C28.7773 28.1942 28.0008 27.8358 27.4036 27.2983C26.5077 24.6704 25.2535 22.1022 24.7757 19.3549C24.7159 18.9368 24.477 18.3395 24.9549 18.1006C25.3729 17.8617 25.791 18.2798 26.1494 18.5187C27.7619 19.6535 29.1356 21.0869 30.569 22.4008C31.1663 22.8189 32.7788 24.3718 32.958 24.8496C32.958 24.9093 34.3317 29.5679 34.929 31.4791C34.9887 31.5985 35.0484 31.718 34.929 31.8374C34.8692 31.7777 34.8095 31.6583 34.7498 31.5985C34.5706 31.2999 34.3317 31.061 34.1525 30.7624C32.2413 27.7164 30.1509 24.9093 27.9411 22.1022C27.7619 21.8633 27.6425 21.4452 27.1647 21.5647Z" fill="#78AE56"/>
<path d="M51.7719 32.2554C51.7122 32.2554 51.6525 32.3152 51.5928 32.3152C51.5928 32.2554 51.5928 32.1957 51.6525 32.136C51.6525 32.1957 51.7122 32.1957 51.7719 32.2554Z" fill="#587F49"/>
<path d="M52.8463 31.9568C52.7866 32.0165 52.6671 32.1359 52.6074 31.9568C52.6074 31.897 52.6671 31.8373 52.7269 31.7776C52.7269 31.897 52.7866 31.9568 52.8463 31.9568Z" fill="#587F49"/>
<path d="M40.3639 39.4223C40.3639 39.1834 40.3639 38.9445 40.3639 38.7653C40.3639 37.9292 40.9015 37.3319 41.6779 37.2722C42.514 37.2125 43.1113 37.75 43.2307 38.6459C43.2905 39.2431 43.2905 39.8404 43.2905 40.4376C43.3502 41.0946 43.6488 41.3335 44.3058 41.1543C44.8433 41.0349 45.3211 40.8557 45.8586 40.7363C46.8142 40.4974 47.5907 40.9154 47.7698 41.7516C47.949 42.528 47.4712 43.2447 46.5753 43.4836C46.0378 43.6628 45.5003 43.7822 44.9628 43.9017C44.485 44.0212 44.3655 44.3795 44.5447 44.7976C44.7836 45.3351 45.0822 45.8129 45.3808 46.3504C45.7989 47.1866 45.56 48.0227 44.8433 48.3811C44.1266 48.7394 43.3502 48.5005 42.9321 47.7241C42.6932 47.306 42.4543 46.888 42.2751 46.4699C41.9765 45.9324 41.6779 45.8726 41.2598 46.3504C40.9612 46.7088 40.6626 47.0671 40.3042 47.4255C39.7069 48.0825 38.8708 48.2019 38.2735 47.6644C37.6166 47.1269 37.5568 46.2907 38.1541 45.574C38.5125 45.1559 38.8708 44.7379 39.1694 44.3198C39.4681 43.9017 39.4083 43.6031 38.9305 43.4239C38.4527 43.2447 37.9152 43.0655 37.4374 42.8266C36.6012 42.4683 36.2429 41.7516 36.5415 40.9752C36.8401 40.1987 37.6166 39.8404 38.5124 40.139C38.8708 40.2585 39.1694 40.4376 39.5278 40.5571C40.4236 40.9154 40.4834 40.8557 40.5431 39.9001C40.3639 39.8404 40.3639 39.4223 40.3639 39.4223Z" fill="#C677CE"/>
<path d="M102.937 28.5114C104.592 29.0136 105.891 29.8705 106.837 31.0818C107.812 32.2636 108.299 33.7113 108.299 35.4249C108.299 37.8476 107.413 39.901 105.64 41.5851C103.897 43.2692 101.799 44.1112 99.3472 44.1112H86.4951V13.9752H98.9041C101.15 13.9752 103.055 14.7877 104.621 16.4126C106.187 18.0376 106.97 19.9876 106.97 22.2626C106.97 25.2466 105.626 27.3296 102.937 28.5114ZM99.3472 40.3442C100.795 40.3442 102.021 39.8715 103.026 38.926C104.06 37.951 104.577 36.784 104.577 35.4249C104.577 34.0659 104.06 32.9136 103.026 31.9682C102.021 31.0227 100.795 30.55 99.3472 30.55H90.2621V40.3442H99.3472ZM90.2621 17.7422V26.7387H98.9041C100.086 26.7387 101.09 26.3103 101.918 25.4535C102.774 24.5671 103.203 23.5035 103.203 22.2626C103.203 21.0217 102.774 19.9581 101.918 19.0717C101.09 18.1854 100.086 17.7422 98.9041 17.7422H90.2621Z" fill="#354E36"/>
<path d="M122.458 44.776C119.444 44.776 116.874 43.7123 114.746 41.5851C112.619 39.4578 111.555 36.8874 111.555 33.8738C111.555 30.8602 112.619 28.2898 114.746 26.1625C116.874 24.0353 119.444 22.9717 122.458 22.9717C125.442 22.9717 127.997 24.0353 130.125 26.1625C132.281 28.3193 133.36 30.8898 133.36 33.8738C133.36 36.8579 132.281 39.4283 130.125 41.5851C127.997 43.7123 125.442 44.776 122.458 44.776ZM127.731 28.6C126.284 27.1228 124.526 26.3841 122.458 26.3841C120.389 26.3841 118.617 27.1228 117.139 28.6C115.692 30.0477 114.968 31.8057 114.968 33.8738C114.968 35.942 115.692 37.7147 117.139 39.1919C118.617 40.6397 120.389 41.3635 122.458 41.3635C124.526 41.3635 126.284 40.6397 127.731 39.1919C129.209 37.7147 129.947 35.942 129.947 33.8738C129.947 31.8057 129.209 30.0477 127.731 28.6Z" fill="#354E36"/>
<path d="M146.555 22.9717C146.643 22.9717 146.791 22.9864 146.998 23.016C147.205 23.016 147.352 23.016 147.441 23.016V26.4728C147.027 26.4137 146.732 26.3841 146.555 26.3841C144.959 26.3841 143.6 26.9603 142.477 28.1125C141.355 29.2352 140.793 30.5943 140.793 32.1897V44.1112H137.381V32.1897C137.381 29.6489 138.267 27.4773 140.04 25.675C141.842 23.8728 144.014 22.9717 146.555 22.9717Z" fill="#354E36"/>
<path d="M158.835 44.776C156.058 44.776 153.68 43.7123 151.7 41.5851C149.75 39.4578 148.775 36.8874 148.775 33.8738C148.775 30.8602 149.839 28.2898 151.966 26.1625C154.093 24.0353 156.664 22.9717 159.677 22.9717C162.662 22.9717 165.217 24.0353 167.344 26.1625C169.501 28.3193 170.58 30.8898 170.58 33.8738V44.1112H167.167V39.9453C166.251 41.4226 165.055 42.6044 163.577 43.4908C162.13 44.3476 160.549 44.776 158.835 44.776ZM164.951 28.6C163.504 27.1228 161.746 26.3841 159.677 26.3841C157.609 26.3841 155.837 27.1228 154.359 28.6C152.912 30.0477 152.188 31.8057 152.188 33.8738C152.188 35.942 152.912 37.7147 154.359 39.1919C155.837 40.6397 157.609 41.3635 159.677 41.3635C161.746 41.3635 163.504 40.6397 164.951 39.1919C166.429 37.7147 167.167 35.942 167.167 33.8738C167.167 31.8057 166.429 30.0477 164.951 28.6ZM157.55 19.2047L161.096 13.4434H164.641L160.387 19.2047H157.55Z" fill="#354E36"/>
<path d="M177.105 41.5851C175.155 39.4578 174.18 36.8874 174.18 33.8738C174.18 30.8602 175.244 28.2898 177.371 26.1625C179.498 24.0353 182.069 22.9717 185.082 22.9717C188.066 22.9717 190.622 24.0353 192.749 26.1625C194.906 28.3193 195.984 30.8898 195.984 33.8738V42.9589C195.984 45.9726 194.921 48.543 192.794 50.6702C190.725 52.7384 188.17 53.802 185.127 53.8611V50.493C187.136 50.493 188.894 49.7396 190.4 48.2328C191.848 46.8146 192.572 45.0567 192.572 42.9589V39.9453C191.656 41.4226 190.459 42.6044 188.982 43.4908C187.535 44.3476 185.954 44.776 184.24 44.776C181.463 44.776 179.085 43.7123 177.105 41.5851ZM190.356 28.6C188.908 27.1228 187.15 26.3841 185.082 26.3841C183.014 26.3841 181.241 27.1228 179.764 28.6C178.316 30.0477 177.593 31.8057 177.593 33.8738C177.593 35.942 178.316 37.7147 179.764 39.1919C181.241 40.6397 183.014 41.3635 185.082 41.3635C187.15 41.3635 188.908 40.6397 190.356 39.1919C191.833 37.7147 192.572 35.942 192.572 33.8738C192.572 31.8057 191.833 30.0477 190.356 28.6Z" fill="#354E36"/>
<path d="M210.487 44.776C207.473 44.776 204.903 43.7123 202.776 41.5851C200.649 39.4578 199.585 36.8874 199.585 33.8738C199.585 30.8602 200.649 28.2898 202.776 26.1625C204.903 24.0353 207.473 22.9717 210.487 22.9717C213.471 22.9717 216.027 24.0353 218.154 26.1625C220.311 28.3193 221.389 30.8898 221.389 33.8738C221.389 36.8579 220.311 39.4283 218.154 41.5851C216.027 43.7123 213.471 44.776 210.487 44.776ZM215.761 28.6C214.313 27.1228 212.555 26.3841 210.487 26.3841C208.419 26.3841 206.646 27.1228 205.169 28.6C203.721 30.0477 202.997 31.8057 202.997 33.8738C202.997 35.942 203.721 37.7147 205.169 39.1919C206.646 40.6397 208.419 41.3635 210.487 41.3635C212.555 41.3635 214.313 40.6397 215.761 39.1919C217.238 37.7147 217.977 35.942 217.977 33.8738C217.977 31.8057 217.238 30.0477 215.761 28.6ZM209.29 19.2047L212.836 13.4434H216.381L212.127 19.2047H209.29Z" fill="#354E36"/>
<path d="M91.612 69.7343H89.0106L86.9904 66.6624L83.877 69.9419L85.5651 60.3249H87.5715L86.9212 64.0471L90.422 60.3249H92.9543L88.5125 65.0296L91.612 69.7343Z" fill="#354E36"/>
<path d="M94.0449 67.1605C94.1187 67.3266 94.2156 67.4696 94.3355 67.5895C94.6768 67.9308 95.1242 68.1015 95.6777 68.1015C96.2497 68.1015 96.7617 67.9354 97.2137 67.6033L98.1546 69.0009C97.3152 69.6282 96.3834 69.9419 95.3595 69.9419C94.3263 69.9419 93.5053 69.6236 92.8964 68.9871C92.5736 68.6642 92.3522 68.3044 92.2322 67.9078C92.0939 67.4926 92.0708 67.036 92.1631 66.5379C92.3383 65.6061 92.7903 64.8082 93.5191 64.144C93.8512 63.8488 94.2433 63.6043 94.6953 63.4106C95.1381 63.2261 95.5855 63.1339 96.0375 63.1339C96.4711 63.1339 96.8816 63.2261 97.269 63.4106C97.6565 63.5951 97.9609 63.8396 98.1823 64.144C98.6989 64.8359 98.8742 65.6338 98.7081 66.5379C98.6897 66.6762 98.6343 66.8838 98.5421 67.1605H94.0449ZM94.2248 65.9152H96.8539C96.7893 65.6384 96.651 65.4124 96.4388 65.2372C96.2359 65.0619 95.9914 64.9742 95.7054 64.9742C95.4194 64.9742 95.1381 65.0619 94.8613 65.2372C94.5938 65.4124 94.3816 65.6384 94.2248 65.9152Z" fill="#354E36"/>
<path d="M102.334 63.9088C102.906 63.3922 103.529 63.1339 104.202 63.1339L103.856 65.0711C103.69 65.0065 103.533 64.9742 103.386 64.9742C103.044 64.9742 102.731 65.0942 102.445 65.334C102.159 65.5739 101.984 65.8691 101.919 66.2196L101.31 69.7343H99.4697L100.591 63.3414H102.431L102.334 63.9088Z" fill="#354E36"/>
<path d="M108.043 63.3414H109.496L109.178 65.1818H107.725L106.922 69.7343H105.082L105.885 65.1818H104.501L104.819 63.3414H106.203L106.424 62.0684L108.431 61.1551L108.043 63.3414Z" fill="#354E36"/>
<path d="M115.314 67.1605C115.388 67.3266 115.485 67.4696 115.605 67.5895C115.946 67.9308 116.394 68.1015 116.947 68.1015C117.519 68.1015 118.031 67.9354 118.483 67.6033L119.424 69.0009C118.585 69.6282 117.653 69.9419 116.629 69.9419C115.596 69.9419 114.775 69.6236 114.166 68.9871C113.843 68.6642 113.622 68.3044 113.502 67.9078C113.363 67.4926 113.34 67.036 113.433 66.5379C113.608 65.6061 114.06 64.8082 114.789 64.144C115.121 63.8488 115.513 63.6043 115.965 63.4106C116.408 63.2261 116.855 63.1339 117.307 63.1339C117.741 63.1339 118.151 63.2261 118.539 63.4106C118.926 63.5951 119.23 63.8396 119.452 64.144C119.968 64.8359 120.144 65.6338 119.978 66.5379C119.959 66.6762 119.904 66.8838 119.812 67.1605H115.314ZM116.892 61.9577L118.317 60.0896H120.116L118.331 61.9577H116.892ZM115.494 65.9152H118.123C118.059 65.6384 117.921 65.4124 117.708 65.2372C117.505 65.0619 117.261 64.9742 116.975 64.9742C116.689 64.9742 116.408 65.0619 116.131 65.2372C115.863 65.4124 115.651 65.6384 115.494 65.9152Z" fill="#354E36"/>
<path d="M125.575 66.524C125.713 66.8192 125.746 67.179 125.672 67.6033C125.543 68.286 125.151 68.8579 124.496 69.3192C123.905 69.7343 123.232 69.9419 122.475 69.9419C122.005 69.9419 121.576 69.8588 121.189 69.6928C120.764 69.5175 120.414 69.2777 120.137 68.9732L121.631 67.6172C121.908 67.9401 122.296 68.1015 122.794 68.1015C123.117 68.1015 123.389 68.0277 123.61 67.8801C123.739 67.7971 123.813 67.7048 123.831 67.6033V67.465L123.818 67.4511L123.652 67.3681C123.513 67.3312 123.287 67.2851 122.974 67.2297C122.374 67.1375 121.931 67.0083 121.645 66.8423C121.055 66.4917 120.829 65.9336 120.967 65.168C121.069 64.5222 121.392 64.0149 121.936 63.6459C122.397 63.3045 122.978 63.1339 123.679 63.1339C124.537 63.1339 125.248 63.3414 125.81 63.7566L124.51 65.2925C124.214 65.0803 123.827 64.9742 123.347 64.9742C123.08 64.9742 122.914 65.0065 122.849 65.0711C122.821 65.0803 122.808 65.1126 122.808 65.168C122.844 65.251 123.006 65.3294 123.292 65.4032C123.578 65.4678 123.896 65.537 124.247 65.6108C124.597 65.6753 124.837 65.7491 124.966 65.8322C125.261 65.9982 125.464 66.2288 125.575 66.524Z" fill="#354E36"/>
<path d="M132.499 67.7279H136.166L135.82 69.7343H130.147L131.793 60.3249H133.8L132.499 67.7279Z" fill="#354E36"/>
<path d="M142.467 63.3414H144.307L143.186 69.7343H141.346L141.429 69.25C140.792 69.7112 140.128 69.9419 139.436 69.9419C138.588 69.9419 137.914 69.6098 137.416 68.9456C136.927 68.2814 136.766 67.4788 136.932 66.5379C137.098 65.5969 137.545 64.7944 138.274 64.1302C139.003 63.466 139.792 63.1339 140.64 63.1339C141.323 63.1339 141.904 63.3645 142.384 63.8257L142.467 63.3414ZM139.035 67.6449C139.284 67.9493 139.625 68.1015 140.059 68.1015C140.493 68.1015 140.889 67.9493 141.249 67.6449C141.609 67.3404 141.826 66.9714 141.899 66.5379C141.973 66.1043 141.886 65.7353 141.637 65.4309C141.387 65.1265 141.046 64.9742 140.613 64.9742C140.188 64.9742 139.792 65.1265 139.423 65.4309C139.063 65.7353 138.846 66.1043 138.772 66.5379C138.698 66.9622 138.786 67.3312 139.035 67.6449Z" fill="#354E36"/>
<path d="M151.099 69.7343H148.553L147.128 67.8939L144.886 69.9419L146.782 59.2179H148.622L147.557 65.1956L149.591 63.3414H152.082L148.608 66.5379L151.099 69.7343Z" fill="#354E36"/>
<path d="M155.852 59.2179L155.035 63.8257C155.663 63.3645 156.327 63.1339 157.028 63.1339C157.877 63.1339 158.545 63.466 159.034 64.1302C159.523 64.7944 159.685 65.5969 159.519 66.5379C159.353 67.4788 158.905 68.2814 158.176 68.9456C157.457 69.6098 156.673 69.9419 155.824 69.9419C155.123 69.9419 154.542 69.7112 154.081 69.25L153.997 69.7343H152.157L154.011 59.2179H155.852ZM155.838 68.1015C156.262 68.1015 156.654 67.9493 157.014 67.6449C157.383 67.3404 157.604 66.9714 157.678 66.5379C157.752 66.1135 157.664 65.7491 157.415 65.4447C157.166 65.1311 156.825 64.9742 156.391 64.9742C155.958 64.9742 155.561 65.1265 155.201 65.4309C154.842 65.7353 154.625 66.1043 154.551 66.5379C154.477 66.9714 154.565 67.3404 154.814 67.6449C155.063 67.9493 155.404 68.1015 155.838 68.1015Z" fill="#354E36"/>
<path d="M162.367 67.1605C162.441 67.3266 162.538 67.4696 162.658 67.5895C162.999 67.9308 163.446 68.1015 164 68.1015C164.572 68.1015 165.084 67.9354 165.536 67.6033L166.477 69.0009C165.637 69.6282 164.705 69.9419 163.681 69.9419C162.648 69.9419 161.827 69.6236 161.218 68.9871C160.896 68.6642 160.674 68.3044 160.554 67.9078C160.416 67.4926 160.393 67.036 160.485 66.5379C160.66 65.6061 161.112 64.8082 161.841 64.144C162.173 63.8488 162.565 63.6043 163.017 63.4106C163.46 63.2261 163.908 63.1339 164.36 63.1339C164.793 63.1339 165.204 63.2261 165.591 63.4106C165.979 63.5951 166.283 63.8396 166.504 64.144C167.021 64.8359 167.196 65.6338 167.03 66.5379C167.012 66.6762 166.956 66.8838 166.864 67.1605H162.367ZM162.547 65.9152H165.176C165.111 65.6384 164.973 65.4124 164.761 65.2372C164.558 65.0619 164.313 64.9742 164.027 64.9742C163.741 64.9742 163.46 65.0619 163.183 65.2372C162.916 65.4124 162.704 65.6384 162.547 65.9152Z" fill="#354E36"/>
<path d="M170.656 63.9088C171.228 63.3922 171.851 63.1339 172.524 63.1339L172.178 65.0711C172.012 65.0065 171.855 64.9742 171.708 64.9742C171.366 64.9742 171.053 65.0942 170.767 65.334C170.481 65.5739 170.306 65.8691 170.241 66.2196L169.632 69.7343H167.792L168.913 63.3414H170.753L170.656 63.9088Z" fill="#354E36"/>
<path d="M174.245 67.1605C174.319 67.3266 174.416 67.4696 174.536 67.5895C174.877 67.9308 175.324 68.1015 175.878 68.1015C176.45 68.1015 176.962 67.9354 177.414 67.6033L178.355 69.0009C177.515 69.6282 176.583 69.9419 175.559 69.9419C174.526 69.9419 173.705 69.6236 173.096 68.9871C172.774 68.6642 172.552 68.3044 172.432 67.9078C172.294 67.4926 172.271 67.036 172.363 66.5379C172.538 65.6061 172.99 64.8082 173.719 64.144C174.051 63.8488 174.443 63.6043 174.895 63.4106C175.338 63.2261 175.785 63.1339 176.237 63.1339C176.671 63.1339 177.082 63.2261 177.469 63.4106C177.856 63.5951 178.161 63.8396 178.382 64.144C178.899 64.8359 179.074 65.6338 178.908 66.5379C178.89 66.6762 178.834 66.8838 178.742 67.1605H174.245ZM174.425 65.9152H177.054C176.989 65.6384 176.851 65.4124 176.639 65.2372C176.436 65.0619 176.191 64.9742 175.905 64.9742C175.619 64.9742 175.338 65.0619 175.061 65.2372C174.794 65.4124 174.582 65.6384 174.425 65.9152Z" fill="#354E36"/>
<path d="M186.436 66.2196L185.827 69.7343H183.987L184.596 66.2196C184.66 65.8783 184.591 65.5877 184.388 65.3479C184.195 65.0988 183.927 64.9742 183.586 64.9742C183.244 64.9742 182.931 65.0942 182.645 65.334C182.359 65.5739 182.183 65.8691 182.119 66.2196L181.51 69.7343H179.67L180.791 63.3414H182.631L182.534 63.9088C183.106 63.3922 183.729 63.1339 184.402 63.1339C185.112 63.1339 185.666 63.4383 186.063 64.0471C186.459 64.6468 186.584 65.3709 186.436 66.2196Z" fill="#354E36"/>
<path d="M193.861 59.2179H195.701L193.847 69.7343H192.006L192.089 69.25C191.453 69.7112 190.789 69.9419 190.097 69.9419C189.248 69.9419 188.575 69.6098 188.077 68.9456C187.588 68.2814 187.426 67.4788 187.592 66.5379C187.758 65.5969 188.206 64.7944 188.934 64.1302C189.663 63.466 190.452 63.1339 191.301 63.1339C191.983 63.1339 192.564 63.3645 193.044 63.8257L193.861 59.2179ZM189.696 67.6449C189.945 67.9493 190.286 68.1015 190.72 68.1015C191.153 68.1015 191.55 67.9493 191.91 67.6449C192.269 67.3404 192.486 66.9714 192.56 66.5379C192.634 66.1043 192.546 65.7353 192.297 65.4309C192.048 65.1265 191.707 64.9742 191.273 64.9742C190.849 64.9742 190.452 65.1265 190.083 65.4309C189.723 65.7353 189.506 66.1043 189.433 66.5379C189.359 66.9622 189.446 67.3312 189.696 67.6449Z" fill="#354E36"/>
<path d="M197.636 67.1605C197.71 67.3266 197.807 67.4696 197.927 67.5895C198.268 67.9308 198.715 68.1015 199.269 68.1015C199.841 68.1015 200.353 67.9354 200.805 67.6033L201.746 69.0009C200.906 69.6282 199.975 69.9419 198.951 69.9419C197.917 69.9419 197.096 69.6236 196.488 68.9871C196.165 68.6642 195.943 68.3044 195.823 67.9078C195.685 67.4926 195.662 67.036 195.754 66.5379C195.929 65.6061 196.381 64.8082 197.11 64.144C197.442 63.8488 197.834 63.6043 198.286 63.4106C198.729 63.2261 199.177 63.1339 199.629 63.1339C200.062 63.1339 200.473 63.2261 200.86 63.4106C201.248 63.5951 201.552 63.8396 201.773 64.144C202.29 64.8359 202.465 65.6338 202.299 66.5379C202.281 66.6762 202.225 66.8838 202.133 67.1605H197.636ZM197.816 65.9152H200.445C200.38 65.6384 200.242 65.4124 200.03 65.2372C199.827 65.0619 199.582 64.9742 199.297 64.9742C199.011 64.9742 198.729 65.0619 198.452 65.2372C198.185 65.4124 197.973 65.6384 197.816 65.9152Z" fill="#354E36"/>
<path d="M205.934 67.8939H208.715L208.397 69.7343H202.46L205.837 65.1818H204.01L204.328 63.3414H209.31L205.934 67.8939Z" fill="#354E36"/>
<path d="M211.419 67.1605C211.493 67.3266 211.59 67.4696 211.71 67.5895C212.051 67.9308 212.499 68.1015 213.052 68.1015C213.624 68.1015 214.136 67.9354 214.588 67.6033L215.529 69.0009C214.69 69.6282 213.758 69.9419 212.734 69.9419C211.701 69.9419 210.88 69.6236 210.271 68.9871C209.948 68.6642 209.727 68.3044 209.607 67.9078C209.468 67.4926 209.445 67.036 209.537 66.5379C209.713 65.6061 210.165 64.8082 210.894 64.144C211.226 63.8488 211.618 63.6043 212.07 63.4106C212.512 63.2261 212.96 63.1339 213.412 63.1339C213.845 63.1339 214.256 63.2261 214.643 63.4106C215.031 63.5951 215.335 63.8396 215.557 64.144C216.073 64.8359 216.249 65.6338 216.083 66.5379C216.064 66.6762 216.009 66.8838 215.916 67.1605H211.419ZM212.997 61.9577L214.422 60.0896H216.221L214.436 61.9577H212.997ZM211.599 65.9152H214.228C214.164 65.6384 214.025 65.4124 213.813 65.2372C213.61 65.0619 213.366 64.9742 213.08 64.9742C212.794 64.9742 212.512 65.0619 212.236 65.2372C211.968 65.4124 211.756 65.6384 211.599 65.9152Z" fill="#354E36"/>
<path d="M221.68 66.524C221.818 66.8192 221.851 67.179 221.777 67.6033C221.648 68.286 221.256 68.8579 220.601 69.3192C220.01 69.7343 219.337 69.9419 218.58 69.9419C218.11 69.9419 217.681 69.8588 217.293 69.6928C216.869 69.5175 216.519 69.2777 216.242 68.9732L217.736 67.6172C218.013 67.9401 218.4 68.1015 218.899 68.1015C219.221 68.1015 219.494 68.0277 219.715 67.8801C219.844 67.7971 219.918 67.7048 219.936 67.6033V67.465L219.923 67.4511L219.756 67.3681C219.618 67.3312 219.392 67.2851 219.078 67.2297C218.479 67.1375 218.036 67.0083 217.75 66.8423C217.16 66.4917 216.934 65.9336 217.072 65.168C217.173 64.5222 217.496 64.0149 218.041 63.6459C218.502 63.3045 219.083 63.1339 219.784 63.1339C220.642 63.1339 221.352 63.3414 221.915 63.7566L220.614 65.2925C220.319 65.0803 219.932 64.9742 219.452 64.9742C219.185 64.9742 219.018 65.0065 218.954 65.0711C218.926 65.0803 218.912 65.1126 218.912 65.168C218.949 65.251 219.111 65.3294 219.397 65.4032C219.683 65.4678 220.001 65.537 220.351 65.6108C220.702 65.6753 220.942 65.7491 221.071 65.8322C221.366 65.9982 221.569 66.2288 221.68 66.524Z" fill="#354E36"/>
</svg>
