<svg width="126" height="45" viewBox="0 0 126 45" fill="none" xmlns="http://www.w3.org/2000/svg">
<path d="M13.3805 31.553C12.3638 31.5191 11.4488 31.9257 10.466 32.0952C9.58487 32.2307 8.73764 32.4341 7.85651 32.4341C7.65318 32.4341 7.44984 32.4341 7.34818 32.2646C7.21262 32.0613 7.38207 31.858 7.51762 31.6885C8.29707 30.5702 9.44931 29.9263 10.5677 29.2485C11.2793 28.8418 12.0588 28.5029 12.6688 27.9268C13.9566 28.0624 15.2783 27.9946 16.5661 27.7574C14.5327 28.7063 12.5332 29.689 10.6354 30.8752C11.3132 30.6041 11.9571 30.2991 12.6349 29.9941C14.0921 29.2824 15.5155 28.5029 17.0405 27.8929C17.0744 27.9268 17.1083 27.9607 17.1422 27.9607C16.5322 28.7063 15.9222 29.384 15.1427 29.9602C14.5666 30.4007 14.0582 30.8752 13.6177 31.4513C13.516 31.5191 13.4821 31.553 13.3805 31.553Z" fill="#78AE56"/>
<path d="M25.7502 35.5181C25.7163 35.8231 25.6824 36.0942 25.6485 36.3992C25.6485 36.467 25.6485 36.5348 25.6146 36.6026C25.4113 38.0598 25.2079 39.4832 25.0046 40.9404C24.9368 41.381 24.9368 41.8215 24.7335 42.2621C24.6318 42.4993 24.5302 42.7365 24.259 42.7365C23.954 42.7365 23.8524 42.4993 23.7846 42.2621C23.4118 41.3132 23.2763 40.3304 23.0729 39.3476C22.8696 38.3987 22.8357 37.4159 22.5307 36.467C22.4968 36.3654 22.5307 36.2637 22.5307 36.1281C22.5307 35.8909 22.5646 35.6537 22.5985 35.4165C22.7679 34.7048 22.9035 33.9592 22.9035 33.2475C22.9035 32.6036 23.1746 32.1631 23.7507 31.8581C23.9879 34.6031 24.0896 37.3143 24.2251 40.0254C24.3607 37.382 24.259 34.7048 24.0557 32.0275C24.1235 32.0614 24.1574 32.0953 24.1913 32.1631C24.6657 33.112 25.1402 34.0948 25.6146 35.0437C25.7163 35.1792 25.7163 35.3487 25.7502 35.5181Z" fill="#78AE56"/>
<path d="M36.7641 31.7565C36.7641 31.7904 36.7979 31.7904 36.7979 31.8243L36.7641 31.7565ZM36.3913 31.4515C34.7646 30.2992 33.104 29.1809 31.3418 28.1981C31.0707 28.0287 30.7657 27.8931 30.5284 27.7237C31.3079 27.7237 32.0873 27.7237 32.8668 27.7237C33.2057 27.7237 33.5107 27.7575 33.7479 27.9948C35.4763 29.3165 37.2724 30.5704 38.8991 31.9937C39.1702 32.2309 39.4752 32.502 39.7124 32.807C39.9496 33.1459 39.8819 33.3154 39.4413 33.3493C38.628 33.417 37.8485 33.2476 37.0691 33.112C37.0013 33.112 35.7474 32.8409 35.7474 32.8409H35.7135C35.6796 32.807 35.6118 32.807 35.5779 32.7731C35.5101 32.7393 35.4424 32.7393 35.3746 32.7054C35.1374 32.4004 34.9001 32.0615 34.629 31.7565C33.5107 30.4687 32.1551 29.4181 30.7996 28.4353C30.5962 28.2998 30.359 28.1642 30.2573 27.7914C31.2401 28.3676 32.1551 28.9098 33.0362 29.452" fill="#78AE56"/>
<path d="M31.4436 13.7951C32.3247 13.0495 33.2059 12.2701 34.087 11.4906C34.3242 11.2873 34.5953 11.084 34.8664 10.9484C35.2731 10.779 35.5781 10.9484 35.6798 11.389C35.7476 11.7618 35.612 12.1006 35.4425 12.4395C34.9342 13.3884 34.4259 14.3712 33.9514 15.3201C33.8159 15.5573 33.6803 15.7946 33.5447 16.0318C33.4431 16.2012 33.4092 16.4385 33.172 16.5062C32.0197 16.8451 31.0031 17.489 29.9525 18.099C29.9186 18.0651 29.8847 18.0313 29.8847 17.9974C31.0369 16.3029 32.4942 14.7779 33.6464 13.0834C33.2398 13.3207 33.0025 13.6934 32.7314 13.9984C31.5453 15.354 30.4608 16.8113 29.3764 18.2346C29.3425 18.2007 29.3425 18.2007 29.3086 18.1668C29.5797 17.3535 29.9525 16.574 30.1558 15.7268C30.2914 15.1168 30.393 14.5068 31.0031 14.134C31.0031 14.1679 31.3081 13.9307 31.4436 13.7951Z" fill="#78AE56"/>
<path d="M13.3466 32.4342C13.3127 32.468 13.3127 32.502 13.2788 32.5358C13.3127 32.502 13.3466 32.468 13.3466 32.4342Z" fill="#E1F2F1"/>
<path d="M26.4956 36.0602C26.5295 36.0941 26.5295 36.128 26.5634 36.1619C26.5295 36.1619 26.4956 36.0941 26.4956 36.0602Z" fill="#E1F2F1"/>
<path d="M9.72021 26.7746C9.7541 26.8085 9.78799 26.8085 9.85577 26.8424C9.78799 26.8085 9.7541 26.7746 9.72021 26.7746Z" fill="#E1F2F1"/>
<path d="M47.6425 16.2351C47.5747 15.8962 47.3713 15.7268 46.9986 15.8623C47.2358 16.3368 47.1341 16.7773 46.6258 17.3196C45.8802 18.099 44.9313 18.2007 43.9485 18.0651C42.7285 17.6923 35.2729 16.3707 34.7984 16.4723L34.2223 16.5401C34.1545 16.5401 34.1206 16.5401 34.0529 16.574C31.8501 17.1162 30.0539 18.3701 28.2917 19.7257C29.2745 17.5907 30.0878 15.4218 30.2912 13.0834C30.2912 12.8462 30.3251 12.6428 30.3251 12.4056C30.3251 12.2023 30.3251 11.4906 30.2912 11.3212C30.2573 11.0161 29.3084 8.50835 28.6645 8.13557C28.495 8.0339 28.3256 7.86445 28.19 7.76278C26.97 6.74611 26.0211 5.66165 26.0889 3.9333C26.1228 3.01829 25.9195 2.10329 25.445 1.28995C24.9706 0.476604 24.2589 0.0360377 23.3439 0.00214844C22.8355 -0.0317408 22.4966 0.341043 22.5983 0.713825C22.6322 0.815492 22.6661 0.917162 22.7678 0.917162C22.9033 0.951051 22.9033 0.849384 22.9372 0.747716C23.0389 0.408823 23.2083 0.578268 23.3439 0.713825C23.5133 0.883271 23.5472 1.12049 23.5472 1.35772C23.5472 2.23884 23.31 3.05218 22.8355 3.76386C21.7511 5.42443 20.5988 7.05111 19.6838 8.84724C18.5316 11.7617 18.9722 14.6084 19.955 17.4551C20.1922 18.1668 20.4633 18.8446 20.7683 19.4885C20.8361 19.5901 21.0055 19.7596 20.8022 19.8612C20.6666 19.9629 20.565 19.7596 20.4633 19.6579C19.3788 18.5396 18.1588 17.5907 16.871 16.7096C16.1932 16.2351 15.4816 15.8284 14.7699 15.354C14.7699 15.354 13.9904 15.0151 13.8888 15.0151C12.1943 14.4729 10.7032 14.7779 9.38151 15.964C9.00872 16.269 8.70373 16.6418 8.43261 17.0484C7.82261 17.9973 6.94148 18.404 5.82314 18.2684C4.02701 18.0312 2.40032 17.3873 0.841414 16.5062C0.705857 16.4045 0.536413 16.3368 0.366966 16.269C0.265299 16.2351 0.0958524 16.2012 0.0280739 16.3368C-0.0397046 16.4384 0.028078 16.5401 0.0958565 16.6418C0.197524 16.7434 0.29919 16.8451 0.400858 16.9468C1.04475 17.4551 1.68865 17.9973 2.33255 18.5057C2.807 18.8785 3.28145 19.1835 3.65423 19.6918C4.63701 21.0474 5.65369 22.4029 6.73815 23.6907C7.65316 24.7752 8.50038 25.9274 9.68651 26.7747C9.7204 26.8085 9.75428 26.8085 9.82206 26.8424C9.85595 26.8424 9.85596 26.8424 9.88984 26.8763C12.5332 27.9947 15.2443 27.7913 18.0572 27.1813C17.7183 27.7235 17.3794 28.0963 17.0405 28.4691C16.3627 29.2147 15.651 29.9602 14.8038 30.5364C14.126 31.0108 13.7871 31.7225 13.3804 32.3664C13.3804 32.4003 13.3804 32.4341 13.3466 32.4341C13.3127 32.468 13.3127 32.5019 13.2788 32.5358C13.1093 32.9425 12.9738 33.3153 12.8043 33.722C12.8043 33.7558 11.9232 36.8059 11.8215 36.8736C11.7876 36.9075 10.9404 38.8731 10.8726 38.907C10.7371 39.2798 10.5676 39.6864 10.4321 40.0592C10.1271 40.8387 9.7204 41.5504 9.55095 42.3976C9.31373 43.6515 9.95762 44.702 11.1776 44.9732C11.5504 45.0748 11.7538 44.8715 11.9571 44.6343C12.0249 44.5665 12.1265 44.4309 12.0588 44.3293C11.8893 44.0921 11.6182 44.1937 11.381 44.2276C11.2454 44.2276 11.076 44.2276 11.0082 44.092C10.9065 43.9226 11.0082 43.8209 11.1099 43.7193C11.3471 43.4482 11.6521 43.2109 11.9571 43.0076C14.2616 41.5842 16.7355 40.4659 19.3788 39.8559C20.4294 39.6187 21.1411 39.0764 21.4461 38.0259C21.48 37.8903 21.5477 37.7548 21.6155 37.6192C21.9883 36.3653 22.395 35.1114 22.5305 33.7897C22.5644 33.5186 22.5644 33.2475 22.5983 32.9764C22.6322 32.5358 22.7678 32.1292 23.1405 31.858C23.2422 31.7903 23.3439 31.6886 23.4116 31.5869C23.8522 31.0447 23.9878 31.0447 24.2928 31.6547C25.0044 33.1119 25.7161 34.6031 26.4617 36.0603C26.4956 36.0942 26.4956 36.1281 26.5295 36.162C26.7328 36.467 26.9361 36.772 27.1056 37.1109C27.4445 37.7548 28.0206 38.1275 28.6645 38.3648C28.9695 38.4664 29.2745 38.602 29.5795 38.7714C31.0028 39.6187 32.2567 40.6354 33.3751 41.8554C33.9512 42.4993 34.629 43.0076 35.4084 43.3465C36.5268 43.8209 37.679 43.9565 38.8313 43.5159C39.204 43.3804 39.6107 43.1771 39.6785 42.7026C38.3229 42.6009 37.7468 42.1604 37.3062 40.8726C36.7979 39.3814 35.9507 35.0775 35.9846 34.9758C35.9846 34.9419 35.9846 34.8742 35.9507 34.8403C35.3745 32.2647 33.3751 30.8753 31.5112 29.3164C31.1723 29.0452 30.7995 28.808 30.4606 28.5369C30.3589 28.4691 30.2573 28.4013 30.1895 28.2997C29.9862 28.0286 29.7489 27.6897 29.8845 27.3847C29.9862 27.1135 30.3928 27.283 30.6639 27.3169C32.3923 27.4524 34.1545 27.4186 35.8829 27.3847C37.1707 27.2491 38.3229 26.8424 39.204 25.8596C39.7463 25.2835 40.1868 24.6396 40.5596 23.9618C40.8985 23.3518 41.2035 22.7418 41.6102 22.1657C42.2541 21.2507 43.0335 20.6068 44.2535 20.4374C45.4735 20.2679 46.4563 19.5562 47.2019 18.5735C47.7102 17.9296 47.8458 17.1162 47.6425 16.2351ZM29.5117 23.3518C29.3762 23.7585 29.1728 24.1313 29.0034 24.538C28.495 25.5546 28.2578 26.6391 28.5289 27.7574C28.6306 28.2658 28.495 28.6386 28.1223 28.9436C27.2411 29.6552 26.2922 29.9602 25.2078 29.418C24.3267 28.9775 23.4794 28.9775 22.5983 29.418C21.5477 29.9264 20.1922 29.5874 19.4805 28.7063C19.2772 28.4691 19.2094 28.198 19.2772 27.9269C19.5822 26.6391 19.2772 25.453 18.701 24.3007C18.4977 23.9279 18.3283 23.5552 18.2605 23.1485C18.0572 22.2335 18.5655 21.3863 19.4466 21.149C19.8533 21.0474 20.2599 21.0135 20.6666 20.9457C21.2427 20.8779 21.6494 20.6068 21.9205 20.0646C22.3611 19.2512 23.0728 18.9123 23.92 18.8784C24.7672 18.9123 25.4789 19.1835 25.8517 19.8951C26.2584 20.6746 26.9022 20.9457 27.7156 21.0135C28.19 21.0474 28.6645 21.1152 29.0712 21.454C29.5795 21.9624 29.7489 22.6063 29.5117 23.3518Z" fill="#71C3D0"/>
<path d="M15.4136 12.2361C16.8708 14.3373 18.4297 16.3028 19.7175 18.5056C18.7686 17.6923 17.752 16.9806 16.7353 16.269C16.3286 15.9978 15.888 15.7945 15.5492 15.4895C15.0408 13.9984 14.3291 12.5411 14.058 10.9822C14.0241 10.745 13.8886 10.4061 14.1597 10.2706C14.3969 10.135 14.6341 10.3722 14.8375 10.5078C15.7525 11.1517 16.5319 11.965 17.3453 12.7106C17.6842 12.9478 18.5992 13.8289 18.7009 14.1C18.7009 14.1339 19.4803 16.7773 19.8192 17.8617C19.8531 17.9295 19.887 17.9973 19.8192 18.0651C19.7853 18.0312 19.7514 17.9634 19.7175 17.9295C19.6159 17.7601 19.4803 17.6245 19.3786 17.4551C18.2942 15.7267 17.1081 14.1339 15.8542 12.5411C15.7525 12.4056 15.6847 12.1684 15.4136 12.2361Z" fill="#78AE56"/>
<path d="M29.3761 18.3024C29.3422 18.3024 29.3083 18.3363 29.2744 18.3363C29.2744 18.3024 29.2744 18.2685 29.3083 18.2346C29.3422 18.2685 29.3422 18.2685 29.3761 18.3024Z" fill="#587F49"/>
<path d="M29.9861 18.1329C29.9523 18.1668 29.8845 18.2345 29.8506 18.1329C29.8506 18.099 29.8845 18.0651 29.9184 18.0312C29.9184 18.099 29.9523 18.1329 29.9861 18.1329Z" fill="#587F49"/>
<path d="M22.9032 22.3691C22.9032 22.2335 22.9032 22.098 22.9032 21.9963C22.9032 21.5218 23.2082 21.183 23.6488 21.1491C24.1232 21.1152 24.4621 21.4202 24.5299 21.9285C24.5638 22.2674 24.5638 22.6063 24.5638 22.9452C24.5977 23.318 24.7671 23.4535 25.1399 23.3519C25.4449 23.2841 25.716 23.1824 26.021 23.1146C26.5633 22.9791 27.0038 23.2163 27.1055 23.6908C27.2072 24.1313 26.936 24.538 26.4277 24.6736C26.1227 24.7752 25.8177 24.843 25.5127 24.9108C25.2416 24.9786 25.1738 25.1819 25.2755 25.4191C25.411 25.7241 25.5805 25.9952 25.7499 26.3002C25.9871 26.7747 25.8516 27.2491 25.4449 27.4525C25.0382 27.6558 24.5977 27.5202 24.3605 27.0797C24.2249 26.8425 24.0893 26.6052 23.9877 26.368C23.8182 26.063 23.6488 26.0291 23.4116 26.3002C23.2421 26.5036 23.0727 26.7069 22.8693 26.9102C22.5304 27.283 22.056 27.3508 21.7171 27.0458C21.3443 26.7408 21.3104 26.2663 21.6493 25.8597C21.8527 25.6225 22.056 25.3852 22.2254 25.148C22.3949 24.9108 22.361 24.7413 22.0899 24.6397C21.8188 24.538 21.5138 24.4363 21.2426 24.3008C20.7682 24.0974 20.5649 23.6908 20.7343 23.2502C20.9038 22.8096 21.3443 22.6063 21.8527 22.7757C22.056 22.8435 22.2254 22.9452 22.4288 23.013C22.9371 23.2163 22.971 23.1824 23.0049 22.6402C22.9032 22.6063 22.9032 22.3691 22.9032 22.3691Z" fill="#C677CE"/>
<path d="M58.2706 23.0513C59.2114 23.3365 59.9506 23.8231 60.4882 24.5109C61.0426 25.182 61.3198 26.004 61.3198 26.9771C61.3198 28.3528 60.8158 29.5188 59.8078 30.4751C58.8166 31.4313 57.6238 31.9095 56.2294 31.9095H48.9214V14.7971H55.9774C57.2542 14.7971 58.3378 15.2585 59.2282 16.1812C60.1186 17.1039 60.5638 18.2112 60.5638 19.503C60.5638 21.1975 59.7994 22.3802 58.2706 23.0513ZM56.2294 29.7704C57.0526 29.7704 57.7498 29.502 58.321 28.9651C58.909 28.4115 59.203 27.7488 59.203 26.9771C59.203 26.2054 58.909 25.5511 58.321 25.0142C57.7498 24.4773 57.0526 24.2089 56.2294 24.2089H51.0634V29.7704H56.2294ZM51.0634 16.9362V22.0447H55.9774C56.6494 22.0447 57.2206 21.8014 57.691 21.3149C58.1782 20.8116 58.4218 20.2076 58.4218 19.503C58.4218 18.7984 58.1782 18.1944 57.691 17.6911C57.2206 17.1878 56.6494 16.9362 55.9774 16.9362H51.0634Z" fill="#FAF9F5"/>
<path d="M69.3704 32.287C67.6568 32.287 66.1952 31.683 64.9856 30.4751C63.776 29.2671 63.1712 27.8075 63.1712 26.0963C63.1712 24.3851 63.776 22.9255 64.9856 21.7176C66.1952 20.5096 67.6568 19.9057 69.3704 19.9057C71.0672 19.9057 72.5204 20.5096 73.73 21.7176C74.9564 22.9423 75.5696 24.4019 75.5696 26.0963C75.5696 27.7908 74.9564 29.2504 73.73 30.4751C72.5204 31.683 71.0672 32.287 69.3704 32.287ZM72.3692 23.1016C71.546 22.2628 70.5464 21.8434 69.3704 21.8434C68.1944 21.8434 67.1864 22.2628 66.3464 23.1016C65.5232 23.9237 65.1116 24.9219 65.1116 26.0963C65.1116 27.2707 65.5232 28.2773 66.3464 29.1161C67.1864 29.9382 68.1944 30.3492 69.3704 30.3492C70.5464 30.3492 71.546 29.9382 72.3692 29.1161C73.2092 28.2773 73.6292 27.2707 73.6292 26.0963C73.6292 24.9219 73.2092 23.9237 72.3692 23.1016Z" fill="#FAF9F5"/>
<path d="M83.0725 19.9057C83.1229 19.9057 83.2069 19.914 83.3245 19.9308C83.4421 19.9308 83.5261 19.9308 83.5765 19.9308V21.8937C83.3413 21.8602 83.1733 21.8434 83.0725 21.8434C82.1653 21.8434 81.3925 22.1705 80.7541 22.8248C80.1157 23.4623 79.7965 24.2341 79.7965 25.14V31.9095H77.8561V25.14C77.8561 23.6972 78.3601 22.4641 79.3681 21.4407C80.3929 20.4174 81.6277 19.9057 83.0725 19.9057Z" fill="#FAF9F5"/>
<path d="M90.0557 32.287C88.4765 32.287 87.1241 31.683 85.9985 30.4751C84.8897 29.2671 84.3353 27.8075 84.3353 26.0963C84.3353 24.3851 84.9401 22.9255 86.1497 21.7176C87.3593 20.5096 88.8209 19.9057 90.5345 19.9057C92.2313 19.9057 93.6845 20.5096 94.8941 21.7176C96.1205 22.9423 96.7337 24.4019 96.7337 26.0963V31.9095H94.7933V29.544C94.2725 30.3828 93.5921 31.0539 92.7521 31.5572C91.9289 32.0437 91.0301 32.287 90.0557 32.287ZM93.5333 23.1016C92.7101 22.2628 91.7105 21.8434 90.5345 21.8434C89.3585 21.8434 88.3505 22.2628 87.5105 23.1016C86.6873 23.9237 86.2757 24.9219 86.2757 26.0963C86.2757 27.2707 86.6873 28.2773 87.5105 29.1161C88.3505 29.9382 89.3585 30.3492 90.5345 30.3492C91.7105 30.3492 92.7101 29.9382 93.5333 29.1161C94.3733 28.2773 94.7933 27.2707 94.7933 26.0963C94.7933 24.9219 94.3733 23.9237 93.5333 23.1016ZM89.3249 17.7666L91.3409 14.4951H93.3569L90.9377 17.7666H89.3249Z" fill="#FAF9F5"/>
<path d="M100.444 30.4751C99.3354 29.2671 98.781 27.8075 98.781 26.0963C98.781 24.3851 99.3858 22.9255 100.595 21.7176C101.805 20.5096 103.267 19.9057 104.98 19.9057C106.677 19.9057 108.13 20.5096 109.34 21.7176C110.566 22.9423 111.179 24.4019 111.179 26.0963V31.2552C111.179 32.9664 110.575 34.426 109.365 35.6339C108.189 36.8083 106.736 37.4123 105.005 37.4458V35.5333C106.148 35.5333 107.147 35.1055 108.004 34.2499C108.827 33.4446 109.239 32.4463 109.239 31.2552V29.544C108.718 30.3828 108.038 31.0539 107.198 31.5572C106.375 32.0437 105.476 32.287 104.501 32.287C102.922 32.287 101.57 31.683 100.444 30.4751ZM107.979 23.1016C107.156 22.2628 106.156 21.8434 104.98 21.8434C103.804 21.8434 102.796 22.2628 101.956 23.1016C101.133 23.9237 100.721 24.9219 100.721 26.0963C100.721 27.2707 101.133 28.2773 101.956 29.1161C102.796 29.9382 103.804 30.3492 104.98 30.3492C106.156 30.3492 107.156 29.9382 107.979 29.1161C108.819 28.2773 109.239 27.2707 109.239 26.0963C109.239 24.9219 108.819 23.9237 107.979 23.1016Z" fill="#FAF9F5"/>
<path d="M119.426 32.287C117.712 32.287 116.251 31.683 115.041 30.4751C113.831 29.2671 113.227 27.8075 113.227 26.0963C113.227 24.3851 113.831 22.9255 115.041 21.7176C116.251 20.5096 117.712 19.9057 119.426 19.9057C121.123 19.9057 122.576 20.5096 123.785 21.7176C125.012 22.9423 125.625 24.4019 125.625 26.0963C125.625 27.7908 125.012 29.2504 123.785 30.4751C122.576 31.683 121.123 32.287 119.426 32.287ZM122.425 23.1016C121.601 22.2628 120.602 21.8434 119.426 21.8434C118.25 21.8434 117.242 22.2628 116.402 23.1016C115.579 23.9237 115.167 24.9219 115.167 26.0963C115.167 27.2707 115.579 28.2773 116.402 29.1161C117.242 29.9382 118.25 30.3492 119.426 30.3492C120.602 30.3492 121.601 29.9382 122.425 29.1161C123.265 28.2773 123.685 27.2707 123.685 26.0963C123.685 24.9219 123.265 23.9237 122.425 23.1016ZM118.745 17.7666L120.761 14.4951H122.777L120.358 17.7666H118.745Z" fill="#FAF9F5"/>
</svg>
