<svg width="224" height="224" viewBox="0 0 224 224" fill="none" xmlns="http://www.w3.org/2000/svg">
<path d="M12.5317 223.664H8.31711L5.04407 218.687L0 224L2.73501 208.419H5.98563L4.93198 214.45L10.6038 208.419H14.7063L7.51006 216.042L12.5317 223.664Z" fill="#354E36"/>
<path d="M16.4733 219.494C16.5928 219.763 16.7498 219.995 16.9441 220.189C17.497 220.742 18.2219 221.018 19.1186 221.018C20.0452 221.018 20.8747 220.749 21.607 220.211L23.1314 222.476C21.7714 223.492 20.2619 224 18.603 224C16.9291 224 15.599 223.484 14.6126 222.453C14.0895 221.93 13.7308 221.347 13.5365 220.705C13.3123 220.032 13.275 219.292 13.4244 218.485C13.7084 216.976 14.4407 215.683 15.6214 214.607C16.1594 214.129 16.7946 213.733 17.5269 213.419C18.2443 213.12 18.9692 212.97 19.7015 212.97C20.4039 212.97 21.069 213.12 21.6967 213.419C22.3244 213.718 22.8176 214.114 23.1763 214.607C24.0132 215.728 24.2972 217.021 24.0282 218.485C23.9983 218.709 23.9086 219.046 23.7592 219.494H16.4733ZM16.7647 217.476H21.0241C20.9195 217.028 20.6954 216.662 20.3516 216.378C20.0228 216.094 19.6268 215.952 19.1634 215.952C18.7001 215.952 18.2443 216.094 17.7959 216.378C17.3625 216.662 17.0188 217.028 16.7647 217.476Z" fill="#354E36"/>
<path d="M29.9026 214.226C30.8292 213.389 31.838 212.97 32.929 212.97L32.3686 216.109C32.0996 216.004 31.8455 215.952 31.6064 215.952C31.0534 215.952 30.5452 216.146 30.0819 216.535C29.6186 216.923 29.3347 217.402 29.23 217.97L28.2437 223.664H25.262L27.0779 213.307H30.0595L29.9026 214.226Z" fill="#354E36"/>
<path d="M39.152 213.307H41.5059L40.9903 216.288H38.6364L37.3361 223.664H34.3545L35.6548 216.288H33.4129L33.9286 213.307H36.1704L36.5291 211.244L39.7797 209.765L39.152 213.307Z" fill="#354E36"/>
<path d="M50.9323 219.494C51.0519 219.763 51.2088 219.995 51.4031 220.189C51.9561 220.742 52.681 221.018 53.5777 221.018C54.5043 221.018 55.3338 220.749 56.0661 220.211L57.5905 222.476C56.2305 223.492 54.721 224 53.0621 224C51.3882 224 50.058 223.484 49.0716 222.453C48.5486 221.93 48.1899 221.347 47.9956 220.705C47.7714 220.032 47.734 219.292 47.8835 218.485C48.1674 216.976 48.8998 215.683 50.0805 214.607C50.6185 214.129 51.2537 213.733 51.986 213.419C52.7034 213.12 53.4282 212.97 54.1605 212.97C54.863 212.97 55.5281 213.12 56.1558 213.419C56.7835 213.718 57.2767 214.114 57.6354 214.607C58.4723 215.728 58.7563 217.021 58.4872 218.485C58.4573 218.709 58.3677 219.046 58.2182 219.494H50.9323ZM53.488 211.065L55.7971 208.038H58.7114L55.8195 211.065H53.488ZM51.2238 217.476H55.4832C55.3786 217.028 55.1544 216.662 54.8107 216.378C54.4819 216.094 54.0858 215.952 53.6225 215.952C53.1592 215.952 52.7034 216.094 52.255 216.378C51.8216 216.662 51.4778 217.028 51.2238 217.476Z" fill="#354E36"/>
<path d="M67.5555 218.463C67.7797 218.941 67.832 219.524 67.7125 220.211C67.5032 221.317 66.868 222.244 65.8069 222.991C64.8504 223.664 63.7594 224 62.5339 224C61.7717 224 61.0767 223.865 60.449 223.596C59.7615 223.313 59.1936 222.924 58.7452 222.431L61.1664 220.234C61.6147 220.757 62.2424 221.018 63.0495 221.018C63.5726 221.018 64.0135 220.899 64.3722 220.66C64.5814 220.525 64.701 220.376 64.7309 220.211V219.987L64.7084 219.965L64.4394 219.83C64.2152 219.77 63.8491 219.696 63.3409 219.606C62.3695 219.457 61.6521 219.247 61.1888 218.978C60.2323 218.41 59.8661 217.506 60.0903 216.266C60.2547 215.22 60.7778 214.398 61.6596 213.8C62.4068 213.247 63.3484 212.97 64.4843 212.97C65.8742 212.97 67.025 213.307 67.9366 213.979L65.8293 216.468C65.3511 216.124 64.7234 215.952 63.9462 215.952C63.5128 215.952 63.2438 216.004 63.1392 216.109C63.0943 216.124 63.0719 216.176 63.0719 216.266C63.1317 216.4 63.3932 216.527 63.8565 216.647C64.3199 216.751 64.8355 216.864 65.4034 216.983C65.9713 217.088 66.3599 217.207 66.5691 217.342C67.0474 217.611 67.3762 217.984 67.5555 218.463Z" fill="#354E36"/>
<path d="M78.7732 220.413H84.714L84.1535 223.664H74.9621L77.6298 208.419H80.8805L78.7732 220.413Z" fill="#354E36"/>
<path d="M94.9221 213.307H97.9037L96.0878 223.664H93.1062L93.2407 222.879C92.2095 223.626 91.1334 224 90.0125 224C88.6375 224 87.5465 223.462 86.7395 222.386C85.9474 221.31 85.6858 220.01 85.9548 218.485C86.2239 216.961 86.9487 215.66 88.1294 214.584C89.3101 213.508 90.5879 212.97 91.9629 212.97C93.0688 212.97 94.0104 213.344 94.7876 214.091L94.9221 213.307ZM89.3624 220.279C89.7659 220.772 90.3189 221.018 91.0213 221.018C91.7238 221.018 92.3664 220.772 92.9493 220.279C93.5322 219.785 93.8834 219.188 94.0029 218.485C94.1225 217.783 93.9805 217.185 93.577 216.692C93.1735 216.199 92.6205 215.952 91.9181 215.952C91.2306 215.952 90.5879 216.199 89.9901 216.692C89.4072 217.185 89.056 217.783 88.9364 218.485C88.8169 219.173 88.9589 219.77 89.3624 220.279Z" fill="#354E36"/>
<path d="M108.907 223.664H104.783L102.473 220.682L98.8417 224L101.913 206.626H104.895L103.168 216.311L106.464 213.307H110.499L104.872 218.485L108.907 223.664Z" fill="#354E36"/>
<path d="M116.607 206.626L115.285 214.091C116.301 213.344 117.377 212.97 118.513 212.97C119.888 212.97 120.971 213.508 121.763 214.584C122.555 215.66 122.817 216.961 122.548 218.485C122.279 220.01 121.554 221.31 120.373 222.386C119.208 223.462 117.937 224 116.562 224C115.427 224 114.485 223.626 113.738 222.879L113.603 223.664H110.622L113.626 206.626H116.607ZM116.585 221.018C117.272 221.018 117.907 220.772 118.49 220.279C119.088 219.785 119.447 219.188 119.566 218.485C119.686 217.798 119.544 217.207 119.14 216.714C118.737 216.206 118.184 215.952 117.482 215.952C116.779 215.952 116.136 216.199 115.554 216.692C114.971 217.185 114.619 217.783 114.5 218.485C114.38 219.188 114.522 219.785 114.926 220.279C115.329 220.772 115.882 221.018 116.585 221.018Z" fill="#354E36"/>
<path d="M127.163 219.494C127.282 219.763 127.439 219.995 127.633 220.189C128.186 220.742 128.911 221.018 129.808 221.018C130.735 221.018 131.564 220.749 132.296 220.211L133.821 222.476C132.461 223.492 130.951 224 129.292 224C127.618 224 126.288 223.484 125.302 222.453C124.779 221.93 124.42 221.347 124.226 220.705C124.002 220.032 123.964 219.292 124.114 218.485C124.398 216.976 125.13 215.683 126.311 214.607C126.849 214.129 127.484 213.733 128.216 213.419C128.934 213.12 129.659 212.97 130.391 212.97C131.093 212.97 131.758 213.12 132.386 213.419C133.014 213.718 133.507 214.114 133.866 214.607C134.703 215.728 134.987 217.021 134.718 218.485C134.688 218.709 134.598 219.046 134.449 219.494H127.163ZM127.454 217.476H131.714C131.609 217.028 131.385 216.662 131.041 216.378C130.712 216.094 130.316 215.952 129.853 215.952C129.39 215.952 128.934 216.094 128.485 216.378C128.052 216.662 127.708 217.028 127.454 217.476Z" fill="#354E36"/>
<path d="M140.592 214.226C141.519 213.389 142.527 212.97 143.618 212.97L143.058 216.109C142.789 216.004 142.535 215.952 142.296 215.952C141.743 215.952 141.235 216.146 140.771 216.535C140.308 216.923 140.024 217.402 139.919 217.97L138.933 223.664H135.951L137.767 213.307H140.749L140.592 214.226Z" fill="#354E36"/>
<path d="M146.406 219.494C146.526 219.763 146.683 219.995 146.877 220.189C147.43 220.742 148.155 221.018 149.052 221.018C149.978 221.018 150.808 220.749 151.54 220.211L153.064 222.476C151.704 223.492 150.195 224 148.536 224C146.862 224 145.532 223.484 144.546 222.453C144.023 221.93 143.664 221.347 143.47 220.705C143.245 220.032 143.208 219.292 143.357 218.485C143.641 216.976 144.374 215.683 145.554 214.607C146.092 214.129 146.728 213.733 147.46 213.419C148.177 213.12 148.902 212.97 149.634 212.97C150.337 212.97 151.002 213.12 151.63 213.419C152.257 213.718 152.751 214.114 153.109 214.607C153.946 215.728 154.23 217.021 153.961 218.485C153.931 218.709 153.842 219.046 153.692 219.494H146.406ZM146.698 217.476H150.957C150.853 217.028 150.628 216.662 150.285 216.378C149.956 216.094 149.56 215.952 149.096 215.952C148.633 215.952 148.177 216.094 147.729 216.378C147.296 216.662 146.952 217.028 146.698 217.476Z" fill="#354E36"/>
<path d="M166.158 217.97L165.171 223.664H162.19L163.176 217.97C163.281 217.417 163.168 216.946 162.84 216.557C162.526 216.154 162.092 215.952 161.539 215.952C160.986 215.952 160.478 216.146 160.015 216.535C159.552 216.923 159.268 217.402 159.163 217.97L158.177 223.664H155.195L157.011 213.307H159.993L159.836 214.226C160.762 213.389 161.771 212.97 162.862 212.97C164.013 212.97 164.91 213.463 165.552 214.45C166.195 215.421 166.397 216.595 166.158 217.97Z" fill="#354E36"/>
<path d="M178.186 206.626H181.167L178.163 223.664H175.182L175.316 222.879C174.285 223.626 173.209 224 172.088 224C170.713 224 169.622 223.462 168.815 222.386C168.023 221.31 167.761 220.01 168.03 218.485C168.299 216.961 169.024 215.66 170.205 214.584C171.386 213.508 172.664 212.97 174.039 212.97C175.144 212.97 176.086 213.344 176.863 214.091L178.186 206.626ZM171.438 220.279C171.842 220.772 172.395 221.018 173.097 221.018C173.799 221.018 174.442 220.772 175.025 220.279C175.608 219.785 175.959 219.188 176.079 218.485C176.198 217.783 176.056 217.185 175.653 216.692C175.249 216.199 174.696 215.952 173.994 215.952C173.306 215.952 172.664 216.199 172.066 216.692C171.483 217.185 171.132 217.783 171.012 218.485C170.893 219.173 171.035 219.77 171.438 220.279Z" fill="#354E36"/>
<path d="M184.303 219.494C184.422 219.763 184.579 219.995 184.773 220.189C185.326 220.742 186.051 221.018 186.948 221.018C187.874 221.018 188.704 220.749 189.436 220.211L190.961 222.476C189.601 223.492 188.091 224 186.432 224C184.758 224 183.428 223.484 182.442 222.453C181.919 221.93 181.56 221.347 181.366 220.705C181.142 220.032 181.104 219.292 181.254 218.485C181.538 216.976 182.27 215.683 183.451 214.607C183.989 214.129 184.624 213.733 185.356 213.419C186.074 213.12 186.798 212.97 187.531 212.97C188.233 212.97 188.898 213.12 189.526 213.419C190.154 213.718 190.647 214.114 191.006 214.607C191.842 215.728 192.126 217.021 191.857 218.485C191.828 218.709 191.738 219.046 191.588 219.494H184.303ZM184.594 217.476H188.853C188.749 217.028 188.525 216.662 188.181 216.378C187.852 216.094 187.456 215.952 186.993 215.952C186.529 215.952 186.074 216.094 185.625 216.378C185.192 216.662 184.848 217.028 184.594 217.476Z" fill="#354E36"/>
<path d="M197.745 220.682H202.252L201.736 223.664H192.119L197.589 216.288H194.629L195.145 213.307H203.216L197.745 220.682Z" fill="#354E36"/>
<path d="M206.633 219.494C206.753 219.763 206.91 219.995 207.104 220.189C207.657 220.742 208.382 221.018 209.278 221.018C210.205 221.018 211.034 220.749 211.767 220.211L213.291 222.476C211.931 223.492 210.422 224 208.763 224C207.089 224 205.759 223.484 204.772 222.453C204.249 221.93 203.891 221.347 203.696 220.705C203.472 220.032 203.435 219.292 203.584 218.485C203.868 216.976 204.6 215.683 205.781 214.607C206.319 214.129 206.954 213.733 207.687 213.419C208.404 213.12 209.129 212.97 209.861 212.97C210.564 212.97 211.229 213.12 211.856 213.419C212.484 213.718 212.977 214.114 213.336 214.607C214.173 215.728 214.457 217.021 214.188 218.485C214.158 218.709 214.068 219.046 213.919 219.494H206.633ZM209.189 211.065L211.498 208.038H214.412L211.52 211.065H209.189ZM206.924 217.476H211.184C211.079 217.028 210.855 216.662 210.511 216.378C210.183 216.094 209.787 215.952 209.323 215.952C208.86 215.952 208.404 216.094 207.956 216.378C207.522 216.662 207.179 217.028 206.924 217.476Z" fill="#354E36"/>
<path d="M223.256 218.463C223.48 218.941 223.533 219.524 223.413 220.211C223.204 221.317 222.569 222.244 221.508 222.991C220.551 223.664 219.46 224 218.235 224C217.472 224 216.777 223.865 216.15 223.596C215.462 223.313 214.894 222.924 214.446 222.431L216.867 220.234C217.315 220.757 217.943 221.018 218.75 221.018C219.273 221.018 219.714 220.899 220.073 220.66C220.282 220.525 220.402 220.376 220.432 220.211V219.987L220.409 219.965L220.14 219.83C219.916 219.77 219.55 219.696 219.042 219.606C218.07 219.457 217.353 219.247 216.89 218.978C215.933 218.41 215.567 217.506 215.791 216.266C215.955 215.22 216.479 214.398 217.36 213.8C218.108 213.247 219.049 212.97 220.185 212.97C221.575 212.97 222.726 213.307 223.637 213.979L221.53 216.468C221.052 216.124 220.424 215.952 219.647 215.952C219.214 215.952 218.945 216.004 218.84 216.109C218.795 216.124 218.773 216.176 218.773 216.266C218.832 216.4 219.094 216.527 219.557 216.647C220.021 216.751 220.536 216.864 221.104 216.983C221.672 217.088 222.061 217.207 222.27 217.342C222.748 217.611 223.077 217.984 223.256 218.463Z" fill="#354E36"/>
<path d="M82.0915 90.0911C79.1886 89.9943 76.576 91.1555 73.77 91.6393C71.2542 92.0263 68.8351 92.6069 66.3193 92.6069C65.7387 92.6069 65.1582 92.6069 64.8679 92.1231C64.4808 91.5425 64.9646 90.9619 65.3517 90.4781C67.5772 87.285 70.8671 85.4465 74.0602 83.5113C76.0922 82.3501 78.3177 81.3825 80.0595 79.7376C83.7364 80.1246 87.5101 79.9311 91.187 79.2538C85.3813 81.9631 79.6724 84.7692 74.2538 88.1558C76.189 87.3818 78.0275 86.5109 79.9627 85.6401C84.1235 83.6081 88.1874 81.3825 92.5417 79.6408C92.6385 79.7376 92.7352 79.8344 92.832 79.8344C91.0903 81.9631 89.3485 83.8983 87.123 85.5433C85.4781 86.8012 84.0267 88.1558 82.7688 89.8008C82.5752 89.9943 82.3818 90.0911 82.0915 90.0911Z" fill="#78AE56"/>
<path d="M117.41 101.412C117.313 102.283 117.217 103.057 117.12 103.928C117.12 104.121 117.12 104.315 117.023 104.509C116.443 108.669 115.862 112.733 115.281 116.894C115.088 118.152 115.088 119.41 114.507 120.668C114.217 121.345 113.927 122.022 113.153 122.022C112.282 122.022 111.991 121.345 111.798 120.668C110.734 117.958 110.347 115.152 109.766 112.346C109.185 109.637 109.089 106.831 108.218 104.121C108.121 103.831 108.218 103.541 108.218 103.154C108.218 102.477 108.315 101.799 108.411 101.122C108.895 99.0899 109.282 96.9611 109.282 94.9291C109.282 93.0907 110.056 91.8328 111.701 90.9619C112.379 98.7996 112.669 106.541 113.056 114.281C113.443 106.734 113.153 99.0899 112.572 91.4457C112.766 91.5425 112.862 91.6392 112.959 91.8328C114.314 94.5421 115.668 97.3482 117.023 100.057C117.41 100.445 117.313 100.928 117.41 101.412Z" fill="#78AE56"/>
<path d="M148.857 90.6717C148.857 90.7685 148.954 90.7685 148.954 90.8653ZM147.89 89.8009C143.245 86.511 138.504 83.3179 133.472 80.5118C132.698 80.028 131.827 79.6409 131.15 79.1571C133.376 79.1571 135.601 79.1571 137.827 79.1571C138.794 79.1571 139.665 79.2539 140.342 79.9312C145.277 83.7049 150.406 87.2851 155.05 91.3491C155.824 92.0264 156.695 92.8005 157.372 93.6713C158.05 94.6389 157.856 95.1228 156.598 95.2195C154.276 95.413 152.051 94.9292 149.825 94.5422C149.632 94.5422 146.051 93.7681 146.051 93.7681H145.955C145.858 93.6713 145.664 93.6713 145.568 93.5746C145.374 93.4778 145.181 93.4778 144.987 93.3811C144.31 92.5102 143.632 91.5426 142.858 90.6717C139.665 86.9948 135.795 83.9952 131.924 81.1891C131.344 80.8021 130.666 80.415 130.376 79.3506C133.182 80.9956 135.795 82.5438 138.31 84.0919" fill="#78AE56"/>
<path d="M133.763 39.3881C136.279 37.2593 138.795 35.0338 141.31 32.8083C141.988 32.2277 142.762 31.6472 143.536 31.2601C144.697 30.7763 145.568 31.2601 145.858 32.518C146.052 33.5824 145.665 34.55 145.181 35.5176C143.729 38.227 142.278 41.033 140.923 43.7424C140.536 44.4197 140.149 45.097 139.762 45.7744C139.472 46.2582 139.375 46.9355 138.698 47.129C135.408 48.0966 132.505 49.9351 129.505 51.6768C129.409 51.5801 129.312 51.4833 129.312 51.3865C132.602 46.5484 136.763 42.1942 140.052 37.3561C138.891 38.0334 138.214 39.0978 137.44 39.9687C134.053 43.8391 130.957 47.9999 127.861 52.0639C127.764 51.9671 127.764 51.9671 127.667 51.8703C128.441 49.5481 129.505 47.3225 130.086 44.9035C130.473 43.1618 130.763 41.4201 132.505 40.3557C132.408 40.4525 133.376 39.6784 133.763 39.3881Z" fill="#78AE56"/>
<path d="M82.092 92.6068C81.9952 92.7036 81.9952 92.8003 81.8984 92.8971C81.8984 92.8003 81.9952 92.7036 82.092 92.6068Z" fill="#E1F2F1"/>
<path d="M145.567 93.7681C145.664 93.8648 145.858 93.8648 145.954 93.9616C145.858 93.8648 145.761 93.7681 145.567 93.7681Z" fill="#E1F2F1"/>
<path d="M71.6416 76.4476C71.7384 76.5444 71.8351 76.5444 72.0287 76.6412C71.9319 76.5444 71.7384 76.4476 71.6416 76.4476Z" fill="#E1F2F1"/>
<path d="M179.918 46.3549C179.724 45.3873 179.144 44.9035 178.079 45.2905C178.757 46.6452 178.466 47.9031 177.015 49.4513C174.886 51.6768 172.177 51.9671 169.371 51.58C165.887 50.5157 144.6 46.742 143.245 47.0322L141.6 47.2258C141.407 47.2258 141.31 47.2258 141.116 47.3225C134.827 48.8707 129.699 52.4509 124.667 56.3213C127.473 50.2254 129.795 44.0326 130.376 37.3561C130.376 36.6788 130.473 36.0982 130.473 35.4209C130.473 34.8403 130.473 32.8083 130.376 32.3245C130.279 31.4536 127.57 24.2933 125.731 23.2289C125.248 22.9386 124.764 22.4548 124.377 22.1645C120.893 19.2617 118.184 16.1653 118.377 11.2305C118.474 8.61791 117.894 6.00535 116.539 3.68308C115.184 1.3608 113.152 0.102896 110.54 0.00613434C109.088 -0.0906272 108.121 0.973748 108.411 2.03812C108.508 2.32841 108.605 2.6187 108.895 2.6187C109.282 2.71546 109.282 2.42518 109.379 2.13489C109.669 1.16728 110.153 1.65108 110.54 2.03812C111.024 2.52193 111.12 3.19926 111.12 3.8766C111.12 6.3924 110.443 8.71467 109.088 10.7467C105.992 15.488 102.702 20.1325 100.09 25.2609C96.7996 33.5824 98.0575 41.7104 100.864 49.8383C101.541 51.8703 102.315 53.8056 103.186 55.644C103.379 55.9343 103.863 56.4181 103.283 56.7084C102.896 56.9987 102.605 56.4181 102.315 56.1278C99.2187 52.9347 95.7353 50.2254 92.0583 47.7096C90.1231 46.3549 88.0911 45.1938 86.0591 43.8391C86.0591 43.8391 83.8336 42.8715 83.5433 42.8715C78.7053 41.3233 74.4477 42.1942 70.674 45.5808C69.6096 46.4517 68.7388 47.516 67.9647 48.6772C66.223 51.3865 63.7072 52.5476 60.5141 52.1606C55.3857 51.4833 50.7412 49.6448 46.2902 47.129C45.9031 46.8387 45.4193 46.6452 44.9355 46.4517C44.6452 46.3549 44.1614 46.2582 43.9679 46.6452C43.7743 46.9355 43.9679 47.2258 44.1614 47.516C44.4517 47.8063 44.7419 48.0966 45.0322 48.3869C46.8707 49.8383 48.7092 51.3865 50.5476 52.8379C51.9023 53.9023 53.257 54.7732 54.3213 56.2246C57.1274 60.095 60.0303 63.9655 63.1266 67.6424C65.7392 70.7388 68.1582 74.0287 71.5449 76.4478C71.6417 76.5445 71.7384 76.5445 71.932 76.6413C72.0287 76.6413 72.0287 76.6413 72.1254 76.738C79.6728 79.9312 87.4138 79.3506 95.445 77.6089C94.4774 79.1571 93.5098 80.2215 92.5422 81.2858C90.6069 83.4146 88.5749 85.5433 86.1559 87.1883C84.2206 88.5429 83.2531 90.5749 82.0919 92.4134C82.0919 92.5102 82.0919 92.6069 81.9951 92.6069C81.8984 92.7037 81.8983 92.8004 81.8016 92.8972C81.3178 94.0583 80.9308 95.1227 80.447 96.2839C80.447 96.3806 77.9311 105.089 77.6409 105.283C77.5441 105.379 75.1251 110.992 74.9315 111.088C74.5445 112.153 74.0607 113.314 73.6737 114.378C72.8028 116.604 71.6416 118.636 71.1578 121.055C70.4805 124.635 72.319 127.635 75.8024 128.409C76.8668 128.699 77.4474 128.118 78.0279 127.441C78.2214 127.248 78.5117 126.86 78.3182 126.57C77.8344 125.893 77.0603 126.183 76.383 126.28C75.9959 126.28 75.5121 126.28 75.3186 125.893C75.0283 125.409 75.3186 125.119 75.6089 124.829C76.2862 124.054 77.1571 123.377 78.0279 122.797C84.6077 118.733 91.6713 115.539 99.2187 113.798C102.218 113.12 104.25 111.572 105.121 108.573C105.218 108.186 105.411 107.798 105.605 107.411C106.669 103.831 107.83 100.251 108.218 96.4774C108.314 95.7033 108.314 94.9292 108.411 94.1551C108.508 92.8972 108.895 91.7361 109.959 90.962C110.25 90.7685 110.54 90.4782 110.733 90.1879C111.991 88.6397 112.378 88.6397 113.249 90.3814C115.281 94.5422 117.313 98.7997 119.442 102.96C119.539 103.057 119.539 103.154 119.635 103.251C120.216 104.122 120.797 104.992 121.28 105.96C122.248 107.798 123.893 108.863 125.731 109.54C126.602 109.83 127.473 110.218 128.344 110.701C132.408 113.12 135.988 116.023 139.181 119.507C140.826 121.345 142.761 122.797 144.987 123.764C148.18 125.119 151.47 125.506 154.76 124.248C155.824 123.861 156.985 123.28 157.179 121.926C153.308 121.635 151.663 120.377 150.406 116.701C148.954 112.443 146.535 100.154 146.632 99.864C146.632 99.7673 146.632 99.5737 146.535 99.477C144.89 92.1231 139.181 88.1559 133.859 83.7049C132.892 82.9308 131.827 82.2534 130.86 81.4793C130.569 81.2858 130.279 81.0923 130.086 80.802C129.505 80.0279 128.828 79.0603 129.215 78.1894C129.505 77.4154 130.666 77.8992 131.44 77.9959C136.375 78.383 141.407 78.2862 146.342 78.1894C150.018 77.8024 153.308 76.6413 155.824 73.8352C157.372 72.1902 158.63 70.3518 159.695 68.4165C160.662 66.6748 161.533 64.9331 162.694 63.2882C164.533 60.6756 166.758 58.8371 170.242 58.3533C173.725 57.8695 176.531 55.8375 178.66 53.0314C180.208 51.193 180.498 48.7739 179.918 46.3549ZM128.15 66.5781C127.763 67.7392 127.183 68.8036 126.699 69.9647C125.248 72.8676 124.57 75.9639 125.344 79.1571C125.635 80.6085 125.248 81.6729 124.183 82.5437C121.667 84.5757 118.958 85.4466 115.862 83.8984C113.346 82.6405 110.927 82.6405 108.411 83.8984C105.411 85.3498 101.541 84.3822 99.509 81.8664C98.9284 81.1891 98.7349 80.415 98.9284 79.6409C99.7992 75.9639 98.9284 72.5773 97.2834 69.2874C96.7029 68.223 96.2191 67.1586 96.0255 65.9975C95.445 63.3849 96.8964 60.9659 99.4122 60.2886C100.573 59.9983 101.735 59.9015 102.896 59.708C104.541 59.5145 105.702 58.7404 106.476 57.1922C107.734 54.8699 109.766 53.9023 112.185 53.8055C114.604 53.9023 116.636 54.6764 117.7 56.7084C118.861 58.9339 120.7 59.708 123.022 59.9015C124.377 59.9983 125.731 60.1918 126.892 61.1594C128.441 62.6108 128.924 64.5461 128.15 66.5781Z" fill="#71C3D0"/>
<path d="M87.9943 34.9371C92.155 40.9363 96.6061 46.5485 100.283 52.838C97.5737 50.5157 94.6709 48.4837 91.768 46.4517C90.6069 45.6776 89.349 45.097 88.3814 44.2262C86.9299 39.9687 84.8979 35.8079 84.1238 31.3569C84.0271 30.6796 83.64 29.712 84.4141 29.3249C85.0914 28.9379 85.7688 29.6152 86.3493 30.0022C88.9619 31.8407 91.1874 34.163 93.5097 36.2917C94.4773 36.9691 97.0899 39.4849 97.3802 40.259C97.3802 40.3557 99.6057 47.9031 100.573 50.9995C100.67 51.193 100.767 51.3865 100.573 51.5801C100.477 51.4833 100.38 51.2898 100.283 51.193C99.9927 50.7092 99.6057 50.3222 99.3154 49.8384C96.219 44.9035 92.8323 40.3557 89.2522 35.8079C88.8651 35.4209 88.6716 34.7436 87.9943 34.9371Z" fill="#78AE56"/>
<path d="M127.763 52.2575C127.666 52.2575 127.569 52.3542 127.473 52.3542C127.473 52.2575 127.473 52.1607 127.569 52.064C127.666 52.1607 127.763 52.1607 127.763 52.2575Z" fill="#587F49"/>
<path d="M129.505 51.7736C129.408 51.8703 129.215 52.0638 129.118 51.7736C129.118 51.6768 129.215 51.58 129.312 51.4833C129.312 51.6768 129.408 51.6768 129.505 51.7736Z" fill="#587F49"/>
<path d="M109.282 63.8688C109.282 63.4817 109.282 63.0947 109.282 62.8044C109.282 61.4497 110.153 60.4821 111.411 60.3854C112.766 60.2886 113.733 61.1595 113.927 62.6109C114.023 63.5785 114.024 64.5461 114.024 65.5137C114.12 66.5781 114.604 66.9651 115.668 66.6749C116.539 66.4813 117.313 66.1911 118.184 65.9975C119.732 65.6105 120.99 66.2878 121.281 67.6425C121.571 68.9004 120.797 70.0615 119.345 70.4486C118.475 70.7388 117.604 70.9324 116.733 71.1259C115.959 71.3194 115.765 71.9 116.055 72.5773C116.443 73.4482 116.926 74.2223 117.41 75.0931C118.087 76.4478 117.7 77.8024 116.539 78.383C115.378 78.9636 114.12 78.5765 113.443 77.3186C113.056 76.6413 112.669 75.964 112.379 75.2866C111.895 74.4158 111.411 74.319 110.734 75.0931C110.25 75.6737 109.766 76.2542 109.185 76.8348C108.218 77.8992 106.863 78.0927 105.896 77.2219C104.831 76.351 104.734 74.9963 105.702 73.8352C106.283 73.1579 106.863 72.4806 107.347 71.8032C107.831 71.1259 107.734 70.6421 106.96 70.3518C106.186 70.0615 105.315 69.7712 104.541 69.3842C103.186 68.8036 102.606 67.6425 103.089 66.3846C103.573 65.1267 104.831 64.5461 106.283 65.0299C106.863 65.2234 107.347 65.5137 107.927 65.7072C109.379 66.2878 109.476 66.191 109.572 64.6429C109.379 64.5461 109.282 63.8688 109.282 63.8688Z" fill="#C677CE"/>
<path d="M30.8799 152.322C33.5604 153.136 35.6665 154.524 37.1982 156.486C38.7778 158.401 39.5676 160.747 39.5676 163.523C39.5676 167.448 38.1316 170.775 35.2596 173.503C32.4355 176.231 29.037 177.596 25.0641 177.596H4.24219V128.772H24.3461C27.9839 128.772 31.0713 130.088 33.6083 132.721C36.1452 135.353 37.4136 138.513 37.4136 142.198C37.4136 147.033 35.2357 150.407 30.8799 152.322ZM25.0641 171.493C27.4095 171.493 29.396 170.727 31.0235 169.195C32.6988 167.615 33.5365 165.725 33.5365 163.523C33.5365 161.321 32.6988 159.454 31.0235 157.922C29.396 156.391 27.4095 155.625 25.0641 155.625H10.3452V171.493H25.0641ZM10.3452 134.875V149.45H24.3461C26.2608 149.45 27.8882 148.756 29.2285 147.368C30.6166 145.932 31.3107 144.209 31.3107 142.198C31.3107 140.188 30.6166 138.465 29.2285 137.029C27.8882 135.593 26.2608 134.875 24.3461 134.875H10.3452Z" fill="#354E36"/>
<path d="M62.5054 178.673C57.623 178.673 53.4586 176.949 50.0122 173.503C46.5658 170.057 44.8427 165.892 44.8427 161.01C44.8427 156.127 46.5658 151.963 50.0122 148.517C53.4586 145.07 57.623 143.347 62.5054 143.347C67.3399 143.347 71.4803 145.07 74.9267 148.517C78.421 152.011 80.1681 156.175 80.1681 161.01C80.1681 165.844 78.421 170.009 74.9267 173.503C71.4803 176.949 67.3399 178.673 62.5054 178.673ZM71.0495 152.466C68.7041 150.072 65.856 148.876 62.5054 148.876C59.1547 148.876 56.2827 150.072 53.8894 152.466C51.544 154.811 50.3712 157.659 50.3712 161.01C50.3712 164.36 51.544 167.232 53.8894 169.626C56.2827 171.971 59.1547 173.144 62.5054 173.144C65.856 173.144 68.7041 171.971 71.0495 169.626C73.4429 167.232 74.6395 164.36 74.6395 161.01C74.6395 157.659 73.4429 154.811 71.0495 152.466Z" fill="#354E36"/>
<path d="M101.545 143.347C101.689 143.347 101.928 143.371 102.263 143.419C102.598 143.419 102.838 143.419 102.981 143.419V149.019C102.311 148.924 101.833 148.876 101.545 148.876C98.9605 148.876 96.7587 149.809 94.9397 151.676C93.1208 153.495 92.2114 155.697 92.2114 158.281V177.596H86.6828V158.281C86.6828 154.165 88.1188 150.647 90.9908 147.727C93.9106 144.807 97.4288 143.347 101.545 143.347Z" fill="#354E36"/>
<path d="M121.442 178.673C116.942 178.673 113.089 176.949 109.882 173.503C106.723 170.057 105.143 165.892 105.143 161.01C105.143 156.127 106.866 151.963 110.313 148.517C113.759 145.07 117.923 143.347 122.806 143.347C127.64 143.347 131.781 145.07 135.227 148.517C138.721 152.011 140.469 156.175 140.469 161.01V177.596H134.94V170.846C133.456 173.24 131.518 175.154 129.124 176.59C126.779 177.978 124.218 178.673 121.442 178.673ZM131.35 152.466C129.005 150.072 126.157 148.876 122.806 148.876C119.455 148.876 116.583 150.072 114.19 152.466C111.844 154.811 110.672 157.659 110.672 161.01C110.672 164.36 111.844 167.232 114.19 169.626C116.583 171.971 119.455 173.144 122.806 173.144C126.157 173.144 129.005 171.971 131.35 169.626C133.743 167.232 134.94 164.36 134.94 161.01C134.94 157.659 133.743 154.811 131.35 152.466ZM119.359 137.244L125.103 127.91H130.847L123.955 137.244H119.359Z" fill="#354E36"/>
<path d="M151.041 173.503C147.881 170.057 146.302 165.892 146.302 161.01C146.302 156.127 148.025 151.963 151.471 148.517C154.918 145.07 159.082 143.347 163.964 143.347C168.799 143.347 172.939 145.07 176.386 148.517C179.88 152.011 181.627 156.175 181.627 161.01V175.729C181.627 180.611 179.904 184.776 176.458 188.222C173.107 191.573 168.967 193.296 164.036 193.391V187.935C167.291 187.935 170.139 186.714 172.58 184.273C174.926 181.975 176.099 179.127 176.099 175.729V170.846C174.615 173.24 172.676 175.154 170.283 176.59C167.937 177.978 165.377 178.673 162.6 178.673C158.101 178.673 154.248 176.949 151.041 173.503ZM172.509 152.466C170.163 150.072 167.315 148.876 163.964 148.876C160.614 148.876 157.742 150.072 155.348 152.466C153.003 154.811 151.83 157.659 151.83 161.01C151.83 164.36 153.003 167.232 155.348 169.626C157.742 171.971 160.614 173.144 163.964 173.144C167.315 173.144 170.163 171.971 172.509 169.626C174.902 167.232 176.099 164.36 176.099 161.01C176.099 157.659 174.902 154.811 172.509 152.466Z" fill="#354E36"/>
<path d="M205.123 178.673C200.241 178.673 196.076 176.949 192.63 173.503C189.184 170.057 187.46 165.892 187.46 161.01C187.46 156.127 189.184 151.963 192.63 148.517C196.076 145.07 200.241 143.347 205.123 143.347C209.958 143.347 214.098 145.07 217.544 148.517C221.039 152.011 222.786 156.175 222.786 161.01C222.786 165.844 221.039 170.009 217.544 173.503C214.098 176.949 209.958 178.673 205.123 178.673ZM213.667 152.466C211.322 150.072 208.474 148.876 205.123 148.876C201.772 148.876 198.9 150.072 196.507 152.466C194.162 154.811 192.989 157.659 192.989 161.01C192.989 164.36 194.162 167.232 196.507 169.626C198.9 171.971 201.772 173.144 205.123 173.144C208.474 173.144 211.322 171.971 213.667 169.626C216.061 167.232 217.257 164.36 217.257 161.01C217.257 157.659 216.061 154.811 213.667 152.466ZM203.184 137.244L208.928 127.91H214.672L207.78 137.244H203.184Z" fill="#354E36"/>
</svg>
