<svg width="375" height="134" viewBox="0 0 375 134" fill="none" xmlns="http://www.w3.org/2000/svg">
<path d="M40.3006 93.4998C37.3006 93.3998 34.6006 94.5998 31.7006 95.0998C29.1006 95.4998 26.6006 96.0998 24.0006 96.0998C23.4006 96.0998 22.8006 96.0998 22.5006 95.5998C22.1006 94.9998 22.6006 94.3998 23.0006 93.8998C25.3006 90.5998 28.7006 88.6998 32.0006 86.6998C34.1006 85.4998 36.4006 84.4998 38.2006 82.7998C42.0006 83.1998 45.9006 82.9998 49.7006 82.2998C43.7006 85.0998 37.8006 87.9998 32.2006 91.4998C34.2006 90.6998 36.1006 89.7998 38.1006 88.8998C42.4006 86.7998 46.6006 84.4998 51.1006 82.6998C51.2006 82.7998 51.3006 82.8998 51.4006 82.8998C49.6006 85.0998 47.8006 87.0998 45.5006 88.7998C43.8006 90.0998 42.3006 91.4998 41.0006 93.1998C40.7006 93.3998 40.6006 93.4998 40.3006 93.4998Z" fill="#78AE56"/>
<path d="M76.8003 105.2C76.7003 106.1 76.6003 106.9 76.5003 107.8C76.5003 108 76.5003 108.2 76.4003 108.4C75.8003 112.7 75.2003 116.9 74.6003 121.2C74.4003 122.5 74.4003 123.8 73.8003 125.1C73.5003 125.8 73.2003 126.5 72.4003 126.5C71.5003 126.5 71.2003 125.8 71.0003 125.1C69.9003 122.3 69.5003 119.4 68.9003 116.5C68.3003 113.7 68.2003 110.8 67.3003 108C67.2003 107.7 67.3003 107.4 67.3003 107C67.3003 106.3 67.4003 105.6 67.5003 104.9C68.0003 102.8 68.4003 100.6 68.4003 98.4999C68.4003 96.5999 69.2003 95.2999 70.9003 94.3999C71.6003 102.5 71.9003 110.5 72.3003 118.5C72.7003 110.7 72.4003 102.8 71.8003 94.8999C72.0003 94.9999 72.1003 95.0999 72.2003 95.2999C73.6003 98.0999 75.0003 101 76.4003 103.8C76.7003 104.2 76.7003 104.7 76.8003 105.2Z" fill="#78AE56"/>
<path d="M109.301 94.0999C109.301 94.1999 109.401 94.1999 109.401 94.2999L109.301 94.0999ZM108.201 93.2C103.401 89.8 98.5006 86.4999 93.3006 83.5999C92.5006 83.0999 91.6006 82.7 90.9006 82.2C93.2006 82.2 95.5006 82.2 97.8006 82.2C98.8006 82.2 99.7006 82.2999 100.401 82.9999C105.501 86.8999 110.801 90.5999 115.601 94.7999C116.401 95.4999 117.301 96.3 118.001 97.2C118.701 98.2 118.501 98.6999 117.201 98.7999C114.801 98.9999 112.501 98.4999 110.201 98.0999C110.001 98.0999 106.301 97.2999 106.301 97.2999H106.201C106.101 97.1999 105.901 97.1999 105.801 97.0999C105.601 96.9999 105.401 97 105.201 96.9C104.501 96 103.801 94.9999 103.001 94.0999C99.7006 90.2999 95.7006 87.1999 91.7006 84.2999C91.1006 83.8999 90.4006 83.5 90.1006 82.4C93.0006 84.1 95.7006 85.6999 98.3006 87.2999" fill="#78AE56"/>
<path d="M93.5998 41.1C96.1998 38.9 98.7998 36.6 101.4 34.3C102.1 33.7 102.9 33.1 103.7 32.7C104.9 32.2 105.8 32.7 106.1 34C106.3 35.1 105.9 36.1 105.4 37.1C103.9 39.9 102.4 42.8 101 45.6C100.6 46.3 100.2 47 99.7998 47.7C99.4998 48.2 99.3998 48.9 98.6998 49.1C95.2998 50.1 92.2998 52 89.1998 53.8C89.0998 53.7 88.9998 53.6 88.9998 53.5C92.3998 48.5 96.6998 44 100.1 39C98.8998 39.7 98.1998 40.8 97.3998 41.7C93.8998 45.7 90.6998 50 87.4998 54.2C87.3998 54.1 87.3998 54.1 87.2998 54C88.0998 51.6 89.1998 49.3 89.7998 46.8C90.1998 45 90.4998 43.2 92.2998 42.1C92.2998 42.2 93.1998 41.5 93.5998 41.1Z" fill="#78AE56"/>
<path d="M40.2 96.0999C40.1 96.1999 40.1 96.2999 40 96.3999C40.1 96.2999 40.2 96.1999 40.2 96.0999Z" fill="#E1F2F1"/>
<path d="M79 106.8C79.1 106.9 79.1 107 79.2 107.1C79.1 107.1 79 106.9 79 106.8Z" fill="#E1F2F1"/>
<path d="M29.5 79.3999C29.6 79.4999 29.7 79.4999 29.9 79.5999C29.7 79.4999 29.6 79.3999 29.5 79.3999Z" fill="#E1F2F1"/>
<path d="M141.4 48.2999C141.2 47.2999 140.6 46.7999 139.5 47.1999C140.2 48.5999 139.9 49.8999 138.4 51.4999C136.2 53.7999 133.4 54.0999 130.5 53.6999C126.9 52.5999 104.9 48.6999 103.5 48.9999L101.8 49.1999C101.6 49.1999 101.5 49.1999 101.3 49.2999C94.8002 50.8999 89.5002 54.5999 84.3002 58.5999C87.2002 52.2999 89.6002 45.8999 90.2002 38.9999C90.2002 38.2999 90.3002 37.6999 90.3002 36.9999C90.3002 36.3999 90.3002 34.2999 90.2002 33.7999C90.1002 32.8999 87.3002 25.4999 85.4002 24.3999C84.9002 24.0999 84.4002 23.5999 84.0002 23.2999C80.4002 20.2999 77.6002 17.0999 77.8002 11.9999C77.9002 9.2999 77.3002 6.59991 75.9002 4.19991C74.5002 1.79991 72.4002 0.499894 69.7002 0.399894C68.2002 0.299894 67.2002 1.3999 67.5002 2.4999C67.6002 2.7999 67.7002 3.09991 68.0002 3.09991C68.4002 3.19991 68.4002 2.89991 68.5002 2.59991C68.8002 1.59991 69.3002 2.0999 69.7002 2.4999C70.2002 2.9999 70.3002 3.69989 70.3002 4.39989C70.3002 6.99989 69.6002 9.3999 68.2002 11.4999C65.0002 16.3999 61.6002 21.1999 58.9002 26.4999C55.5002 35.0999 56.8002 43.4999 59.7002 51.8999C60.4002 53.9999 61.2002 55.9999 62.1002 57.8999C62.3002 58.1999 62.8002 58.6999 62.2002 58.9999C61.8002 59.2999 61.5002 58.6999 61.2002 58.3999C58.0002 55.0999 54.4002 52.2999 50.6002 49.6999C48.6002 48.2999 46.5002 47.0999 44.4002 45.6999C44.4002 45.6999 42.1002 44.6999 41.8002 44.6999C36.8002 43.0999 32.4002 43.9999 28.5002 47.4999C27.4002 48.3999 26.5002 49.4999 25.7002 50.6999C23.9002 53.4999 21.3002 54.6999 18.0002 54.2999C12.7002 53.5999 7.90022 51.6999 3.30022 49.0999C2.90022 48.7999 2.40022 48.5999 1.90022 48.3999C1.60022 48.2999 1.10022 48.1999 0.900223 48.5999C0.700223 48.8999 0.900235 49.1999 1.10024 49.4999C1.40024 49.7999 1.70023 50.0999 2.00023 50.3999C3.90023 51.8999 5.80024 53.4999 7.70024 54.9999C9.10024 56.0999 10.5002 56.9999 11.6002 58.4999C14.5002 62.4999 17.5002 66.4999 20.7002 70.2999C23.4002 73.4999 25.9002 76.8999 29.4002 79.3999C29.5002 79.4999 29.6002 79.4999 29.8002 79.5999C29.9002 79.5999 29.9002 79.5999 30.0002 79.6999C37.8002 82.9999 45.8002 82.3999 54.1002 80.5999C53.1002 82.1999 52.1002 83.2999 51.1002 84.3999C49.1002 86.5999 47.0002 88.7999 44.5002 90.4999C42.5002 91.8999 41.5002 93.9999 40.3002 95.8999C40.3002 95.9999 40.3002 96.0999 40.2002 96.0999C40.1002 96.1999 40.1002 96.2999 40.0002 96.3999C39.5002 97.5999 39.1002 98.6999 38.6002 99.8999C38.6002 99.9999 36.0002 109 35.7002 109.2C35.6002 109.3 33.1002 115.1 32.9002 115.2C32.5002 116.3 32.0002 117.5 31.6002 118.6C30.7002 120.9 29.5002 123 29.0002 125.5C28.3002 129.2 30.2002 132.3 33.8002 133.1C34.9002 133.4 35.5002 132.8 36.1002 132.1C36.3002 131.9 36.6002 131.5 36.4002 131.2C35.9002 130.5 35.1002 130.8 34.4002 130.9C34.0002 130.9 33.5002 130.9 33.3002 130.5C33.0002 130 33.3002 129.7 33.6002 129.4C34.3002 128.6 35.2002 127.9 36.1002 127.3C42.9002 123.1 50.2002 119.8 58.0002 118C61.1002 117.3 63.2002 115.7 64.1002 112.6C64.2002 112.2 64.4002 111.8 64.6002 111.4C65.7002 107.7 66.9002 104 67.3002 100.1C67.4002 99.2999 67.4002 98.4999 67.5002 97.6999C67.6002 96.3999 68.0002 95.1999 69.1002 94.3999C69.4002 94.1999 69.7002 93.8999 69.9002 93.5999C71.2002 91.9999 71.6002 91.9999 72.5002 93.7999C74.6002 98.0999 76.7002 102.5 78.9002 106.8C79.0002 106.9 79.0002 107 79.1002 107.1C79.7002 108 80.3002 108.9 80.8002 109.9C81.8002 111.8 83.5002 112.9 85.4002 113.6C86.3002 113.9 87.2002 114.3 88.1002 114.8C92.3002 117.3 96.0002 120.3 99.3002 123.9C101 125.8 103 127.3 105.3 128.3C108.6 129.7 112 130.1 115.4 128.8C116.5 128.4 117.7 127.8 117.9 126.4C113.9 126.1 112.2 124.8 110.9 121C109.4 116.6 106.9 103.9 107 103.6C107 103.5 107 103.3 106.9 103.2C105.2 95.5999 99.3002 91.4999 93.8002 86.8999C92.8002 86.0999 91.7002 85.3999 90.7002 84.5999C90.4002 84.3999 90.1002 84.1999 89.9002 83.8999C89.3002 83.0999 88.6002 82.0999 89.0002 81.1999C89.3002 80.3999 90.5002 80.8999 91.3002 80.9999C96.4002 81.3999 101.6 81.2999 106.7 81.1999C110.5 80.7999 113.9 79.5999 116.5 76.6999C118.1 74.9999 119.4 73.0999 120.5 71.0999C121.5 69.2999 122.4 67.4999 123.6 65.7999C125.5 63.0999 127.8 61.1999 131.4 60.6999C135 60.1999 137.9 58.0999 140.1 55.1999C141.6 53.2999 142 50.8999 141.4 48.2999ZM87.9002 69.2999C87.5002 70.4999 86.9002 71.5999 86.4002 72.7999C84.9002 75.7999 84.2002 78.9999 85.0002 82.2999C85.3002 83.7999 84.9002 84.8999 83.8002 85.7999C81.2002 87.8999 78.4002 88.7999 75.2002 87.1999C72.6002 85.8999 70.1002 85.8999 67.5002 87.1999C64.4002 88.6999 60.4002 87.6999 58.3002 85.0999C57.7002 84.3999 57.5002 83.5999 57.7002 82.7999C58.6002 78.9999 57.7002 75.4999 56.0002 72.0999C55.4002 70.9999 54.9002 69.8999 54.7002 68.6999C54.1002 65.9999 55.6002 63.4999 58.2002 62.7999C59.4002 62.4999 60.6002 62.3999 61.8002 62.1999C63.5002 61.9999 64.7002 61.1999 65.5002 59.5999C66.8002 57.1999 68.9002 56.1999 71.4002 56.0999C73.9002 56.1999 76.0002 56.9999 77.1002 59.0999C78.3002 61.3999 80.2002 62.1999 82.6002 62.3999C84.0002 62.4999 85.4002 62.6999 86.6002 63.6999C88.1002 65.1999 88.6002 67.0999 87.9002 69.2999Z" fill="#71C3D0"/>
<path d="M46.2998 36.5C50.5998 42.7 55.1998 48.5 58.9998 55C56.1998 52.6 53.1999 50.5 50.1999 48.4C48.9999 47.6 47.6999 47 46.6999 46.1C45.1999 41.7 43.0998 37.4 42.2998 32.8C42.1998 32.1 41.7998 31.1 42.5998 30.7C43.2998 30.3 43.9998 31 44.5998 31.4C47.2998 33.3 49.5998 35.7 51.9998 37.9C52.9998 38.6 55.6998 41.2 55.9998 42C55.9998 42.1 58.2998 49.9 59.2998 53.1C59.3998 53.3 59.4998 53.5 59.2998 53.7C59.1998 53.6 59.0998 53.4 58.9998 53.3C58.6998 52.8 58.2998 52.4 57.9998 51.9C54.7998 46.8 51.2998 42.1 47.5998 37.4C47.2998 37 47.0998 36.3 46.2998 36.5Z" fill="#78AE56"/>
<path d="M87.5002 54.4C87.4002 54.4 87.3002 54.4999 87.2002 54.4999C87.2002 54.3999 87.2002 54.3 87.3002 54.2C87.4002 54.3 87.4002 54.3 87.5002 54.4Z" fill="#587F49"/>
<path d="M89.3004 53.8999C89.2004 53.9999 89.0004 54.1999 88.9004 53.8999C88.9004 53.7999 89.0004 53.6999 89.1004 53.5999C89.1004 53.7999 89.2004 53.8999 89.3004 53.8999Z" fill="#587F49"/>
<path d="M68.4003 66.3998C68.4003 65.9998 68.4003 65.5998 68.4003 65.2998C68.4003 63.8998 69.3003 62.8998 70.6003 62.7998C72.0003 62.6998 73.0003 63.5998 73.2003 65.0998C73.3003 66.0998 73.3003 67.0998 73.3003 68.0998C73.4003 69.1998 73.9003 69.5998 75.0003 69.2998C75.9003 69.0998 76.7003 68.7998 77.6003 68.5998C79.2003 68.1998 80.5003 68.8998 80.8003 70.2998C81.1003 71.5998 80.3003 72.7998 78.8003 73.1998C77.9003 73.4998 77.0003 73.6998 76.1003 73.8998C75.3003 74.0998 75.1003 74.6998 75.4003 75.3998C75.8003 76.2998 76.3003 77.0998 76.8003 77.9998C77.5003 79.3998 77.1003 80.7998 75.9003 81.3998C74.7003 81.9998 73.4003 81.5998 72.7003 80.2998C72.3003 79.5998 71.9003 78.8998 71.6003 78.1998C71.1003 77.2998 70.6003 77.1998 69.9003 77.9998C69.4003 78.5998 68.9003 79.1998 68.3003 79.7998C67.3003 80.8998 65.9003 81.0998 64.9003 80.1998C63.8003 79.2998 63.7003 77.8998 64.7003 76.6998C65.3003 75.9998 65.9003 75.2998 66.4003 74.5998C66.9003 73.8998 66.8003 73.3998 66.0003 73.0998C65.2003 72.7998 64.3003 72.4998 63.5003 72.0998C62.1003 71.4998 61.5003 70.2998 62.0003 68.9998C62.5003 67.6998 63.8003 67.0998 65.3003 67.5998C65.9003 67.7998 66.4003 68.0998 67.0003 68.2998C68.5003 68.8998 68.6003 68.7998 68.7003 67.1998C68.4003 67.0998 68.4003 66.3998 68.4003 66.3998Z" fill="#C677CE"/>
<path d="M173.181 68.1346C175.951 68.9755 178.128 70.4101 179.711 72.4383C181.344 74.4171 182.16 76.841 182.16 79.7102C182.16 83.7666 180.676 87.2046 177.708 90.0244C174.789 92.8441 171.277 94.2539 167.171 94.2539H145.652V43.7961H166.429C170.188 43.7961 173.379 45.1565 176.001 47.8772C178.623 50.598 179.934 53.8629 179.934 57.672C179.934 62.6683 177.683 66.1558 173.181 68.1346ZM167.171 87.9467C169.595 87.9467 171.648 87.1552 173.33 85.5722C175.061 83.9397 175.927 81.9857 175.927 79.7102C175.927 77.4346 175.061 75.5054 173.33 73.9224C171.648 72.3394 169.595 71.5479 167.171 71.5479H151.959V87.9467H167.171ZM151.959 50.1033V65.1664H166.429C168.408 65.1664 170.089 64.4492 171.475 63.0146C172.909 61.5305 173.626 59.7496 173.626 57.672C173.626 55.5943 172.909 53.8134 171.475 52.3294C170.089 50.8453 168.408 50.1033 166.429 50.1033H151.959ZM205.865 95.3669C200.819 95.3669 196.516 93.5861 192.954 90.0244C189.392 86.4626 187.611 82.1589 187.611 77.1131C187.611 72.0673 189.392 67.7635 192.954 64.2018C196.516 60.6401 200.819 58.8592 205.865 58.8592C210.862 58.8592 215.141 60.6401 218.702 64.2018C222.313 67.813 224.119 72.1168 224.119 77.1131C224.119 82.1094 222.313 86.4132 218.702 90.0244C215.141 93.5861 210.862 95.3669 205.865 95.3669ZM214.695 68.283C212.271 65.8095 209.328 64.5728 205.865 64.5728C202.402 64.5728 199.434 65.8095 196.961 68.283C194.537 70.7069 193.325 73.6503 193.325 77.1131C193.325 80.5759 194.537 83.544 196.961 86.0174C199.434 88.4414 202.402 89.6533 205.865 89.6533C209.328 89.6533 212.271 88.4414 214.695 86.0174C217.169 83.544 218.405 80.5759 218.405 77.1131C218.405 73.6503 217.169 70.7069 214.695 68.283ZM246.212 58.8592C246.36 58.8592 246.608 58.884 246.954 58.9334C247.3 58.9334 247.547 58.9334 247.696 58.9334V64.7212C247.003 64.6223 246.509 64.5728 246.212 64.5728C243.54 64.5728 241.265 65.5375 239.385 67.4667C237.505 69.3465 236.565 71.6221 236.565 74.2934V94.2539H230.852V74.2934C230.852 70.0391 232.336 66.4032 235.304 63.3856C238.322 60.368 241.957 58.8592 246.212 58.8592ZM266.774 95.3669C262.124 95.3669 258.142 93.5861 254.827 90.0244C251.562 86.4626 249.93 82.1589 249.93 77.1131C249.93 72.0673 251.711 67.7635 255.273 64.2018C258.834 60.6401 263.138 58.8592 268.184 58.8592C273.18 58.8592 277.459 60.6401 281.021 64.2018C284.632 67.813 286.438 72.1168 286.438 77.1131V94.2539H280.724V87.2789C279.191 89.7523 277.187 91.731 274.714 93.2151C272.29 94.6497 269.643 95.3669 266.774 95.3669ZM277.014 68.283C274.59 65.8095 271.647 64.5728 268.184 64.5728C264.721 64.5728 261.753 65.8095 259.28 68.283C256.856 70.7069 255.644 73.6503 255.644 77.1131C255.644 80.5759 256.856 83.544 259.28 86.0174C261.753 88.4414 264.721 89.6533 268.184 89.6533C271.647 89.6533 274.59 88.4414 277.014 86.0174C279.487 83.544 280.724 80.5759 280.724 77.1131C280.724 73.6503 279.487 70.7069 277.014 68.283ZM264.622 52.552L270.558 42.9056H276.495L269.371 52.552H264.622ZM297.364 90.0244C294.099 86.4626 292.466 82.1589 292.466 77.1131C292.466 72.0673 294.247 67.7635 297.809 64.2018C301.37 60.6401 305.674 58.8592 310.72 58.8592C315.716 58.8592 319.995 60.6401 323.557 64.2018C327.168 67.813 328.974 72.1168 328.974 77.1131V92.3246C328.974 97.3704 327.193 101.674 323.631 105.236C320.168 108.699 315.889 110.48 310.794 110.579V104.939C314.158 104.939 317.101 103.678 319.624 101.155C322.048 98.7803 323.26 95.8369 323.26 92.3246V87.2789C321.727 89.7523 319.723 91.731 317.25 93.2151C314.826 94.6497 312.179 95.3669 309.31 95.3669C304.66 95.3669 300.678 93.5861 297.364 90.0244ZM319.55 68.283C317.126 65.8095 314.183 64.5728 310.72 64.5728C307.257 64.5728 304.289 65.8095 301.816 68.283C299.392 70.7069 298.18 73.6503 298.18 77.1131C298.18 80.5759 299.392 83.544 301.816 86.0174C304.289 88.4414 307.257 89.6533 310.72 89.6533C314.183 89.6533 317.126 88.4414 319.55 86.0174C322.024 83.544 323.26 80.5759 323.26 77.1131C323.26 73.6503 322.024 70.7069 319.55 68.283ZM353.256 95.3669C348.21 95.3669 343.907 93.5861 340.345 90.0244C336.783 86.4626 335.002 82.1589 335.002 77.1131C335.002 72.0673 336.783 67.7635 340.345 64.2018C343.907 60.6401 348.21 58.8592 353.256 58.8592C358.252 58.8592 362.531 60.6401 366.093 64.2018C369.704 67.813 371.51 72.1168 371.51 77.1131C371.51 82.1094 369.704 86.4132 366.093 90.0244C362.531 93.5861 358.252 95.3669 353.256 95.3669ZM362.086 68.283C359.662 65.8095 356.719 64.5728 353.256 64.5728C349.793 64.5728 346.825 65.8095 344.352 68.283C341.928 70.7069 340.716 73.6503 340.716 77.1131C340.716 80.5759 341.928 83.544 344.352 86.0174C346.825 88.4414 349.793 89.6533 353.256 89.6533C356.719 89.6533 359.662 88.4414 362.086 86.0174C364.56 83.544 365.796 80.5759 365.796 77.1131C365.796 73.6503 364.56 70.7069 362.086 68.283ZM351.253 52.552L357.189 42.9056H363.125L356.002 52.552H351.253Z" fill="#354E36"/>
</svg>
