<svg width="1011" height="136" viewBox="0 0 1011 136" fill="none" xmlns="http://www.w3.org/2000/svg">
<path d="M128.296 32.4289C140.752 32.4289 150.633 36.2016 157.938 43.7469C165.364 51.2923 169.077 61.7719 169.077 75.1859V133.752H138.536V79.3179C138.536 72.8504 136.799 67.8801 133.326 64.4068C129.973 60.8138 125.302 59.0173 119.313 59.0173C113.325 59.0173 108.594 60.8138 105.121 64.4068C101.767 67.8801 100.091 72.8504 100.091 79.3179V133.752H69.55V79.3179C69.55 72.8504 67.8133 67.8801 64.3401 64.4068C60.9866 60.8138 56.3157 59.0173 50.3273 59.0173C44.3389 59.0173 39.6081 60.8138 36.1349 64.4068C32.7814 67.8801 31.1046 72.8504 31.1046 79.3179V133.752H0.384277V33.5068H31.1046V46.0824C34.2186 41.8905 38.2907 38.5969 43.3209 36.2016C48.3511 33.6865 54.0401 32.4289 60.3878 32.4289C67.9331 32.4289 74.6401 34.0458 80.5087 37.2795C86.4971 40.5132 91.168 45.1243 94.5215 51.1126C97.9947 45.6033 102.726 41.112 108.714 37.6388C114.702 34.1655 121.23 32.4289 128.296 32.4289Z" fill="#362065"/>
<path d="M184.454 83.4498C184.454 73.1498 186.37 64.1074 190.203 56.3225C194.155 48.5376 199.485 42.5493 206.192 38.3574C212.898 34.1655 220.384 32.0696 228.648 32.0696C235.714 32.0696 241.882 33.5068 247.152 36.3812C252.542 39.2557 256.674 43.0283 259.548 47.6993V33.5068H290.268V133.752H259.548V119.56C256.554 124.231 252.362 128.003 246.972 130.878C241.703 133.752 235.535 135.189 228.468 135.189C220.324 135.189 212.898 133.093 206.192 128.902C199.485 124.59 194.155 118.542 190.203 110.757C186.37 102.852 184.454 93.7498 184.454 83.4498ZM259.548 83.6295C259.548 75.9644 257.392 69.9161 253.08 65.4847C248.889 61.0533 243.739 58.8376 237.63 58.8376C231.522 58.8376 226.312 61.0533 222.001 65.4847C217.809 69.7964 215.713 75.7847 215.713 83.4498C215.713 91.115 217.809 97.2231 222.001 101.774C226.312 106.206 231.522 108.421 237.63 108.421C243.739 108.421 248.889 106.206 253.08 101.774C257.392 97.3429 259.548 91.2946 259.548 83.6295Z" fill="#362065"/>
<path d="M531.081 82.013C531.081 84.8874 530.901 87.8816 530.542 90.9955H461.017C461.496 97.2234 463.472 102.014 466.945 105.368C470.538 108.601 474.91 110.218 480.06 110.218C487.725 110.218 493.055 106.984 496.049 100.517H528.745C527.068 107.104 524.014 113.033 519.583 118.303C515.271 123.572 509.822 127.704 503.235 130.698C496.648 133.693 489.282 135.19 481.138 135.19C471.317 135.19 462.574 133.094 454.909 128.902C447.244 124.71 441.255 118.722 436.943 110.937C432.632 103.152 430.476 94.0496 430.476 83.6298C430.476 73.2101 432.572 64.1077 436.764 56.3229C441.075 48.538 447.064 42.5496 454.729 38.3577C462.394 34.1659 471.197 32.0699 481.138 32.0699C490.839 32.0699 499.462 34.106 507.007 38.1781C514.553 42.2502 520.421 48.0589 524.613 55.6042C528.925 63.1496 531.081 71.9525 531.081 82.013ZM499.642 73.9287C499.642 68.6589 497.845 64.467 494.252 61.3531C490.659 58.2391 486.168 56.6822 480.778 56.6822C475.628 56.6822 471.257 58.1793 467.664 61.1734C464.191 64.1676 462.035 68.4194 461.196 73.9287H499.642Z" fill="#362065"/>
<path d="M696.547 33.5068L669.42 133.752H635.466L619.656 68.7184L603.308 133.752H569.534L542.227 33.5068H572.947L587.139 105.188L604.027 33.5068H636.543L653.61 104.828L667.623 33.5068H696.547Z" fill="#007CFE"/>
<path d="M802.759 82.0126C802.759 84.8871 802.579 87.8812 802.22 90.9952H732.695C733.174 97.2231 735.15 102.014 738.623 105.367C742.216 108.601 746.588 110.218 751.738 110.218C759.403 110.218 764.733 106.984 767.727 100.517H800.423C798.746 107.104 795.692 113.032 791.261 118.302C786.949 123.572 781.5 127.704 774.913 130.698C768.326 133.692 760.96 135.189 752.816 135.189C742.995 135.189 734.252 133.093 726.587 128.902C718.921 124.71 712.933 118.721 708.621 110.936C704.31 103.152 702.154 94.0493 702.154 83.6295C702.154 73.2097 704.25 64.1074 708.442 56.3225C712.753 48.5376 718.742 42.5493 726.407 38.3574C734.072 34.1655 742.875 32.0696 752.816 32.0696C762.517 32.0696 771.14 34.1056 778.685 38.1777C786.231 42.2498 792.099 48.0586 796.291 55.6039C800.603 63.1493 802.759 71.9522 802.759 82.0126ZM771.32 73.9283C771.32 68.6586 769.523 64.4667 765.93 61.3527C762.337 58.2388 757.846 56.6818 752.456 56.6818C747.306 56.6818 742.935 58.1789 739.342 61.1731C735.869 64.1673 733.713 68.419 732.874 73.9283H771.32Z" fill="#007CFE"/>
<path d="M849.685 47.6993C852.56 43.0283 856.692 39.2557 862.081 36.3812C867.471 33.5068 873.639 32.0696 880.586 32.0696C888.849 32.0696 896.335 34.1655 903.042 38.3574C909.749 42.5493 915.019 48.5376 918.851 56.3225C922.803 64.1074 924.78 73.1498 924.78 83.4498C924.78 93.7498 922.803 102.852 918.851 110.757C915.019 118.542 909.749 124.59 903.042 128.902C896.335 133.093 888.849 135.189 880.586 135.189C873.519 135.189 867.351 133.812 862.081 131.057C856.812 128.183 852.68 124.41 849.685 119.739V133.752H818.965V0.810303H849.685V47.6993ZM893.52 83.4498C893.52 75.7847 891.365 69.7964 887.053 65.4847C882.861 61.0533 877.651 58.8376 871.423 58.8376C865.315 58.8376 860.105 61.0533 855.794 65.4847C851.602 69.9161 849.506 75.9644 849.506 83.6295C849.506 91.2946 851.602 97.3429 855.794 101.774C860.105 106.206 865.315 108.421 871.423 108.421C877.531 108.421 882.741 106.206 887.053 101.774C891.365 97.2231 893.52 91.115 893.52 83.4498Z" fill="#007CFE"/>
<rect x="312.686" y="1.2139" width="30.6159" height="132.525" fill="#362065"/>
<path d="M350.993 83.796L388.935 133.739H427.021L384.983 83.796L426.662 33.4937H388.756L358.395 74.2745L350.993 83.796Z" fill="#362065"/>
<path d="M1010.62 83.4371L973.231 33.4941L935.145 33.4941L977.183 83.4371L935.504 133.739L973.41 133.739L1003.77 92.9586L1010.62 83.4371Z" fill="#362065"/>
</svg>
