<svg width="150" height="32" viewBox="0 0 150 32" fill="none" xmlns="http://www.w3.org/2000/svg">
<path d="M28.3657 23.2391H27.3666C26.7004 23.2391 26.2841 22.9614 26.1176 22.4339L23.9804 14.9652C23.8139 14.3821 23.6474 13.5214 23.5086 12.4386L23.4531 11.9666H23.3143L23.2588 12.4386C23.12 13.4381 22.9535 14.2711 22.7592 14.9652L20.6221 22.4339C20.4833 22.9892 20.067 23.2391 19.4008 23.2391H18.4294C17.7355 23.2391 17.347 22.9614 17.2082 22.4339L13.3225 9.16235C13.1837 8.74588 13.1559 8.44047 13.2669 8.32941C13.3502 8.19059 13.6278 8.13506 14.0441 8.13506H15.1821C15.7372 8.13506 16.1257 8.19058 16.3478 8.30164C16.5698 8.4127 16.7086 8.66259 16.7919 9.02353L18.4572 15.5482L18.9567 19.1021H19.0955C19.0955 19.0188 19.1233 18.7967 19.1788 18.408C19.2343 18.0193 19.3176 17.5473 19.4008 16.9642C19.5119 16.3812 19.6229 15.9092 19.7061 15.4927L21.6213 9.10683C21.7323 8.69036 21.871 8.44047 22.0653 8.32941C22.2319 8.21835 22.5927 8.16282 23.12 8.16282H23.7861C24.3135 8.16282 24.6743 8.21835 24.8408 8.32941C25.0074 8.44047 25.1739 8.69035 25.2849 9.07906L27.2278 15.4927C27.3388 15.9369 27.4498 16.4645 27.5608 17.0198C27.6719 17.6028 27.7274 18.0471 27.7829 18.408C27.8106 18.7689 27.8384 18.9911 27.8384 19.0744H28.0049L28.0604 18.5191C28.0882 17.5473 28.2547 16.5478 28.5045 15.4927L29.6702 10.7449C27.6164 4.49788 21.7323 0 14.8212 0C8.93715 0 3.80245 3.24847 1.13796 8.07953C1.19347 8.07953 1.24898 8.07953 1.33224 8.07953H2.33143C2.99755 8.07953 3.41388 8.35717 3.58041 8.8847L5.71756 16.3534C5.88409 16.9365 6.05061 17.7972 6.18939 18.88L6.2449 19.352H6.38368L6.43919 18.88C6.57797 17.8805 6.7445 17.0475 6.93878 16.3534L9.07593 8.8847C9.21471 8.32941 9.63103 8.07953 10.2972 8.07953H11.2686C11.9625 8.07953 12.351 8.35717 12.4898 8.8847L16.3755 22.1562C16.5143 22.5727 16.5421 22.8781 16.431 22.9892C16.3478 23.128 16.0702 23.1835 15.6539 23.1835H14.5159C13.9608 23.1835 13.5723 23.128 13.3502 23.0169C13.1282 22.9059 12.9894 22.656 12.9061 22.2951L11.2408 15.7704L10.7412 12.2165H10.6025C10.6025 12.2998 10.5747 12.5219 10.5192 12.9106C10.4637 13.2993 10.3804 13.7713 10.2972 14.3544C10.1861 14.9374 10.0751 15.4094 9.99185 15.8259L8.07674 22.2118C7.96572 22.6282 7.82695 22.8781 7.63266 22.9892C7.46613 23.1002 7.10532 23.1558 6.57797 23.1558H5.91184C5.38449 23.1558 5.02368 23.1002 4.85715 22.9892C4.69062 22.8781 4.52408 22.6282 4.41306 22.2395L2.4702 15.8259C2.35918 15.3816 2.24817 14.8541 2.13715 14.2988C2.02613 13.7158 1.97061 13.2715 1.9151 12.9106C1.88735 12.5496 1.8596 12.3275 1.8596 12.2442H1.66531L1.60979 12.7995C1.58204 13.7713 1.41551 14.7708 1.16572 15.8259L0 20.5736C2.05388 26.8207 7.93797 31.3186 14.849 31.3186C20.7331 31.3186 25.8678 28.0701 28.5323 23.2391C28.4768 23.2113 28.4213 23.2391 28.3657 23.2391Z" fill="#78AE56"/>
<path d="M46.6865 8.25641C48.1916 7.65068 49.8069 7.34781 51.5323 7.34781C55.13 7.34781 56.9288 9.17418 56.9288 12.8269V21.1695C56.9288 21.4815 56.8646 21.7018 56.7361 21.8303C56.626 21.9588 56.4149 22.023 56.1028 22.023H54.5885C54.2765 22.023 54.0562 21.9588 53.9277 21.8303C53.7992 21.7018 53.735 21.4815 53.735 21.1695V12.9371C53.735 11.1566 52.8447 10.2663 51.0642 10.2663C50.2566 10.2663 49.3664 10.4315 48.3935 10.7619C48.5954 11.3126 48.6964 12.0009 48.6964 12.8269V21.1695C48.6964 21.4815 48.6321 21.7018 48.5037 21.8303C48.3752 21.9588 48.1549 22.023 47.8429 22.023H46.3561C46.044 22.023 45.8238 21.9588 45.6953 21.8303C45.5668 21.7018 45.5025 21.4815 45.5025 21.1695V12.9371C45.5025 11.1566 44.6031 10.2663 42.8043 10.2663C42.015 10.2663 41.2808 10.3765 40.6016 10.5967C40.4548 10.6518 40.3814 10.7619 40.3814 10.9271V21.1695C40.3814 21.4815 40.3171 21.7018 40.1886 21.8303C40.0785 21.9588 39.8674 22.023 39.5554 22.023H38.041C37.729 22.023 37.5087 21.9588 37.3802 21.8303C37.2517 21.7018 37.1875 21.4815 37.1875 21.1695V9.85334C37.1875 9.4128 37.2609 9.09158 37.4078 8.88967C37.5546 8.66941 37.8391 8.4675 38.2613 8.28394C39.7481 7.65986 41.4184 7.34781 43.2723 7.34781C44.7224 7.34781 45.8605 7.65068 46.6865 8.25641Z" fill="#78AE56"/>
<path d="M59.7688 10.2113C60.76 8.3023 62.6598 7.34781 65.4682 7.34781C69.3963 7.34781 71.3603 9.23843 71.3603 13.0197V20.1508C71.3603 20.628 71.2869 20.9676 71.14 21.1695C71.0116 21.3714 70.7546 21.555 70.3691 21.7202C69.2494 22.1974 67.5974 22.436 65.4131 22.436C63.0636 22.436 61.4575 22.0689 60.5948 21.3347C59.7138 20.6188 59.2732 19.4991 59.2732 17.9756C59.2732 16.342 59.7505 15.1948 60.705 14.534C61.6594 13.8732 63.2655 13.5428 65.5233 13.5428C65.5416 13.5428 66.4227 13.5887 68.1665 13.6805V12.9095C68.1665 11.9917 67.9462 11.3126 67.5057 10.8721C67.0835 10.4132 66.386 10.1837 65.4131 10.1837C64.0548 10.1837 63.0912 10.6243 62.5221 11.5053C62.3202 11.799 62.1459 11.9734 61.999 12.0285C61.8705 12.0652 61.6503 12.0285 61.3382 11.9183L60.2369 11.4503C59.6312 11.1749 59.4751 10.7619 59.7688 10.2113ZM68.1665 19.1871V16.2961C67.6158 16.2778 67.0835 16.2594 66.5695 16.241C66.0739 16.2043 65.716 16.186 65.4957 16.186C65.2938 16.1676 65.1837 16.1584 65.1653 16.1584C64.1925 16.1584 63.5042 16.3053 63.1003 16.599C62.7149 16.8743 62.5221 17.324 62.5221 17.9481C62.5221 18.5905 62.7057 19.0586 63.0728 19.3523C63.4583 19.646 64.1374 19.7928 65.1103 19.7928C66.2483 19.7928 67.1661 19.7194 67.8636 19.5726C68.0655 19.4808 68.1665 19.3523 68.1665 19.1871Z" fill="#78AE56"/>
<path d="M84.0409 16.186L86.4363 21.0043C86.6382 21.3714 86.7024 21.6376 86.629 21.8028C86.5556 21.9496 86.3169 22.023 85.9131 22.023H84.5089C84.0317 22.023 83.7013 21.9771 83.5177 21.8854C83.3525 21.7936 83.1965 21.5825 83.0497 21.2521L81.3426 17.5902C80.9388 16.6908 80.2046 16.241 79.14 16.241H77.488V21.142C77.488 21.4724 77.4237 21.7018 77.2952 21.8303C77.1851 21.9588 76.9556 22.023 76.6069 22.023H75.2027C74.8539 22.023 74.6153 21.9588 74.4868 21.8303C74.3583 21.7018 74.2941 21.4724 74.2941 21.142V2.5295C74.2941 2.1991 74.3583 1.96966 74.4868 1.84117C74.6153 1.71268 74.8539 1.64844 75.2027 1.64844H76.6069C76.9556 1.64844 77.1851 1.71268 77.2952 1.84117C77.4237 1.96966 77.488 2.1991 77.488 2.5295V13.2675H78.727H78.9197L82.6642 8.39408C82.8661 8.11874 83.0588 7.94437 83.2424 7.87094C83.4443 7.79752 83.8022 7.76081 84.3162 7.76081H85.6653C86.5647 7.76081 86.7483 8.09121 86.216 8.75201L82.0585 13.9007C82.8294 14.2862 83.4902 15.0479 84.0409 16.186Z" fill="#78AE56"/>
<path d="M87.9684 16.5439V13.295C87.9684 11.3677 88.5099 9.89922 89.5929 8.88967C90.6942 7.86177 92.282 7.34781 94.3561 7.34781C96.3936 7.34781 97.963 7.87094 99.0643 8.91721C100.166 9.94511 100.716 11.3218 100.716 13.0472V14.7267C100.716 15.516 100.303 15.9106 99.4773 15.9106H91.1623V16.9294C91.1623 17.8288 91.4284 18.5171 91.9607 18.9944C92.5114 19.4533 93.2915 19.6827 94.3011 19.6827C95.8246 19.6827 96.9075 19.1963 97.55 18.2234C97.7703 17.9114 97.9722 17.737 98.1557 17.7003C98.3576 17.6452 98.6238 17.7095 98.9542 17.893L99.9178 18.4162C100.542 18.7099 100.652 19.1687 100.248 19.7928C99.1836 21.555 97.2012 22.436 94.3011 22.436C92.2085 22.436 90.63 21.9221 89.5654 20.8942C88.5007 19.8479 87.9684 18.3978 87.9684 16.5439ZM97.5225 13.4602V12.8545C97.5225 11.955 97.2563 11.2667 96.724 10.7895C96.1917 10.2939 95.4024 10.0461 94.3561 10.0461C93.3282 10.0461 92.5389 10.2939 91.9883 10.7895C91.4376 11.2667 91.1623 11.955 91.1623 12.8545V13.4602H97.5225Z" fill="#78AE56"/>
<path d="M119.585 7.76081H120.493C120.897 7.76081 121.145 7.82506 121.237 7.95354C121.329 8.08203 121.319 8.34819 121.209 8.75201L117.52 21.2796C117.391 21.7936 117.006 22.0506 116.363 22.0506H115.427C114.803 22.0506 114.408 21.7936 114.243 21.2796L112.233 14.2311C112.068 13.6805 111.921 12.882 111.793 11.8357L111.738 11.3952H111.6L111.545 11.8357C111.417 12.7719 111.261 13.5703 111.077 14.2311L109.067 21.2796C108.939 21.7936 108.553 22.0506 107.911 22.0506H107.002C106.36 22.0506 105.974 21.7936 105.846 21.2796L102.184 8.75201C102.055 8.34819 102.037 8.08203 102.129 7.95354C102.22 7.82506 102.468 7.76081 102.872 7.76081H103.946C104.478 7.76081 104.845 7.81588 105.047 7.92601C105.249 8.03614 105.387 8.26559 105.46 8.61434L107.03 14.7818L107.498 18.1408H107.635C107.635 18.0674 107.654 17.8563 107.69 17.5076C107.745 17.1405 107.819 16.6908 107.911 16.1584C108.021 15.6078 108.122 15.1397 108.214 14.7542L110.031 8.72447C110.141 8.33901 110.279 8.10039 110.444 8.00861C110.609 7.89848 110.939 7.84341 111.435 7.84341H112.068C112.564 7.84341 112.894 7.89848 113.059 8.00861C113.225 8.10039 113.362 8.32983 113.472 8.69694L115.317 14.7542C115.427 15.1764 115.528 15.6628 115.62 16.2135C115.73 16.7458 115.804 17.1863 115.84 17.5351C115.877 17.8655 115.895 18.0674 115.895 18.1408H116.06L116.116 17.6177C116.152 16.6999 116.29 15.7454 116.529 14.7542L118.043 8.61434C118.116 8.26559 118.254 8.03614 118.456 7.92601C118.676 7.81588 119.052 7.76081 119.585 7.76081Z" fill="#78AE56"/>
<path d="M122.546 16.5439V13.295C122.546 11.3677 123.088 9.89922 124.171 8.88967C125.272 7.86177 126.86 7.34781 128.934 7.34781C130.971 7.34781 132.541 7.87094 133.642 8.91721C134.743 9.94511 135.294 11.3218 135.294 13.0472V14.7267C135.294 15.516 134.881 15.9106 134.055 15.9106H125.74V16.9294C125.74 17.8288 126.006 18.5171 126.539 18.9944C127.089 19.4533 127.869 19.6827 128.879 19.6827C130.402 19.6827 131.485 19.1963 132.128 18.2234C132.348 17.9114 132.55 17.737 132.734 17.7003C132.935 17.6452 133.202 17.7095 133.532 17.893L134.496 18.4162C135.12 18.7099 135.23 19.1687 134.826 19.7928C133.761 21.555 131.779 22.436 128.879 22.436C126.786 22.436 125.208 21.9221 124.143 20.8942C123.079 19.8479 122.546 18.3978 122.546 16.5439ZM132.1 13.4602V12.8545C132.1 11.955 131.834 11.2667 131.302 10.7895C130.77 10.2939 129.98 10.0461 128.934 10.0461C127.906 10.0461 127.117 10.2939 126.566 10.7895C126.015 11.2667 125.74 11.955 125.74 12.8545V13.4602H132.1Z" fill="#78AE56"/>
<path d="M138.629 1.64844H140.143C140.455 1.64844 140.666 1.71268 140.776 1.84117C140.905 1.96966 140.969 2.18992 140.969 2.50197V7.81588C142.364 7.50383 143.465 7.34781 144.273 7.34781C148.091 7.34781 150 9.19254 150 12.882V16.599C150 20.4903 147.926 22.436 143.777 22.436C141.85 22.436 140.189 22.1423 138.794 21.555C138.353 21.353 138.069 21.1603 137.94 20.9768C137.83 20.7932 137.775 20.4812 137.775 20.0406V2.50197C137.775 2.18992 137.839 1.96966 137.968 1.84117C138.096 1.71268 138.317 1.64844 138.629 1.64844ZM146.806 16.5164V12.9646C146.806 12.1019 146.549 11.4411 146.035 10.9822C145.521 10.505 144.778 10.2663 143.805 10.2663C142.906 10.2663 141.96 10.4315 140.969 10.7619V18.8842C140.969 19.0311 141.042 19.132 141.189 19.1871C141.813 19.4074 142.603 19.5175 143.557 19.5175C145.723 19.5175 146.806 18.5171 146.806 16.5164Z" fill="#78AE56"/>
</svg>
