<svg width="20" height="20" viewBox="0 0 20 20" fill="none" xmlns="http://www.w3.org/2000/svg">
<path d="M10.5915 13.575L10.4665 13.475C10.4201 13.4434 10.3696 13.4182 10.3165 13.4L10.1665 13.3333C10.0314 13.305 9.89131 13.3108 9.75894 13.3501C9.62657 13.3894 9.50604 13.4609 9.40817 13.5583C9.33456 13.6393 9.27537 13.7323 9.23317 13.8333C9.17011 13.9851 9.15336 14.1522 9.18505 14.3136C9.21674 14.4749 9.29544 14.6232 9.41125 14.7399C9.52706 14.8566 9.67481 14.9365 9.83589 14.9694C9.99697 15.0023 10.1642 14.9869 10.3165 14.925C10.4161 14.8766 10.5086 14.815 10.5915 14.7416C10.7071 14.6244 10.7855 14.4756 10.8166 14.314C10.8478 14.1523 10.8303 13.9851 10.7665 13.8333C10.725 13.7369 10.6656 13.6493 10.5915 13.575ZM13.3332 1.66663H6.6665C6.00346 1.66663 5.36758 1.93002 4.89874 2.39886C4.4299 2.8677 4.1665 3.50358 4.1665 4.16663V15.8333C4.1665 16.4963 4.4299 17.1322 4.89874 17.6011C5.36758 18.0699 6.00346 18.3333 6.6665 18.3333H13.3332C13.9962 18.3333 14.6321 18.0699 15.1009 17.6011C15.5698 17.1322 15.8332 16.4963 15.8332 15.8333V4.16663C15.8332 3.50358 15.5698 2.8677 15.1009 2.39886C14.6321 1.93002 13.9962 1.66663 13.3332 1.66663ZM14.1665 15.8333C14.1665 16.0543 14.0787 16.2663 13.9224 16.4225C13.7661 16.5788 13.5542 16.6666 13.3332 16.6666H6.6665C6.44549 16.6666 6.23353 16.5788 6.07725 16.4225C5.92097 16.2663 5.83317 16.0543 5.83317 15.8333V4.16663C5.83317 3.94561 5.92097 3.73365 6.07725 3.57737C6.23353 3.42109 6.44549 3.33329 6.6665 3.33329H13.3332C13.5542 3.33329 13.7661 3.42109 13.9224 3.57737C14.0787 3.73365 14.1665 3.94561 14.1665 4.16663V15.8333Z" fill="#78AE56"/>
</svg>
