<svg width="30" height="30" viewBox="0 0 30 30" fill="none" xmlns="http://www.w3.org/2000/svg">
<path d="M19.425 14.1125L12.35 7.05C12.2338 6.93284 12.0956 6.83985 11.9433 6.77639C11.7909 6.71293 11.6276 6.68025 11.4625 6.68025C11.2975 6.68025 11.1341 6.71293 10.9818 6.77639C10.8295 6.83985 10.6912 6.93284 10.575 7.05C10.3422 7.2842 10.2115 7.60102 10.2115 7.93125C10.2115 8.26148 10.3422 8.5783 10.575 8.8125L16.7625 15.0625L10.575 21.25C10.3422 21.4842 10.2115 21.801 10.2115 22.1312C10.2115 22.4615 10.3422 22.7783 10.575 23.0125C10.6908 23.1306 10.8289 23.2246 10.9812 23.2889C11.1336 23.3533 11.2972 23.3868 11.4625 23.3875C11.6279 23.3868 11.7915 23.3533 11.9439 23.2889C12.0962 23.2246 12.2343 23.1306 12.35 23.0125L19.425 15.95C19.5519 15.8329 19.6532 15.6909 19.7224 15.5328C19.7917 15.3746 19.8275 15.2039 19.8275 15.0312C19.8275 14.8586 19.7917 14.6879 19.7224 14.5297C19.6532 14.3716 19.5519 14.2296 19.425 14.1125Z" fill="#C677CE"/>
</svg>
