<svg width="40" height="40" viewBox="0 0 40 40" fill="none" xmlns="http://www.w3.org/2000/svg">
<path d="M10.4833 17.1667C10.2116 17.4395 10.0428 17.7981 10.0056 18.1814C9.9683 18.5646 10.0649 18.949 10.279 19.2691C10.493 19.5892 10.8113 19.8253 11.1797 19.9373C11.5482 20.0492 11.944 20.0302 12.3 19.8833C12.5026 19.7927 12.6885 19.6688 12.85 19.5167C12.9999 19.3631 13.1188 19.182 13.2 18.9833C13.2953 18.7803 13.341 18.5575 13.3333 18.3333C13.3315 17.8961 13.1579 17.4771 12.85 17.1667C12.6951 17.0105 12.5107 16.8865 12.3076 16.8018C12.1045 16.7172 11.8867 16.6737 11.6667 16.6737C11.4467 16.6737 11.2288 16.7172 11.0257 16.8018C10.8226 16.8865 10.6383 17.0105 10.4833 17.1667ZM11.6667 8.33333C12.1087 8.33333 12.5326 8.50893 12.8452 8.82149C13.1577 9.13405 13.3333 9.55797 13.3333 10C13.3333 10.442 13.1577 10.8659 12.8452 11.1785C12.5326 11.4911 12.1087 11.6667 11.6667 11.6667C11.2246 11.6667 10.8007 11.8423 10.4882 12.1548C10.1756 12.4674 10 12.8913 10 13.3333C10 13.7754 10.1756 14.1993 10.4882 14.5118C10.8007 14.8244 11.2246 15 11.6667 15C12.5442 14.9994 13.4062 14.7679 14.1659 14.3287C14.9256 13.8895 15.5564 13.2581 15.9948 12.4979C16.4332 11.7377 16.6638 10.8755 16.6635 9.998C16.6631 9.12045 16.4318 8.25845 15.9928 7.49861C15.5538 6.73877 14.9225 6.10786 14.1624 5.66927C13.4023 5.23068 12.5402 4.99986 11.6627 5C10.7851 5.00014 9.92307 5.23124 9.16312 5.67007C8.40318 6.10891 7.77212 6.74002 7.33334 7.5C7.22315 7.69022 7.15167 7.90037 7.12303 8.11833C7.09439 8.33629 7.10915 8.55777 7.16647 8.77C7.22379 8.98224 7.32253 9.18104 7.45701 9.35495C7.59148 9.52886 7.75903 9.67445 7.95001 9.78333C8.3327 10.0006 8.78581 10.0577 9.21045 9.9422C9.63509 9.82667 9.99681 9.54788 10.2167 9.16667C10.3635 8.91232 10.575 8.7013 10.8296 8.55496C11.0842 8.40862 11.373 8.33217 11.6667 8.33333ZM31.6667 10H21.6667C21.2247 10 20.8007 10.1756 20.4882 10.4882C20.1756 10.8007 20 11.2246 20 11.6667C20 12.1087 20.1756 12.5326 20.4882 12.8452C20.8007 13.1577 21.2247 13.3333 21.6667 13.3333H31.6667C32.1087 13.3333 32.5326 13.5089 32.8452 13.8215C33.1578 14.134 33.3333 14.558 33.3333 15V31.2L30.7167 28.7833C30.4093 28.4956 30.0044 28.3348 29.5833 28.3333H15C14.558 28.3333 14.1341 28.1577 13.8215 27.8452C13.5089 27.5326 13.3333 27.1087 13.3333 26.6667V25C13.3333 24.558 13.1577 24.134 12.8452 23.8215C12.5326 23.5089 12.1087 23.3333 11.6667 23.3333C11.2246 23.3333 10.8007 23.5089 10.4882 23.8215C10.1756 24.134 10 24.558 10 25V26.6667C10 27.9927 10.5268 29.2645 11.4645 30.2022C12.4022 31.1399 13.6739 31.6667 15 31.6667H28.9333L33.9333 36.2167C34.2237 36.4893 34.6021 36.6489 35 36.6667C35.2286 36.6642 35.4547 36.619 35.6667 36.5333C35.9648 36.4032 36.2183 36.1887 36.396 35.9162C36.5737 35.6438 36.6678 35.3253 36.6667 35V15C36.6667 13.6739 36.1399 12.4021 35.2022 11.4645C34.2645 10.5268 32.9928 10 31.6667 10Z" fill="#78AE56"/>
</svg>
