<svg width="35" height="35" viewBox="0 0 35 35" fill="none" xmlns="http://www.w3.org/2000/svg">
<path d="M26.25 20.4167C25.3884 20.4224 24.5387 20.6189 23.7621 20.9921C22.9854 21.3652 22.3011 21.9058 21.7583 22.575L14.3208 19.1479C14.6705 18.0771 14.6705 16.9229 14.3208 15.8521L21.7583 12.425C22.6357 13.4837 23.8588 14.1985 25.2119 14.4431C26.5649 14.6878 27.9609 14.4466 29.1534 13.7622C30.346 13.0777 31.2584 11.994 31.7297 10.7023C32.201 9.41064 32.2009 7.99398 31.7294 6.70237C31.2578 5.41076 30.3452 4.32723 29.1525 3.64302C27.9599 2.95881 26.5638 2.71789 25.2108 2.96279C23.8578 3.20769 22.6348 3.92266 21.7576 4.98152C20.8805 6.04038 20.4055 7.37506 20.4166 8.75C20.421 9.09742 20.4552 9.44383 20.5187 9.78542L12.8187 13.3292C11.9978 12.5265 10.9582 11.9839 9.83032 11.7694C8.70238 11.5549 7.53623 11.678 6.47796 12.1233C5.4197 12.5686 4.51638 13.3164 3.88118 14.2728C3.24599 15.2292 2.90717 16.3519 2.90717 17.5C2.90717 18.6482 3.24599 19.7708 3.88118 20.7272C4.51638 21.6836 5.4197 22.4314 6.47796 22.8767C7.53623 23.322 8.70238 23.4451 9.83032 23.2306C10.9582 23.0161 11.9978 22.4735 12.8187 21.6708L20.5187 25.2146C20.4552 25.5562 20.421 25.9026 20.4166 26.25C20.4166 27.4037 20.7588 28.5315 21.3997 29.4908C22.0407 30.4501 22.9518 31.1978 24.0177 31.6393C25.0836 32.0808 26.2564 32.1963 27.388 31.9713C28.5196 31.7462 29.559 31.1906 30.3748 30.3748C31.1906 29.559 31.7461 28.5196 31.9712 27.388C32.1963 26.2565 32.0808 25.0836 31.6393 24.0177C31.1978 22.9518 30.4501 22.0407 29.4908 21.3998C28.5315 20.7588 27.4037 20.4167 26.25 20.4167ZM26.25 5.83334C26.8268 5.83334 27.3907 6.0044 27.8704 6.32488C28.35 6.64537 28.7239 7.10089 28.9446 7.63384C29.1654 8.1668 29.2231 8.75324 29.1106 9.31902C28.9981 9.8848 28.7203 10.4045 28.3124 10.8124C27.9045 11.2203 27.3848 11.4981 26.819 11.6106C26.2532 11.7232 25.6668 11.6654 25.1338 11.4447C24.6009 11.2239 24.1453 10.8501 23.8249 10.3704C23.5044 9.89077 23.3333 9.32687 23.3333 8.75C23.3333 7.97646 23.6406 7.23459 24.1876 6.68761C24.7346 6.14063 25.4764 5.83334 26.25 5.83334ZM8.74997 20.4167C8.17311 20.4167 7.60921 20.2456 7.12956 19.9251C6.64992 19.6046 6.27608 19.1491 6.05533 18.6162C5.83457 18.0832 5.77681 17.4968 5.88935 16.931C6.00189 16.3652 6.27968 15.8455 6.68758 15.4376C7.09548 15.0297 7.61518 14.7519 8.18096 14.6394C8.74674 14.5268 9.33318 14.5846 9.86613 14.8054C10.3991 15.0261 10.8546 15.3999 11.1751 15.8796C11.4956 16.3592 11.6666 16.9231 11.6666 17.5C11.6666 18.2736 11.3594 19.0154 10.8124 19.5624C10.2654 20.1094 9.52352 20.4167 8.74997 20.4167ZM26.25 29.1667C25.6731 29.1667 25.1092 28.9956 24.6296 28.6751C24.1499 28.3546 23.7761 27.8991 23.5553 27.3662C23.3346 26.8332 23.2768 26.2468 23.3894 25.681C23.5019 25.1152 23.7797 24.5955 24.1876 24.1876C24.5955 23.7797 25.1152 23.5019 25.681 23.3894C26.2467 23.2768 26.8332 23.3346 27.3661 23.5554C27.8991 23.7761 28.3546 24.1499 28.6751 24.6296C28.9956 25.1092 29.1666 25.6731 29.1666 26.25C29.1666 27.0236 28.8594 27.7654 28.3124 28.3124C27.7654 28.8594 27.0235 29.1667 26.25 29.1667Z" fill="#78AE56"/>
</svg>
