<svg width="35" height="35" viewBox="0 0 35 35" fill="none" xmlns="http://www.w3.org/2000/svg">
<path d="M33.4396 16.9896L33.3521 16.8292C33.327 16.757 33.2927 16.6884 33.25 16.625L29.75 11.9583C29.3425 11.415 28.8141 10.974 28.2066 10.6702C27.5991 10.3665 26.9292 10.2083 26.25 10.2083H23.3333V8.75C23.3333 7.58968 22.8724 6.47688 22.0519 5.65641C21.2315 4.83594 20.1187 4.375 18.9583 4.375H5.83334C4.67302 4.375 3.56022 4.83594 2.73975 5.65641C1.91928 6.47688 1.45834 7.58968 1.45834 8.75V24.7917C1.45834 25.1784 1.61199 25.5494 1.88548 25.8229C2.15897 26.0964 2.5299 26.25 2.91668 26.25H4.37501C4.37501 27.4103 4.83595 28.5231 5.65642 29.3436C6.47689 30.1641 7.58969 30.625 8.75001 30.625C9.91033 30.625 11.0231 30.1641 11.8436 29.3436C12.6641 28.5231 13.125 27.4103 13.125 26.25H21.875C21.875 27.4103 22.3359 28.5231 23.1564 29.3436C23.9769 30.1641 25.0897 30.625 26.25 30.625C27.4103 30.625 28.5231 30.1641 29.3436 29.3436C30.1641 28.5231 30.625 27.4103 30.625 26.25H32.0833C32.4701 26.25 32.841 26.0964 33.1145 25.8229C33.388 25.5494 33.5417 25.1784 33.5417 24.7917V17.5C33.5385 17.3251 33.504 17.1522 33.4396 16.9896ZM8.75001 27.7083C8.46158 27.7083 8.17963 27.6228 7.9398 27.4626C7.69998 27.3023 7.51306 27.0746 7.40269 26.8081C7.29231 26.5416 7.26343 26.2484 7.3197 25.9655C7.37597 25.6826 7.51486 25.4228 7.71881 25.2188C7.92276 25.0149 8.18261 24.876 8.4655 24.8197C8.74839 24.7634 9.04161 24.7923 9.30809 24.9027C9.57456 25.0131 9.80233 25.2 9.96257 25.4398C10.1228 25.6796 10.2083 25.9616 10.2083 26.25C10.2083 26.6368 10.0547 27.0077 9.78121 27.2812C9.50772 27.5547 9.13678 27.7083 8.75001 27.7083ZM20.4167 23.3333H11.9875C11.5775 22.8822 11.0776 22.5217 10.5201 22.2751C9.96258 22.0284 9.35966 21.901 8.75001 21.901C8.14036 21.901 7.53743 22.0284 6.97991 22.2751C6.42239 22.5217 5.92257 22.8822 5.51251 23.3333H4.37501V8.75C4.37501 8.36323 4.52866 7.99229 4.80215 7.7188C5.07564 7.44531 5.44657 7.29167 5.83334 7.29167H18.9583C19.3451 7.29167 19.716 7.44531 19.9895 7.7188C20.263 7.99229 20.4167 8.36323 20.4167 8.75V23.3333ZM23.3333 13.125H26.25C26.4764 13.125 26.6997 13.1777 26.9022 13.279C27.1047 13.3802 27.2808 13.5272 27.4167 13.7083L29.1667 16.0417H23.3333V13.125ZM26.25 27.7083C25.9616 27.7083 25.6796 27.6228 25.4398 27.4626C25.2 27.3023 25.0131 27.0746 24.9027 26.8081C24.7923 26.5416 24.7634 26.2484 24.8197 25.9655C24.876 25.6826 25.0149 25.4228 25.2188 25.2188C25.4228 25.0149 25.6826 24.876 25.9655 24.8197C26.2484 24.7634 26.5416 24.7923 26.8081 24.9027C27.0746 25.0131 27.3023 25.2 27.4626 25.4398C27.6228 25.6796 27.7083 25.9616 27.7083 26.25C27.7083 26.6368 27.5547 27.0077 27.2812 27.2812C27.0077 27.5547 26.6368 27.7083 26.25 27.7083ZM30.625 23.3333H29.4875C28.7115 22.4788 27.6292 21.9656 26.4765 21.9055C25.3238 21.8454 24.194 22.2433 23.3333 23.0125V18.9583H30.625V23.3333Z" fill="#78AE56"/>
</svg>
