<svg width="15" height="26" viewBox="0 0 15 26" fill="none" xmlns="http://www.w3.org/2000/svg">
<path d="M14.1376 11.1688L3.52512 0.575008C3.35081 0.399267 3.14344 0.259778 2.91495 0.164587C2.68646 0.0693954 2.44139 0.0203857 2.19387 0.0203857C1.94635 0.0203857 1.70127 0.0693954 1.47279 0.164587C1.2443 0.259778 1.03692 0.399267 0.862619 0.575008C0.513398 0.926312 0.317383 1.40153 0.317383 1.89688C0.317383 2.39223 0.513398 2.86745 0.862619 3.21876L10.1439 12.5938L0.862619 21.875C0.513398 22.2263 0.317383 22.7015 0.317383 23.1969C0.317383 23.6922 0.513398 24.1675 0.862619 24.5188C1.03627 24.6959 1.24336 24.8369 1.47187 24.9334C1.70039 25.03 1.94579 25.0802 2.19387 25.0813C2.44194 25.0802 2.68735 25.03 2.91587 24.9334C3.14438 24.8369 3.35147 24.6959 3.52512 24.5188L14.1376 13.925C14.3279 13.7494 14.4798 13.5363 14.5837 13.2991C14.6876 13.062 14.7412 12.8058 14.7412 12.5469C14.7412 12.2879 14.6876 12.0318 14.5837 11.7946C14.4798 11.5574 14.3279 11.3443 14.1376 11.1688Z" fill="#78AE56"/>
</svg>
