<svg width="36" height="55" viewBox="0 0 36 55" fill="none" xmlns="http://www.w3.org/2000/svg">
<g clip-path="url(#clip0_136_574)">
<path d="M16.6856 0.0903511C14.3452 0.275974 12.2874 0.832851 10.2337 1.83691C4.08977 4.84066 0.239771 11.2152 0.44218 18.0369C0.522301 20.5893 1.08314 22.9096 2.15423 25.1244C2.61387 26.0736 2.92592 26.6136 3.55001 27.5502C3.82411 27.9552 7.15965 33.3257 10.9717 39.4766C14.7795 45.6318 17.9127 50.6689 17.9295 50.6689C17.9464 50.6689 21.0795 45.6318 24.8874 39.4808C28.6994 33.3257 32.035 27.9552 32.309 27.5502C32.9331 26.6136 33.2452 26.0736 33.7048 25.1244C35.4801 21.4583 35.8976 17.2396 34.8813 13.2233C33.8524 9.18176 31.4151 5.65066 27.9657 3.22066C25.0307 1.14926 21.4253 0.018631 17.8283 0.0481606C17.4319 0.0523796 16.9175 0.0692558 16.6856 0.0903511ZM19.3633 7.53223C21.2187 7.86972 22.7916 8.67551 24.0862 9.95801C27.3289 13.1685 27.5651 18.3111 24.6343 21.8211C23.2217 23.5171 21.1892 24.6182 18.9669 24.8924C18.4862 24.9514 17.3729 24.9514 16.8922 24.8924C13.2952 24.4494 10.356 21.876 9.45363 18.3786C8.85905 16.0794 9.23435 13.5861 10.4783 11.5738C11.8699 9.33363 14.1133 7.87816 16.791 7.49004C17.3392 7.40988 18.8193 7.43519 19.3633 7.53223Z" fill="#873CFF"/>
</g>
<defs>
<clipPath id="clip0_136_574">
<rect x="0.429688" y="0.0439453" width="35" height="54" rx="17.5" fill="white"/>
</clipPath>
</defs>
</svg>
