<svg width="12" height="11" viewBox="0 0 12 11" fill="none" xmlns="http://www.w3.org/2000/svg">
<path d="M5.63668 0.666083C5.74674 0.443132 6.06466 0.443132 6.17471 0.666083L7.59655 3.54657C7.64021 3.63503 7.72457 3.69637 7.82217 3.71063L11.0023 4.17545C11.2482 4.2114 11.3463 4.51375 11.1682 4.6872L8.86758 6.92799C8.79682 6.99691 8.76452 7.09625 8.78122 7.19361L9.3241 10.3589C9.36613 10.604 9.10887 10.7909 8.88878 10.6751L6.04533 9.17978C5.95792 9.13381 5.85348 9.13381 5.76606 9.17978L2.92262 10.6751C2.70253 10.7909 2.44526 10.604 2.4873 10.3589L3.03018 7.19361C3.04688 7.09625 3.01458 6.99691 2.94382 6.92799L0.643211 4.6872C0.465133 4.51375 0.563168 4.2114 0.809143 4.17545L3.98922 3.71063C4.08683 3.69637 4.17118 3.63503 4.21484 3.54657L5.63668 0.666083Z" fill="#FFC400"/>
</svg>
